<?xml version="1.0" encoding="UTF-8"?>
<svg version="1.1" xmlns="http://www.w3.org/2000/svg" width="300" height="300">
<path d="M0 0 C4.17542067 3.50109562 8.13048529 7.16578612 12 11 C12.81726563 11.804375 13.63453125 12.60875 14.4765625 13.4375 C31.81568484 31.55122231 38.65811584 55.87937242 38.47460938 80.39160156 C37.90310198 102.07713233 29.97068682 122.37249453 16 139 C15.41734375 139.72832031 14.8346875 140.45664063 14.234375 141.20703125 C1.13365394 156.92239202 -17.36964082 166.20761184 -37 171 C-38.32 171 -39.64 171 -41 171 C-40.99000725 172.69009689 -40.99000725 172.69009689 -40.97981262 174.41433716 C-40.9189732 185.03749397 -40.8740137 195.66061538 -40.84456348 206.28390694 C-40.8289138 211.74533479 -40.80768805 217.2066219 -40.77368164 222.66796875 C-40.74106365 227.93938453 -40.72314173 233.210665 -40.71536827 238.48217392 C-40.70982917 240.49240117 -40.69901266 242.5026211 -40.68280983 244.51279068 C-40.6610033 247.33046673 -40.65803445 250.14758505 -40.65942383 252.96533203 C-40.648638 253.79467758 -40.63785217 254.62402313 -40.6267395 255.47850037 C-40.65657372 261.07738834 -41.58470104 265.35197692 -45.5 269.64453125 C-50.90720865 273.85483174 -55.27893677 274.82862423 -62 274 C-66.9710149 271.46759618 -70.49430567 268.01138866 -73 263 C-73.09337788 260.10117436 -73.12574273 257.22653426 -73.11352539 254.32763672 C-73.11367142 253.43001617 -73.11381744 252.53239563 -73.1139679 251.60757446 C-73.11326953 248.63158782 -73.10548067 245.65566325 -73.09765625 242.6796875 C-73.0957918 240.61988357 -73.09436802 238.56007919 -73.09336853 236.50027466 C-73.08954548 231.07182598 -73.07971699 225.64340395 -73.06866455 220.21496582 C-73.05844588 214.67847046 -73.05386993 209.14197081 -73.04882812 203.60546875 C-73.03809455 192.73696744 -73.02102065 181.86848594 -73 171 C-74.96940104 170.76806641 -76.93880208 170.53613281 -78.90820312 170.30419922 C-99.8581998 167.25754938 -120.42032149 152.51406356 -133 136 C-149.35518837 113.12521764 -155.17604026 88.32833292 -151.67041016 60.37158203 C-147.54873335 36.67068534 -133.16692836 13.50570072 -113.57421875 -0.55078125 C-79.59192182 -23.62342208 -33.3950345 -25.26792433 0 0 Z M-105 33 C-117.21863027 48.4689063 -123.67149801 65.38404416 -121.56640625 85.1875 C-119.05956627 102.06112632 -110.79519728 117.70040018 -97.31298828 128.33007812 C-82.88414105 138.89859357 -66.43943505 143.67823123 -48.60546875 141.60546875 C-30.5962284 138.68250304 -15.28902746 129.35881952 -4.0390625 114.98828125 C-0.60223974 109.95155824 1.80651999 104.67352042 4 99 C4.3403125 98.17628906 4.680625 97.35257812 5.03125 96.50390625 C10.55202278 80.52944798 7.72271557 62.07393746 0.6484375 47.1484375 C-2.95032922 40.65457353 -7.82177499 35.2762637 -13 30 C-13.61488281 29.360625 -14.22976562 28.72125 -14.86328125 28.0625 C-27.13724914 16.28790125 -43.48486931 12.4510834 -59.99804688 12.50976562 C-77.03054291 13.00893098 -93.41481426 20.36732911 -105 33 Z " fill="#F7FAFC" transform="translate(207,22)"/>
<path d="M0 0 C5.51118969 4.07434381 10.78466964 9.72717999 12.1875 16.6171875 C13.18078368 25.75762945 12.48953173 32.97002635 7.1875 40.6171875 C2.11523809 46.59985539 -3.89776259 50.73171774 -11.8125 51.6171875 C-21.19815536 51.74050268 -29.00721836 49.23854261 -35.8125 42.6171875 C-41.20329999 36.16076426 -43.1815836 28.49484381 -42.65625 20.12890625 C-41.07685406 11.33592307 -36.03779724 4.67017315 -28.8125 -0.3828125 C-20.15880386 -5.68099381 -8.64567448 -5.03383021 0 0 Z " fill="#F7FAFC" transform="translate(164.8125,75.3828125)"/>
</svg>
