<?xml version="1.0" encoding="UTF-8"?>
<svg version="1.1" xmlns="http://www.w3.org/2000/svg" width="200" height="200">
<path d="M0 0 C1.61829257 1.35834636 3.22327152 2.73276132 4.8125 4.125 C5.48925781 4.70636719 6.16601562 5.28773437 6.86328125 5.88671875 C22.93311865 20.732801 30.43537085 41.37533537 32.09375 62.75 C32.70456369 85.14650182 24.51964892 106.33691605 9.8125 123.125 C8.94044922 124.14013672 8.94044922 124.14013672 8.05078125 125.17578125 C-6.795301 141.24561865 -27.43783537 148.74787085 -48.8125 150.40625 C-71.20900182 151.01706369 -92.39941605 142.83214892 -109.1875 128.125 C-110.20263672 127.25294922 -110.20263672 127.25294922 -111.23828125 126.36328125 C-127.30811865 111.517199 -134.81037085 90.87466463 -136.46875 69.5 C-137.07956369 47.10349818 -128.89464892 25.91308395 -114.1875 9.125 C-113.60613281 8.44824219 -113.02476563 7.77148438 -112.42578125 7.07421875 C-83.50554224 -24.22990113 -32.88593038 -25.61693662 0 0 Z M-102.8125 22.625 C-116.07082772 37.90498762 -119.56758574 56.44928227 -118.1875 76.125 C-116.07328118 93.00065651 -105.75614357 108.01351543 -93.1484375 118.953125 C-76.86949901 130.89387671 -58.5257221 134.17188787 -38.7265625 131.69140625 C-22.2266168 128.13042601 -7.10309681 117.64302587 2.8125 104.125 C13.03116981 87.54864121 16.9027895 68.99211783 12.75 49.75 C7.48426261 32.32877535 -3.80170745 16.4961738 -19.98535156 7.80322266 C-49.20085462 -7.01056204 -80.10457783 -0.46976923 -102.8125 22.625 Z " fill="#F7FAFC" transform="translate(152.1875,33.875)"/>
<path d="M0 0 C5.61 0 11.22 0 17 0 C17 13.86 17 27.72 17 42 C30.86 42 44.72 42 59 42 C59 47.61 59 53.22 59 59 C39.53 59 20.06 59 0 59 C0 39.53 0 20.06 0 0 Z " fill="#F8FAFC" transform="translate(83,58)"/>
</svg>
