<?xml version="1.0" encoding="UTF-8"?>
<svg version="1.1" xmlns="http://www.w3.org/2000/svg" width="20" height="20">
<path d="M0 0 C2.89479637 1.73687782 3.01335881 3.05152682 3.875 6.375 C4.01533978 10.44485353 3.56972167 11.89861178 1 15 C-1.71437679 17.13272462 -3.04826833 16.99745956 -6.5625 16.8125 C-10 16 -10 16 -11.875 14.875 C-13.64983667 11.91693888 -13.88200002 9.42199954 -14 6 C-12.78392788 3.11982918 -11.69696456 1.54761501 -9.25 -0.375 C-5.90127203 -1.30520221 -3.35093496 -0.79203917 0 0 Z M-9.875 3.125 C-11.52854531 5.88090884 -11.39365568 7.85075452 -11 11 C-10 13 -10 13 -8 14 C-4.85075452 14.39365568 -2.88090884 14.52854531 -0.125 12.875 C1.52854531 10.11909116 1.39365568 8.14924548 1 5 C0 3 0 3 -2 2 C-5.14924548 1.60634432 -7.11909116 1.47145469 -9.875 3.125 Z " fill="#F7FAFC" transform="translate(15,2)"/>
<path d="M0 0 C0.66 0 1.32 0 2 0 C2 1.65 2 3.3 2 5 C3.65 5 5.3 5 7 5 C7 5.66 7 6.32 7 7 C4.69 7 2.38 7 0 7 C0 4.69 0 2.38 0 0 Z " fill="#F8FBFC" transform="translate(8,5)"/>
</svg>
