<?xml version="1.0" encoding="UTF-8"?>
<svg version="1.1" xmlns="http://www.w3.org/2000/svg" width="20" height="20">
<path d="M0 0 C0.94875 0.04125 1.8975 0.0825 2.875 0.125 C4.38797182 2.52795525 4.91165969 3.75840307 4.625 6.625 C3.920492 8.97335999 3.06344709 10.98579523 1.875 13.125 C2.535 13.125 3.195 13.125 3.875 13.125 C4.2875 12.155625 4.7 11.18625 5.125 10.1875 C6.875 7.125 6.875 7.125 8.8125 6.0625 C10.875 6.125 10.875 6.125 13.125 7.1875 C14.875 9.125 14.875 9.125 15.3125 12 C14.83622636 15.40195459 13.84026528 17.34087419 11.875 20.125 C7.68974628 19.56896988 5.10303567 18.19926461 1.6875 15.75 C0.82769531 15.14414063 -0.03210938 14.53828125 -0.91796875 13.9140625 C-3.125 12.125 -3.125 12.125 -5.125 9.125 C-5.375 5.5625 -5.375 5.5625 -5.125 2.125 C-3.125 0.125 -3.125 0.125 0 0 Z M-2.125 7.125 C-1.795 8.115 -1.465 9.105 -1.125 10.125 C-0.465 9.465 0.195 8.805 0.875 8.125 C-0.115 7.795 -1.105 7.465 -2.125 7.125 Z M8.875 14.125 C9.205 15.115 9.535 16.105 9.875 17.125 C9.875 16.135 9.875 15.145 9.875 14.125 C9.545 14.125 9.215 14.125 8.875 14.125 Z " fill="#F7FAFC" transform="translate(5.125,-0.125)"/>
</svg>
