<?xml version="1.0" encoding="UTF-8"?>
<svg version="1.1" xmlns="http://www.w3.org/2000/svg" width="200" height="200">
<path d="M0 0 C13.02962244 8.62978905 20.69279544 20.74292827 24 36 C25.87849572 59.08865571 18.80267032 74.80214125 5.25390625 92.89453125 C0.69382464 99.17748599 -3.52114281 105.70416224 -7.79833984 112.18164062 C-8.86151368 113.79044167 -9.9303373 115.39550596 -11 117 C-10.26837646 117.27295898 -9.53675293 117.54591797 -8.78295898 117.82714844 C-6.13002842 118.94520076 -3.88822445 120.20865644 -1.47265625 121.765625 C-0.60922607 122.31887451 0.2542041 122.87212402 1.14379883 123.44213867 C2.52668091 124.33703003 2.52668091 124.33703003 3.9375 125.25 C5.91918166 126.52227432 7.90095511 127.79440569 9.8828125 129.06640625 C10.89633789 129.71883301 11.90986328 130.37125977 12.95410156 131.04345703 C16.8096201 133.52006216 20.67759261 135.97671941 24.54663086 138.43212891 C34.73472718 144.89804934 44.88216602 151.4247498 55 158 C53.86184949 154.58554846 52.20140934 152.0886517 50.25 149.0625 C40.67669872 133.89170643 37.65926454 118.90340462 40.6484375 101.1484375 C44.56894087 87.37641285 52.50138599 75.30139875 64.9921875 68.02734375 C76.01964982 62.38488735 87.49005997 61.42244454 99.34375 65.03515625 C113.7050009 70.25166945 122.6454389 80.52894002 129 94 C134.35094044 106.17924491 133.77040448 122.82465815 129.2421875 135.14453125 C125.06000249 144.75829615 119.3123245 152.97141938 113.2265625 161.44921875 C109.95858255 166.02062983 106.84713847 170.68686574 103.75 175.375 C102.75047814 176.87011143 101.75049209 178.36491265 100.75 179.859375 C99.04480954 182.41013381 97.37901153 184.978199 95.75 187.578125 C95.09 188.58359375 94.43 189.5890625 93.75 190.625 C93.20859375 191.48351562 92.6671875 192.34203125 92.109375 193.2265625 C89.52825216 195.39661763 87.55689428 195.69772949 84.21289062 195.49853516 C79.84963633 194.51555135 76.48114738 191.92002566 72.875 189.375 C71.09991296 188.17176755 69.32383583 186.96999471 67.546875 185.76953125 C66.63357422 185.1451416 65.72027344 184.52075195 64.77929688 183.87744141 C60.28830228 180.84373195 55.7070535 177.95604102 51.125 175.0625 C49.2732197 173.88706181 47.42165833 172.71127863 45.5703125 171.53515625 C44.65024414 170.95137207 43.73017578 170.36758789 42.78222656 169.76611328 C38.18552589 166.84820062 33.59296022 163.92379532 29 161 C27.16668678 159.83330173 25.33335344 158.66663508 23.5 157.5 C19.83333333 155.16666667 16.16666667 152.83333333 12.5 150.5 C11.5912915 149.92209717 10.68258301 149.34419434 9.74633789 148.7487793 C7.92386784 147.58828921 6.10272659 146.42570954 4.28295898 145.26098633 C-0.45749793 142.23081524 -5.21957874 139.24661604 -10.02734375 136.32421875 C-11.01669922 135.71513672 -12.00605469 135.10605469 -13.02539062 134.47851562 C-14.90240129 133.32411 -16.78733343 132.18243885 -18.68164062 131.05664062 C-24.93182548 127.18613488 -28.87602137 123.04600162 -33 117 C-33.78697566 115.86733177 -34.57435765 114.7349458 -35.36206055 113.6027832 C-37.60040486 110.36616707 -39.8079799 107.10965588 -42.00585938 103.84545898 C-43.36229288 101.83136807 -44.72369643 99.82071308 -46.0859375 97.81054688 C-48.74133891 93.88520223 -51.37778242 89.94758428 -54 86 C-54.42921753 85.35401855 -54.85843506 84.70803711 -55.30065918 84.04248047 C-56.54339978 82.16432964 -57.77724284 80.28067366 -59.0078125 78.39453125 C-59.71824707 77.30889893 -60.42868164 76.2232666 -61.16064453 75.10473633 C-68.71168479 62.35897327 -70.51151629 46.02157731 -67.12890625 31.6328125 C-64.87041231 23.78623187 -61.0840972 17.33044141 -56 11 C-55.401875 10.113125 -54.80375 9.22625 -54.1875 8.3125 C-40.15629094 -6.52049243 -17.81844411 -10.04781828 0 0 Z M-44 20 C-50.53121488 28.22399914 -54.8003858 37.90766478 -54.34375 48.5625 C-52.89681502 58.8225844 -48.65174945 66.50969452 -43 75 C-42.31317139 76.03785645 -41.62634277 77.07571289 -40.91870117 78.14501953 C-38.75245932 81.39869655 -36.56640415 84.63822638 -34.375 87.875 C-34.00568359 88.42639648 -33.63636719 88.97779297 -33.25585938 89.54589844 C-32.16301911 91.17750321 -31.06205836 92.80365957 -29.9609375 94.4296875 C-29.31946777 95.38085449 -28.67799805 96.33202148 -28.01708984 97.31201172 C-25.88988931 100.14673429 -23.55982847 102.55448427 -21 105 C-15.71499837 97.10027736 -10.44035432 89.19378081 -5.1796875 81.27783203 C-3.89273765 79.34250623 -2.60429933 77.40816644 -1.3125 75.47607422 C6.39104159 63.9448354 12.21161195 53.12849327 9.38671875 38.9140625 C6.60834625 28.60838126 1.95327804 20.06973366 -7.3125 14.375 C-20.31524259 7.31228581 -33.30190124 10.6327652 -44 20 Z M62 91 C55.62404414 100.96168895 52.51080274 111.06481641 54.47265625 122.8359375 C56.93860746 132.67495891 62.3986266 140.21878269 68.17626953 148.40087891 C70.89357613 152.27349551 73.54312787 156.19146177 76.19995117 160.10571289 C79.12305219 164.41082071 82.06125505 168.70556243 85 173 C88.76266981 171.74577673 89.29804073 170.46121371 91.44140625 167.1796875 C92.10301758 166.17655518 92.76462891 165.17342285 93.44628906 164.13989258 C94.14463867 163.06247803 94.84298828 161.98506348 95.5625 160.875 C97.00599728 158.6676331 98.45000695 156.46060119 99.89453125 154.25390625 C100.59658691 153.1777002 101.29864258 152.10149414 102.02197266 150.99267578 C103.68777862 148.47237838 105.38801505 145.99034747 107.13671875 143.52734375 C113.90272133 133.9641752 119.95627882 123.13691352 118 111 C115.65974735 100.48201056 111.65310565 91.1206359 103.046875 84.28515625 C88.87999115 75.39029978 72.67964325 77.91141467 62 91 Z " fill="#F7FAFC" transform="translate(68,5)"/>
<path d="M0 0 C6.25007377 4.20678042 9.49026588 9.69576256 11 17 C11.56007004 25.26103312 10.05728734 31.86313733 4.75 38.375 C0.15748062 43.18803702 -4.31014678 45.10309227 -10.9375 45.4375 C-17.79578603 45.18772934 -22.65482545 42.75099209 -27.3125 37.75 C-32.22084965 31.46410262 -33.97035109 24.91105678 -33 17 C-31.69298043 10.5193613 -29.11647722 5.28407854 -24 1 C-15.91644612 -3.97675995 -8.4463234 -4.26616742 0 0 Z M-17 16 C-18.42662219 18.85324437 -18.31033868 20.83454549 -18 24 C-16.610911 27.04913936 -16.610911 27.04913936 -14 29 C-10.17507176 29.067104 -7.98540884 28.85825932 -5.0625 26.3125 C-3.67568567 23.2941394 -3.5887126 21.29029921 -4 18 C-5.46062889 15.15561742 -6.39850468 14.23743236 -9.375 13.0625 C-12.76785009 12.98171785 -14.31700046 13.98775035 -17 16 Z " fill="#F7FAFC" transform="translate(165,96)"/>
<path d="M0 0 C6.76163731 5.2740771 11.17515202 10.96446192 12.44140625 19.59375 C12.84230978 26.93933718 10.1780196 33.18098615 6.3125 39.3125 C1.59950002 43.89084284 -3.04088787 46.07332302 -9.5390625 46.5390625 C-15.74093668 46.2694158 -21.59443311 43.95587616 -25.875 39.4375 C-30.75526747 31.92299725 -33.1656324 25.22220058 -31.44921875 16.19921875 C-29.40266618 8.9295627 -25.19217629 3.90609631 -19.1875 -0.5625 C-13.06815452 -2.40984958 -5.84533571 -3.02030709 0 0 Z M-15.25 16 C-17.49840519 19.37260779 -17.44283945 21.46262383 -16.875 25.4375 C-15.39506844 28.00088689 -15.39506844 28.00088689 -12.875 29.4375 C-9.23867425 30.04355429 -7.59185231 29.90911336 -4.5 27.875 C-2.25159481 24.50239221 -2.30716055 22.41237617 -2.875 18.4375 C-4.35493156 15.87411311 -4.35493156 15.87411311 -6.875 14.4375 C-10.51132575 13.83144571 -12.15814769 13.96588664 -15.25 16 Z " fill="#F7FAFC" transform="translate(55.875,26.5625)"/>
</svg>
