<?xml version="1.0" encoding="UTF-8"?>
<svg version="1.1" xmlns="http://www.w3.org/2000/svg" width="577" height="433">
<path d="M0 0 C1.39441547 -0.00418078 2.78882753 -0.00966236 4.18323338 -0.01631981 C7.98708331 -0.03069566 11.79071513 -0.02655453 15.5945766 -0.019153 C19.70784679 -0.01440402 23.82107095 -0.02694642 27.93432617 -0.03717041 C35.98175339 -0.05433002 44.02910244 -0.05520432 52.0765432 -0.04995751 C58.62032319 -0.04590924 65.16408014 -0.04736715 71.70785904 -0.05270576 C73.10710151 -0.0538284 73.10710151 -0.0538284 74.5346115 -0.05497371 C76.42990613 -0.05650525 78.32520074 -0.0580436 80.22049536 -0.05958868 C97.97758702 -0.07330348 115.73463457 -0.06788323 133.49172522 -0.05640347 C149.71973536 -0.04647237 165.94763145 -0.05941144 182.175624 -0.08333766 C198.85841994 -0.10774819 215.54116282 -0.11733171 232.22397625 -0.11068493 C241.58215026 -0.10719703 250.9402366 -0.10939642 260.29839706 -0.12693596 C268.26478498 -0.14168239 276.23102348 -0.14226155 284.19740854 -0.12486505 C288.25782336 -0.11637269 292.31797152 -0.114162 296.37837219 -0.1295166 C300.10307195 -0.14342677 303.82727821 -0.13852036 307.55194987 -0.11927737 C309.52117599 -0.1137785 311.49042764 -0.12773589 313.4596051 -0.14263147 C326.75554317 -0.03357042 338.29004488 3.27710278 348.12039185 12.4228363 C356.01515656 20.65138703 359.67322175 31.19439672 360.30789185 42.51268005 C359.97618553 54.30898591 356.05999947 64.33634938 347.72195435 72.5712738 C343.95181215 76.08464552 340.84876563 78.67705965 335.93289185 80.38768005 C336.26289185 81.37768005 336.59289185 82.36768005 336.93289185 83.38768005 C337.06070971 86.0616297 336.97681056 88.70863863 336.93289185 91.38768005 C337.53649536 91.3719696 338.14009888 91.35625916 338.76199341 91.34007263 C361.59018435 90.82441487 361.59018435 90.82441487 370.93289185 94.38768005 C371.77464966 94.70478943 372.61640747 95.0218988 373.4836731 95.34861755 C383.04819253 99.54332126 392.8343268 107.57694169 396.93289185 117.38768005 C402.3326487 132.83599105 402.63216533 146.85034781 395.49539185 161.76268005 C392.43054746 167.81144883 388.46664907 171.98575465 383.18289185 176.20018005 C382.1980481 176.99037537 381.21320435 177.78057068 380.19851685 178.5947113 C379.4508606 179.18639099 378.70320435 179.77807068 377.93289185 180.38768005 C378.89195435 181.53236755 378.89195435 181.53236755 379.87039185 182.70018005 C382.80932657 186.52970106 383.07039973 189.25346958 383.05789185 193.95018005 C383.06046997 194.92084412 383.0630481 195.89150818 383.06570435 196.8915863 C382.93289185 199.38768005 382.93289185 199.38768005 381.93289185 201.38768005 C382.79269653 201.47404724 383.65250122 201.56041443 384.5383606 201.6493988 C398.86284185 203.35209069 413.61354506 208.15499209 423.5696106 219.2040863 C425.11774199 221.21543811 426.5415459 223.26484058 427.93289185 225.38768005 C428.46011841 226.18560974 428.98734497 226.98353943 429.5305481 227.8056488 C435.89188111 237.8868768 437.45833303 246.30006769 437.43289185 258.20018005 C437.46125122 259.39449646 437.4896106 260.58881287 437.51882935 261.81932068 C437.55496595 278.41505679 429.5623473 288.62783378 418.7883606 300.28611755 C416.89519095 302.24913876 416.89519095 302.24913876 415.93289185 304.38768005 C416.81976685 304.57330505 417.70664185 304.75893005 418.62039185 304.95018005 C424.11768715 307.33579877 426.1384947 311.40168719 428.30789185 316.82518005 C429.59742288 324.17550693 428.15249997 329.29269055 423.93289185 335.38768005 C418.24095105 340.92983294 412.22231128 341.68592897 404.53993416 341.64494896 C403.28818754 341.65020807 403.28818754 341.65020807 402.0111531 341.65557343 C399.20831722 341.66489457 396.4056888 341.65996221 393.60284424 341.65510559 C391.57554069 341.65884152 389.54823857 341.66344281 387.52093875 341.66883624 C381.94439232 341.68108936 376.36790577 341.68080302 370.79134893 341.67844748 C364.77881282 341.67803989 358.76629605 341.68907323 352.75376892 341.69856262 C340.97015273 341.7151878 329.1865515 341.72069882 317.40292604 341.72178738 C307.82225296 341.72270663 298.24158635 341.72682419 288.66091537 341.73318863 C285.90255671 341.73498376 283.14419803 341.73676339 280.38583934 341.73853838 C279.70007697 341.73898048 279.01431459 341.73942258 278.30777154 341.73987807 C259.01566303 341.75218814 239.72355678 341.76007907 220.43144417 341.75919151 C219.70399365 341.75916036 218.97654314 341.7591292 218.22704866 341.7590971 C214.54010223 341.75893088 210.85315579 341.7587328 207.16620935 341.75852768 C206.4339833 341.75848779 205.70175724 341.7584479 204.94734251 341.7584068 C203.46660034 341.75832593 201.98585816 341.75824233 200.50511599 341.75815602 C177.4842712 341.75693141 154.46348539 341.77192626 131.44265747 341.79930115 C105.57094275 341.83005353 79.69926679 341.84723161 53.82753265 341.8453747 C51.06603042 341.84522545 48.3045282 341.84512803 45.54302597 341.84506607 C44.52312285 341.84503111 44.52312285 341.84503111 43.48261562 341.84499544 C32.56054378 341.844934 21.6385233 341.85768327 10.71646672 341.8749306 C-0.27233231 341.89192364 -11.26106589 341.89349069 -22.24987237 341.88071196 C-28.19814655 341.87419011 -34.1462355 341.87403689 -40.09449196 341.89141846 C-45.54778246 341.90718921 -51.00074148 341.90424447 -56.45402409 341.88685019 C-58.41912464 341.88378905 -60.38425017 341.88737897 -62.34932123 341.89857034 C-84.53336275 342.0164688 -104.76651796 337.40187965 -121.25094604 321.6572113 C-133.41432562 309.26626451 -140.61095947 292.96012907 -140.81271362 275.58909607 C-140.79659132 274.23024834 -140.77717034 272.87143612 -140.75460815 271.51268005 C-140.74979431 270.81278961 -140.74498047 270.11289917 -140.74002075 269.39179993 C-140.63707111 258.43486057 -139.57402349 249.07833885 -134.06710815 239.38768005 C-133.57597534 238.50982849 -133.08484253 237.63197693 -132.5788269 236.7275238 C-131.19035348 234.48575674 -129.71392164 232.44515987 -128.06710815 230.38768005 C-127.28400269 229.39768005 -127.28400269 229.39768005 -126.4850769 228.38768005 C-113.70890265 213.06823927 -98.89358239 206.3336182 -80.06710815 201.38768005 C-81.0107019 200.60457458 -81.0107019 200.60457458 -81.97335815 199.8056488 C-91.71238451 191.43067283 -98.5029428 182.82474128 -102.06710815 170.38768005 C-102.29140503 169.70834412 -102.5157019 169.02900818 -102.74679565 168.3290863 C-106.87120099 153.83716893 -104.74786049 135.46693062 -97.62960815 122.26268005 C-94.69526007 117.87235773 -91.2162788 113.93448831 -87.69210815 110.01268005 C-87.16302856 109.41697205 -86.63394897 108.82126404 -86.08883667 108.20750427 C-82.18420672 104.03426425 -78.25708398 101.6898198 -73.06710815 99.38768005 C-71.75088169 98.70734161 -70.43790589 98.02064359 -69.12960815 97.32518005 C-60.38117456 93.01018863 -51.72338873 91.55522465 -42.06710815 90.38768005 C-42.50281128 89.92619568 -42.9385144 89.4647113 -43.38742065 88.98924255 C-54.32083886 77.01454642 -59.44650058 64.60787394 -59.20773315 48.3915863 C-58.57495387 34.87471771 -51.67534425 22.42841071 -42.1569519 13.02049255 C-30.55691166 2.54327913 -15.06907341 -0.07107484 0 0 Z M-40.34054565 28.1572113 C-47.95344682 37.99197728 -48.05263691 48.92660403 -46.79367065 61.01268005 C-44.97328063 70.90461076 -37.88237472 80.1321031 -29.8678894 85.99705505 C-21.89880511 90.72565655 -13.63816678 91.69314005 -4.50827026 91.61473083 C-3.59987396 91.61502289 -2.69147766 91.61531494 -1.7555542 91.61561584 C1.21491408 91.61423446 4.18512422 91.59872988 7.1555481 91.58299255 C9.22776655 91.57925818 11.29998678 91.57641321 13.37220764 91.57441711 C18.80223544 91.56681406 24.23215471 91.54719439 29.66213989 91.52500916 C35.21266207 91.50447877 40.76320194 91.49540006 46.31375122 91.4853363 C57.18684554 91.46394517 68.05985964 91.42984972 78.93289185 91.38768005 C78.31760117 90.67294525 78.31760117 90.67294525 77.68988037 89.94377136 C77.15084076 89.31650146 76.61180115 88.68923157 76.056427 88.04295349 C75.52248322 87.42208862 74.98853943 86.80122375 74.43841553 86.1615448 C62.91441085 72.58352814 60.75821075 60.41970556 61.70095825 42.95359802 C62.15485713 37.93204311 63.49034137 33.76825418 65.93289185 29.38768005 C66.29511841 28.69287537 66.65734497 27.99807068 67.0305481 27.2822113 C69.83409073 22.36888405 73.52329569 18.30596944 77.3586731 14.1728363 C79.04312593 12.65936099 79.04312593 12.65936099 78.93289185 11.38768005 C66.99724288 11.29473781 55.06168093 11.22379233 43.12574291 11.18043137 C37.58256883 11.15961353 32.0396435 11.13140226 26.49661255 11.08592224 C21.14087309 11.04225712 15.78537197 11.01849935 10.42946815 11.00817108 C8.39265508 11.00081669 6.3558541 10.98645579 4.3191433 10.96475983 C-14.10342365 10.77643281 -27.93706076 13.40645337 -40.34054565 28.1572113 Z M93.93289185 15.38768005 C93.14914185 15.81178162 92.36539185 16.23588318 91.55789185 16.6728363 C82.19631069 22.34987622 76.12668061 29.94020155 72.93289185 40.38768005 C72.7421106 41.0115863 72.55132935 41.63549255 72.35476685 42.27830505 C70.38926368 52.1058209 71.79413988 62.33111694 75.93289185 71.38768005 C77.97429838 74.41947194 80.30597901 76.86094609 82.93289185 79.38768005 C83.47945435 80.01416443 84.02601685 80.6406488 84.58914185 81.28611755 C90.11736705 87.46625611 96.87571219 89.98807608 104.93289185 91.38768005 C106.55250682 91.46417787 108.17478629 91.49579686 109.7961731 91.4853363 C110.68240356 91.48211365 111.56863403 91.47889099 112.48171997 91.47557068 C113.39373169 91.46719177 114.30574341 91.45881287 115.24539185 91.45018005 C116.1767395 91.44566833 117.10808716 91.44115662 118.06765747 91.43650818 C120.35613558 91.42477239 122.64447992 91.40835368 124.93289185 91.38768005 C124.19039185 90.66580505 123.44789185 89.94393005 122.68289185 89.20018005 C112.78610678 79.07846805 107.05181525 65.99965238 106.62039185 51.76268005 C106.69169085 50.30237075 106.79682083 48.84338314 106.93289185 47.38768005 C107.01990356 46.18305115 107.01990356 46.18305115 107.1086731 44.9540863 C108.67984002 32.21438341 115.39513456 20.73321768 124.93289185 12.38768005 C124.93289185 12.05768005 124.93289185 11.72768005 124.93289185 11.38768005 C108.9287963 10.54167108 108.9287963 10.54167108 93.93289185 15.38768005 Z M126.34695435 25.3447113 C118.97840654 35.02003651 115.65879923 45.19532158 116.93289185 57.38768005 C118.26993382 64.797121 121.38573484 70.46032716 125.93289185 76.38768005 C126.47043091 77.10182068 127.00796997 77.8159613 127.5617981 78.55174255 C133.82362278 86.31001258 141.09664721 89.9246943 150.93289185 91.38768005 C155.96581383 91.65291913 160.9925369 91.6215781 166.0305481 91.58299255 C167.47499901 91.57925511 168.91945249 91.5764116 170.36390686 91.57441711 C174.13681227 91.56683812 177.90955984 91.54724005 181.68240356 91.52500916 C185.54387274 91.50442607 189.40536781 91.49538894 193.26687622 91.4853363 C200.82228615 91.46398779 208.37756675 91.42992255 215.93289185 91.38768005 C215.52564377 90.91880371 215.11839569 90.44992737 214.69880676 89.96684265 C214.16205826 89.34549438 213.62530975 88.72414612 213.07229614 88.08396912 C212.54129807 87.47071777 212.01029999 86.85746643 211.46321106 86.22563171 C200.97289181 73.62649586 197.75344504 60.58338992 198.71707153 44.51023865 C199.55670315 36.25259466 203.12861529 29.02807379 207.93289185 22.38768005 C208.4433606 21.67482849 208.95382935 20.96197693 209.47976685 20.2275238 C211.80427456 17.05721749 214.13166098 14.14770209 216.93289185 11.38768005 C208.51759521 11.29452705 200.10251814 11.22368768 191.68683147 11.18043137 C187.77802353 11.15965837 183.86957131 11.13153237 179.96096802 11.08592224 C176.18079503 11.04209263 172.40096168 11.01846583 168.62055397 11.00817108 C167.18659947 11.00084558 165.75266113 10.98654272 164.31885338 10.96475983 C149.9211284 10.75495335 136.20098638 14.07658101 126.34695435 25.3447113 Z M219.6008606 23.78611755 C210.61400496 34.62369857 207.99619055 44.39707134 208.71951294 58.25926208 C209.89299573 69.96455153 218.17228512 78.60815349 226.80789185 85.82518005 C237.09237759 92.75505964 249.30629353 91.78716817 261.1633606 91.6806488 C263.00851596 91.67504331 264.85367583 91.67077772 266.69883728 91.66778564 C271.52063647 91.6564119 276.3421582 91.62701029 281.16384888 91.59367371 C286.09789275 91.56281047 291.03198209 91.54924579 295.96609497 91.53416443 C305.62181485 91.5021324 315.27733014 91.45102802 324.93289185 91.38768005 C325.26289185 89.73768005 325.59289185 88.08768005 325.93289185 86.38768005 C322.26005654 83.93912318 320.48902501 84.14201307 316.1098938 84.1481781 C315.07512657 84.14515686 315.07512657 84.14515686 314.01945496 84.14207458 C312.52167982 84.13853023 311.02388972 84.13929477 309.52611732 84.14385033 C307.15015607 84.14944832 304.77468221 84.14027568 302.39875793 84.12664795 C295.64359453 84.08955046 288.88859372 84.07094397 282.1333313 84.08226013 C277.99934669 84.08813516 273.86604424 84.06973122 269.73219872 84.03637123 C268.1618662 84.02845023 266.59145868 84.02964925 265.02114296 84.04039574 C249.29142255 84.14335771 249.29142255 84.14335771 242.93289185 78.38768005 C241.98414185 77.56268005 241.03539185 76.73768005 240.05789185 75.88768005 C235.29358098 70.28260845 235.343196 64.21308383 235.5696106 57.1259613 C236.08117546 51.86179386 237.29360837 48.26149513 240.93289185 44.38768005 C247.96615319 38.9570799 253.888496 37.27067642 262.69509888 37.24241638 C263.35425293 37.23905777 264.01340698 37.23569916 264.6925354 37.23223877 C266.85861117 37.22278446 269.02460927 37.22078891 271.19070435 37.2197113 C272.7009484 37.21649649 274.21119214 37.21313225 275.72143555 37.20962524 C278.88030724 37.20364898 282.03915162 37.20178396 285.19802856 37.20237732 C289.24784471 37.20247923 293.29748666 37.18879095 297.34726143 37.17160511 C300.46304126 37.16049863 303.57877866 37.15845764 306.69457626 37.15898705 C308.1881254 37.15780628 309.6816756 37.15337907 311.17520523 37.14565468 C313.260087 37.13587553 315.34458617 37.13872362 317.42947388 37.14476013 C318.61574371 37.14333511 319.80201355 37.1419101 321.02423096 37.14044189 C323.93289185 37.38768005 323.93289185 37.38768005 326.93289185 39.38768005 C327.34133108 42.09971657 327.06626051 44.63139426 326.93289185 47.38768005 C326.05672211 47.39576691 325.18055237 47.40385376 324.27783203 47.41218567 C316.00910299 47.49021972 307.74053481 47.577537 299.47201347 47.67520714 C295.22137574 47.72509144 290.97076191 47.77142201 286.72000122 47.80955505 C282.61556712 47.84650745 278.5113369 47.89289408 274.40707779 47.94574356 C272.84348258 47.96423472 271.27984376 47.97936206 269.71618271 47.99102402 C267.52111817 48.00797729 265.32651522 48.03703298 263.13162231 48.0688324 C261.25964676 48.0888179 261.25964676 48.0888179 259.34985352 48.10920715 C255.85007404 48.39442948 253.14778667 48.98272466 249.93289185 50.38768005 C247.19135297 54.0671138 246.1071736 56.32262491 245.37039185 60.82518005 C246.09406574 65.40844805 247.75470716 68.97407428 250.93289185 72.38768005 C254.81986133 74.31231513 258.01409877 74.64455033 262.32449341 74.66233826 C263.59641541 74.67187027 264.8683374 74.68140228 266.17880249 74.69122314 C267.56037422 74.69096161 268.94194597 74.69002406 270.32351685 74.6884613 C271.75212731 74.69235278 273.18073664 74.69668837 274.60934448 74.70144653 C277.60183462 74.70889765 280.59420677 74.70862661 283.58670044 74.70335388 C287.40063239 74.69757596 291.21407605 74.71445446 295.0279274 74.73769855 C297.97926608 74.7525162 300.93048953 74.7532965 303.88185883 74.75018883 C305.2867199 74.75069852 306.69158803 74.75586944 308.09641266 74.76600075 C318.01891534 74.82875513 326.47446533 74.28013976 334.74539185 68.38768005 C335.45308716 67.89268005 336.16078247 67.39768005 336.8899231 66.88768005 C337.56410278 66.39268005 338.23828247 65.89768005 338.93289185 65.38768005 C339.62382935 64.94295349 340.31476685 64.49822693 341.02664185 64.0400238 C343.4557054 61.93450355 344.35482694 59.89251864 345.62039185 56.95018005 C346.03675903 56.00271912 346.45312622 55.05525818 346.8821106 54.0790863 C350.21572293 45.54057738 349.44630199 38.34298729 346.05789185 29.89549255 C342.305785 21.53142104 335.92693597 16.6067589 327.93289185 12.38768005 C324.10369368 11.08432425 320.1990562 11.23269066 316.20193481 11.22654724 C315.42737442 11.22158234 314.65281403 11.21661743 313.8547821 11.21150208 C311.29487208 11.19691137 308.73502411 11.19008207 306.17507935 11.18455505 C304.38871256 11.17879915 302.60234578 11.17304148 300.815979 11.1672821 C297.0684887 11.15677958 293.32101979 11.15093264 289.57351685 11.14744568 C284.79229328 11.14197575 280.01135661 11.11797681 275.2302227 11.08947372 C271.53769125 11.07076257 267.84522758 11.06563716 264.15265274 11.0641098 C262.39135299 11.06109965 260.63005396 11.05312702 258.86880112 11.03992462 C243.75292574 10.93474379 230.76754879 12.30144996 219.6008606 23.78611755 Z M-75.06710815 114.38768005 C-75.76706909 114.94584412 -76.46703003 115.50400818 -77.1882019 116.0790863 C-85.85938941 123.1910511 -89.57762117 132.9192191 -93.06710815 143.38768005 C-93.58461761 152.71280231 -93.83241088 161.67775337 -90.06710815 170.38768005 C-89.44642456 171.86687927 -89.44642456 171.86687927 -88.8132019 173.3759613 C-85.61626133 180.37090213 -81.88337276 185.38496395 -76.06710815 190.38768005 C-75.24210815 191.13018005 -74.41710815 191.87268005 -73.56710815 192.63768005 C-61.66768171 200.96727857 -47.87414573 202.55573046 -33.7038269 202.50120544 C-32.69804092 202.50135147 -31.69225494 202.5014975 -30.6559906 202.50164795 C-27.35550729 202.50095531 -24.05508152 202.49319346 -20.75460815 202.4853363 C-18.45675691 202.48346982 -16.15890526 202.482047 -13.86105347 202.48104858 C-7.83099253 202.47724158 -1.80095591 202.46742687 4.22909546 202.4563446 C10.38947216 202.44609135 16.54985281 202.44154259 22.7102356 202.43650818 C34.78446499 202.42580291 46.85867639 202.4087484 58.93289185 202.38768005 C56.68618328 200.09533003 54.47966835 198.02462355 51.9680481 196.01268005 C48.89341322 193.47801404 46.65946242 190.66363078 44.37039185 187.38768005 C43.64722778 186.37705505 42.92406372 185.36643005 42.1789856 184.32518005 C35.92148497 174.06624629 34.12599453 164.27163802 34.30789185 152.38768005 C34.28855591 151.1243988 34.26921997 149.86111755 34.2492981 148.55955505 C34.31386945 136.0068844 37.89970471 125.97041598 45.93289185 116.38768005 C46.95959497 114.99615856 47.98043872 113.60029488 48.99539185 112.20018005 C51.35898693 108.94595493 54.07733062 106.21594313 56.93289185 103.38768005 C42.68491145 103.27043193 28.4370068 103.18282363 14.18864155 103.12861919 C7.57156379 103.10259549 0.95481159 103.06732893 -5.66207886 103.01048279 C-12.05525192 102.95590625 -18.44811307 102.92620524 -24.84150124 102.91329384 C-27.27300738 102.90409997 -29.70449767 102.88614705 -32.13586998 102.85902977 C-48.74456846 102.68126402 -61.97439549 103.01842426 -75.06710815 114.38768005 Z M70.93289185 108.38768005 C70.0924231 108.88010193 69.25195435 109.3725238 68.38601685 109.87986755 C64.05302751 112.61276605 60.37725412 115.5709543 56.93289185 119.38768005 C56.42886841 119.94584412 55.92484497 120.50400818 55.4055481 121.0790863 C47.71621952 129.78363186 42.84794132 141.99423739 43.5539856 153.8603363 C45.60758973 167.55808759 48.44958283 179.53285573 59.93289185 188.38768005 C60.61351685 189.17143005 61.29414185 189.95518005 61.99539185 190.76268005 C72.84497236 200.45804987 87.96384292 202.92937127 102.08914185 202.4931488 C102.69757935 202.45834412 103.30601685 202.42353943 103.93289185 202.38768005 C103.25226685 201.70705505 102.57164185 201.02643005 101.87039185 200.32518005 C101.41277466 199.86111755 100.95515747 199.39705505 100.4836731 198.91893005 C99.44408222 197.89243227 98.37801882 196.89211649 97.2883606 195.91893005 C87.01500433 186.4572385 80.27567135 171.95158324 79.6946106 157.98143005 C79.29744595 139.85967984 83.43982864 123.81926008 96.15945435 110.16893005 C98.41362534 107.9048288 100.66989002 105.64295832 102.93289185 103.38768005 C86.30464577 102.59903162 86.30464577 102.59903162 70.93289185 108.38768005 Z M99.9992981 122.02049255 C90.38655764 135.37823549 88.2562148 148.04637879 90.2961731 164.27830505 C93.73786591 178.41968233 104.88358675 190.03581445 116.93289185 197.38768005 C120.25847105 198.66960081 120.25847105 198.66960081 123.74539185 199.57518005 C124.88621216 199.89873474 126.02703247 200.22228943 127.2024231 200.5556488 C136.44144508 202.61628931 145.61082761 202.52140858 155.0305481 202.4853363 C156.47500052 202.48346758 157.91945358 202.48204583 159.36390686 202.48104858 C163.13675739 202.47725914 166.90956846 202.46746003 170.68240356 202.4563446 C174.54388902 202.44605302 178.40538095 202.44153448 182.26687622 202.43650818 C189.82223261 202.425834 197.37755667 202.40880133 204.93289185 202.38768005 C202.52837091 199.97119633 200.13076873 197.56951287 197.62039185 195.26268005 C184.3366657 181.05218232 180.21197851 166.67350862 180.6867981 147.56736755 C181.56190305 128.47179385 191.02470469 116.29586721 203.93289185 103.38768005 C194.37872865 103.27120259 184.82481443 103.18267176 175.27009296 103.12861919 C170.83215855 103.10266053 166.39471422 103.06751806 161.95706177 103.01048279 C157.66464189 102.95566707 153.37268973 102.92615662 149.07994652 102.91329384 C147.4522485 102.90414191 145.82457254 102.88627331 144.1970768 102.85902977 C126.57649436 102.57612865 111.15514541 107.55151347 99.9992981 122.02049255 Z M200.93289185 121.38768005 C192.51915623 132.87019363 189.06948238 146.26482356 190.93289185 160.38768005 C192.65339964 169.34125976 195.52784421 177.71135981 201.93289185 184.38768005 C202.55293091 185.07217224 203.17296997 185.75666443 203.8117981 186.4618988 C214.29017369 197.55544322 227.41364011 201.92944514 242.60196114 202.48537445 C245.74198511 202.53141524 248.88066471 202.54565136 252.02102661 202.54881287 C253.21063995 202.55377777 254.4002533 202.55874268 255.62591553 202.56385803 C258.86754982 202.57590032 262.10914821 202.58340614 265.35080075 202.58786869 C267.37977891 202.59081301 269.4087516 202.59492007 271.43772697 202.59937286 C277.79742515 202.61301553 284.15711062 202.62270042 290.5168224 202.62657475 C297.83834878 202.63106101 305.159689 202.64864863 312.48115879 202.67757535 C318.15697023 202.69921694 323.83272934 202.7092802 329.50858158 202.71061587 C332.89186256 202.71166125 336.27496776 202.71751292 339.65820503 202.73543549 C343.43033127 202.75248993 347.20200246 202.75061744 350.97415161 202.74412537 C352.08655716 202.75334015 353.19896271 202.76255493 354.34507751 202.77204895 C360.2954306 202.73996923 364.73152205 202.393896 369.93289185 199.38768005 C371.77425917 196.69711409 371.77425917 196.69711409 371.93289185 193.38768005 C371.24689215 190.72534791 370.28068042 188.84258067 368.93289185 186.38768005 C366.41162832 185.12704829 364.67180282 185.2545083 361.84887695 185.24291992 C360.23395607 185.23257217 360.23395607 185.23257217 358.58641052 185.22201538 C356.80668098 185.21809532 356.80668098 185.21809532 354.99099731 185.21409607 C353.745345 185.20740906 352.49969269 185.20072205 351.21629333 185.1938324 C348.50274202 185.17975224 345.78924486 185.16742992 343.07567978 185.1578846 C338.78025018 185.14243531 334.48489434 185.11848357 330.18951416 185.09298706 C317.97348702 185.0217847 305.75741686 184.96211529 293.54129028 184.91087341 C286.79731399 184.88250962 280.05341035 184.84709141 273.30951035 184.80421966 C269.04498258 184.77753356 264.780537 184.7595749 260.51594234 184.74818242 C257.22763079 184.7368586 253.93940771 184.71275012 250.65115356 184.69065857 C249.47681259 184.69006943 248.30247162 184.68948029 247.09254456 184.68887329 C238.60544184 184.61344766 230.56273428 184.29688744 223.93289185 178.38768005 C218.69712183 170.44206186 215.46291436 162.87242778 217.3586731 153.2197113 C219.21214083 146.61317906 222.66660544 140.91116398 228.68093014 137.35372543 C235.33460338 134.04527949 241.26950965 133.80980448 248.61282349 133.84178162 C249.85284119 133.83144394 251.09285889 133.82110626 252.37045288 133.81045532 C255.74404568 133.78614732 259.11681054 133.77918661 262.49043202 133.78017521 C266.02589461 133.77703062 269.56119516 133.75138053 273.09657288 133.72819519 C279.77926412 133.6877493 286.46185807 133.66732148 293.14465278 133.6542213 C300.75786279 133.63831238 308.37090812 133.59988057 315.98402226 133.55962801 C331.63359641 133.47738544 347.28313763 133.42319587 362.93289185 133.38768005 C364.18289185 140.01268005 364.18289185 140.01268005 361.93289185 143.38768005 C359.75417805 143.75568104 359.75417805 143.75568104 356.9940033 143.74603271 C355.4273996 143.7518335 355.4273996 143.7518335 353.82914734 143.75775146 C352.10316566 143.74145943 352.10316566 143.74145943 350.34231567 143.72483826 C348.52994919 143.7256691 348.52994919 143.7256691 346.68096924 143.72651672 C344.04904791 143.72625617 341.4177258 143.72067144 338.78589821 143.70667458 C334.62091938 143.68556556 330.45622105 143.69029588 326.29121399 143.69973755 C314.44636145 143.72262598 302.60167429 143.71075442 290.75686646 143.67259216 C284.21755633 143.65175238 277.67859391 143.65249355 271.13929003 143.67612714 C267.00282561 143.68978073 262.86759398 143.6766797 258.73125327 143.64352953 C255.54424042 143.62575646 252.35744073 143.64712125 249.17044067 143.66233826 C247.45964073 143.63693718 247.45964073 143.63693718 245.71427917 143.61102295 C239.43676098 143.68412708 235.7411447 144.29975896 231.22922802 148.82602215 C227.96665789 152.75634403 226.66038881 155.80379522 226.93289185 160.88768005 C227.69460339 165.75280539 229.34529995 168.03926095 232.93289185 171.38768005 C238.54347673 175.12896407 243.91847259 174.81884411 250.42337036 174.79173279 C251.57379318 174.79859604 252.724216 174.80545929 253.90950012 174.81253052 C257.71039198 174.83082062 261.51087168 174.82695572 265.3117981 174.8212738 C267.2920871 174.82468239 269.27237631 174.82809921 271.25266308 174.83262688 C277.48213673 174.84666169 283.71147326 174.84512312 289.94094849 174.83372498 C296.33707311 174.82227938 302.73277668 174.83626126 309.12884575 174.86312145 C314.64252985 174.88539711 320.15608297 174.89188833 325.6698088 174.88604504 C328.95275068 174.88269816 332.23536699 174.88668044 335.51828194 174.90229607 C339.19138232 174.91729883 342.86357805 174.90645771 346.53665161 174.88938904 C347.60257538 174.89905701 348.66849915 174.90872498 349.76672363 174.91868591 C360.38824522 174.81616978 370.7804563 172.48102849 378.9992981 165.4384613 C382.41002899 161.82101945 384.73606573 157.82357894 386.93289185 153.38768005 C387.27320435 152.74057068 387.61351685 152.0934613 387.96414185 151.42674255 C391.03639123 144.68486197 391.06101866 136.70003577 389.20632935 129.6103363 C388.25604519 127.10328583 387.16737997 124.76642794 385.93289185 122.38768005 C385.61707153 121.7018988 385.30125122 121.01611755 384.9758606 120.30955505 C381.1673541 113.06340786 373.66083291 107.22463085 366.0992384 104.28671837 C362.97481965 103.39958485 360.47161197 103.13153908 357.2361908 103.12025452 C356.12475708 103.11172455 355.01332336 103.10319458 353.86820984 103.09440613 C352.66341476 103.0953125 351.45861969 103.09621887 350.21731567 103.09715271 C348.93688385 103.09043549 347.65645203 103.08371826 346.33721924 103.07679749 C342.83486228 103.05917902 339.33260315 103.05444375 335.83020616 103.05316591 C333.63737561 103.0517409 331.44456965 103.04746459 329.25174522 103.04217148 C321.58807176 103.02368185 313.92446773 103.01549914 306.26077271 103.01707458 C299.13982473 103.01827429 292.01918067 102.99720305 284.89830953 102.96558726 C278.76726743 102.93934548 272.63632407 102.92871065 266.50522631 102.9299854 C262.85123828 102.93049291 259.19752026 102.92492832 255.54358864 102.9036293 C251.46066516 102.88047877 247.3784122 102.8898158 243.29544067 102.90184021 C242.10076675 102.8906012 240.90609283 102.87936218 239.67521667 102.86778259 C224.69581365 102.97942915 210.4473614 109.60216877 200.93289185 121.38768005 Z M-108.06710815 225.38768005 C-109.36648315 226.28486755 -109.36648315 226.28486755 -110.69210815 227.20018005 C-114.33607223 230.55646275 -117.18234195 234.37325983 -120.06710815 238.38768005 C-120.6085144 239.10568787 -121.14992065 239.82369568 -121.70773315 240.5634613 C-130.00867966 252.70045127 -131.31353601 268.21344491 -129.06710815 282.38768005 C-125.97023764 297.66557457 -118.5882176 310.3354439 -105.91867065 319.7197113 C-93.1292144 327.90678603 -81.89199693 330.54815127 -66.91134644 330.50120544 C-65.08123772 330.50142448 -65.08123772 330.50142448 -63.2141571 330.50164795 C-59.88194953 330.5010721 -56.54980449 330.49606886 -53.21760798 330.48907399 C-49.7302586 330.48280791 -46.24290833 330.48223408 -42.7555542 330.48104858 C-36.15775132 330.47794485 -29.55996509 330.4697444 -22.96216953 330.45969909 C-15.44826998 330.44850818 -7.93436962 330.44302001 -0.4204638 330.43800366 C15.03066437 330.42756097 30.48177596 330.40998011 45.93289185 330.38768005 C44.76838501 329.46221375 44.76838501 329.46221375 43.58035278 328.51805115 C28.62626165 316.48472403 18.31484339 300.68148755 15.93289185 281.38768005 C14.76765181 261.03297121 18.08326306 242.19775858 31.93289185 226.38768005 C32.65605591 225.45182068 32.65605591 225.45182068 33.39382935 224.49705505 C36.77320301 220.20282333 40.53179985 217.4173969 45.17507935 214.55174255 C46.04519653 213.97553162 46.04519653 213.97553162 46.93289185 213.38768005 C46.93289185 213.05768005 46.93289185 212.72768005 46.93289185 212.38768005 C30.97257296 212.31739942 15.0122963 212.26459899 -0.94813919 212.23224354 C-8.35991865 212.21681674 -15.7716016 212.19580802 -23.18331909 212.16136169 C-29.64820003 212.13133033 -36.11301102 212.11207467 -42.57795978 212.10541457 C-45.99674569 212.1015254 -49.41533163 212.09247436 -52.83405304 212.07048988 C-56.66348426 212.04858176 -60.49250674 212.04571879 -64.32199097 212.04710388 C-65.43833923 212.03631805 -66.5546875 212.02553223 -67.7048645 212.01441956 C-82.63278749 212.07250569 -96.0476435 216.63098425 -108.06710815 225.38768005 Z M38.8117981 234.1025238 C36.72119005 236.15208581 36.72119005 236.15208581 36.93289185 238.38768005 C36.27289185 238.38768005 35.61289185 238.38768005 34.93289185 238.38768005 C33.79973793 240.88425445 32.67632606 243.38451777 31.55789185 245.88768005 C31.24078247 246.5837738 30.9236731 247.27986755 30.59695435 247.99705505 C25.01708333 260.55176484 23.44434166 275.45180091 27.8430481 288.6884613 C33.4885683 302.67073536 40.95835639 315.37332989 54.93289185 322.38768005 C55.7011731 322.81435974 56.46945435 323.24103943 57.26101685 323.6806488 C67.69308754 329.27394457 77.35540371 330.84397592 89.12039185 330.57518005 C90.26314575 330.5616449 91.40589966 330.54810974 92.58328247 330.53416443 C95.36700148 330.49922235 98.14967848 330.45017016 100.93289185 330.38768005 C100.2058606 329.81791443 99.47882935 329.2481488 98.72976685 328.66111755 C83.17264367 316.01552302 73.52018707 300.3943887 70.93289185 280.38768005 C69.68309939 259.7968371 73.58275711 242.50742316 86.93289185 226.38768005 C87.69601685 225.35643005 88.45914185 224.32518005 89.24539185 223.26268005 C92.46341341 219.82014535 96.00276946 217.39694347 99.9211731 214.8056488 C100.91697388 214.10375427 100.91697388 214.10375427 101.93289185 213.38768005 C101.93289185 213.05768005 101.93289185 212.72768005 101.93289185 212.38768005 C76.19152787 211.55617867 57.12726221 215.14721815 38.8117981 234.1025238 Z M109.43289185 220.63768005 C108.76201538 221.02826599 108.09113892 221.41885193 107.39993286 221.8212738 C102.20282831 224.96663858 98.47989459 228.44308112 94.93289185 233.38768005 C94.35539185 234.03865662 93.77789185 234.68963318 93.18289185 235.3603363 C82.11387484 248.12310376 79.90171061 264.08097179 80.93289185 280.38768005 C81.53255325 284.25950957 82.57601716 287.72075425 83.93289185 291.38768005 C84.20359497 292.31322693 84.4742981 293.2387738 84.75320435 294.19236755 C89.33184536 307.78408144 100.73555118 317.97206374 112.99539185 324.7743988 C124.45374215 329.83673699 135.29095303 330.95628978 147.61257935 330.77830505 C149.16197978 330.77082106 150.71138984 330.76513838 152.26080322 330.76115417 C156.28865885 330.74606716 160.31591391 330.70693783 164.34353638 330.66233826 C168.47349936 330.62101408 172.60356183 330.60306485 176.7336731 330.58299255 C184.80035133 330.54042183 192.86654635 330.47238374 200.93289185 330.38768005 C197.42281469 326.85085807 193.84804949 323.58032926 189.99539185 320.42674255 C185.09259564 315.57965994 181.8315719 309.71551926 178.80789185 303.57518005 C178.461698 302.87594421 178.11550415 302.17670837 177.75881958 301.45628357 C169.34685092 284.09745802 168.87026032 265.80474724 174.8821106 247.49705505 C176.70878625 242.67405371 178.93424365 238.60452908 181.93289185 234.38768005 C182.48976685 233.27393005 183.04664185 232.16018005 183.62039185 231.01268005 C185.89559358 226.93176265 189.21731849 224.24127521 192.74539185 221.24705505 C195.29318355 219.08143211 197.60554965 216.78554777 199.93289185 214.38768005 C200.59289185 213.72768005 201.25289185 213.06768005 201.93289185 212.38768005 C193.19554218 212.2943021 184.45836873 212.22357596 175.72062588 212.18043137 C171.66172383 212.15970638 167.60316736 212.13167152 163.54446411 212.08592224 C159.61514538 212.04191713 155.68615542 212.01843009 151.75660896 212.00817108 C150.27014057 212.00087628 148.78368667 211.98663699 147.29736137 211.96475983 C133.89543655 211.775649 121.16495733 213.61735595 109.43289185 220.63768005 Z M196.30789185 232.13768005 C186.67711942 243.69460696 181.03996089 256.34859218 181.37039185 271.45018005 C181.35943481 272.54394958 181.34847778 273.63771912 181.33718872 274.76463318 C181.47373245 290.06663417 188.84752461 303.1744868 198.93289185 314.38768005 C203.55014383 318.87456257 209.19426201 321.71708075 214.87039185 324.63768005 C215.52644409 324.97936218 216.18249634 325.32104431 216.85842896 325.67308044 C227.37511324 330.88791154 237.9489847 330.69093787 249.39871216 330.69407654 C251.16530708 330.70170679 252.9318987 330.71013577 254.69848633 330.71929932 C259.47500279 330.74115224 264.2514553 330.75002953 269.02801609 330.75512576 C272.01363692 330.75877701 274.99924117 330.76502071 277.98485565 330.77212715 C288.40373975 330.79657924 298.82257427 330.80966659 309.2414856 330.81321716 C318.95117126 330.81686017 328.66054235 330.84682099 338.37013173 330.88862175 C346.71428233 330.92328449 355.05832832 330.93876482 363.40255046 330.9394632 C368.38318661 330.94025668 373.36350113 330.94903019 378.34406281 330.97746086 C383.02280344 331.00357621 387.70095399 331.00588352 392.37973404 330.98980522 C394.09664061 330.98798614 395.81358068 330.99472277 397.53041458 331.01062393 C399.87387417 331.03100735 402.21525325 331.02058145 404.5586853 331.00241089 C405.86976887 331.00442222 407.18085243 331.00643354 408.5316658 331.00850582 C412.79824208 330.22972768 414.24655776 328.71648862 416.93289185 325.38768005 C418.25887744 323.00884516 418.25887744 323.00884516 417.93289185 320.38768005 C414.76949444 315.81116438 414.76949444 315.81116438 409.93289185 313.38768005 C407.67268264 313.2940992 405.40974394 313.26303183 403.14759827 313.2631073 C402.10690566 313.26099208 402.10690566 313.26099208 401.04518896 313.25883412 C398.7146862 313.25517715 396.38424415 313.25851943 394.05374146 313.26170349 C392.384816 313.26030884 390.71589091 313.25840959 389.04696655 313.25604248 C385.44892531 313.25154258 381.85089547 313.24968933 378.25285149 313.24958038 C372.5579985 313.24844023 366.86321038 313.23560211 361.16838074 313.22001648 C360.20714214 313.21744363 359.24590354 313.21487077 358.2555365 313.21221995 C356.28962893 313.20695316 354.32372142 313.20166768 352.35781395 313.19636393 C339.09905725 313.16126762 325.84038049 313.13469883 312.58157349 313.13719177 C303.63975223 313.13878266 294.69815167 313.12268896 285.75640112 313.08648515 C281.02648714 313.06805741 276.29694147 313.05865413 271.56699944 313.070961 C267.11232973 313.0824386 262.65831785 313.0705989 258.20373535 313.04132652 C256.57442474 313.03471224 254.9450534 313.03650746 253.31576729 313.04762459 C244.16239658 313.10486659 236.80262902 312.62618273 228.93289185 307.38768005 C227.29320435 306.33580505 227.29320435 306.33580505 225.62039185 305.26268005 C219.95845262 299.20572181 217.324072 291.37522705 216.68289185 283.20018005 C217.24924884 274.56323589 220.18558285 266.92282241 225.93289185 260.38768005 C232.12626003 255.31925499 238.69655442 253.13454208 246.69067383 253.14717102 C247.67229089 253.14460775 247.67229089 253.14460775 248.6737386 253.14199269 C250.85252186 253.13871523 253.03099274 253.14967232 255.20974731 253.16062927 C256.77711479 253.16119376 258.3444828 253.16087608 259.91184998 253.15974426 C264.1572736 253.15917123 268.40258385 253.1709175 272.64798117 253.18489218 C277.08825192 253.19740781 281.52852537 253.19857069 285.96881104 253.20094299 C294.37284528 253.20715531 302.7768274 253.22356278 311.1808387 253.24364197 C320.75031687 253.26600869 330.31979754 253.27699635 339.88929534 253.28703284 C359.57052325 253.30792921 379.25170426 253.34310038 398.93289185 253.38768005 C400.29912859 256.12015354 400.06131784 258.36966908 399.93289185 261.38768005 C398.13333396 263.18723794 395.40880112 262.52023002 392.98207092 262.52571106 C391.68806366 262.5311644 390.3940564 262.53661774 389.06083679 262.54223633 C387.61315923 262.54335627 386.16548161 262.54440676 384.71780396 262.5453949 C383.20356091 262.55006075 381.68931927 262.55520393 380.17507935 262.56079102 C376.90549284 262.57209361 373.63591557 262.58051752 370.36631584 262.58691025 C365.19304365 262.59757356 360.01983728 262.61781592 354.84660339 262.64002991 C340.13263986 262.70200379 325.41867912 262.75591348 310.70462036 262.78904724 C302.58469625 262.80741264 294.46488134 262.83637702 286.34503752 262.87705195 C282.04784229 262.8980983 277.75078456 262.91357577 273.45353508 262.91585922 C269.40612698 262.91801222 265.35900464 262.93394774 261.31168365 262.96024895 C259.8298939 262.96742 258.34806944 262.96955359 256.86626625 262.96614647 C244.45998116 262.76598648 244.45998116 262.76598648 233.69070435 268.25486755 C228.78963522 274.28154108 226.23928822 278.34187804 226.93289185 286.38768005 C228.64917819 291.62686994 230.81397284 294.75910855 234.93289185 298.38768005 C235.75789185 299.13018005 236.58289185 299.87268005 237.43289185 300.63768005 C241.61537634 303.5654192 245.83286528 303.51321628 250.82650757 303.52139282 C252.59690147 303.5277903 252.59690147 303.5277903 254.40306091 303.53431702 C255.68939926 303.53386383 256.97573761 303.53341064 258.30105591 303.53294373 C259.67633658 303.5359376 261.05161641 303.53934066 262.42689514 303.54312134 C266.15642776 303.55194371 269.88593742 303.55429875 273.61547947 303.55493712 C275.94848684 303.55564879 278.2814884 303.55778537 280.61449432 303.56043434 C288.76213449 303.56968296 296.90975832 303.57376996 305.05740356 303.57298279 C312.63781545 303.57238259 320.21815604 303.58292419 327.79854989 303.59872645 C334.31763678 303.61182927 340.83670045 303.61716551 347.35580039 303.61652738 C351.24439994 303.61627313 355.13293615 303.6190834 359.02152252 303.62970543 C362.68231664 303.63943228 366.34298746 303.63943437 370.00378609 303.6321888 C371.97606635 303.63065525 373.94834672 303.63895817 375.92060852 303.64762878 C391.314587 303.59343861 403.48646627 299.50843502 414.7414856 288.66893005 C423.64554016 279.39982513 426.95117359 269.29459199 426.93289185 256.38768005 C426.55327206 252.63308433 425.84242669 249.04760469 424.93289185 245.38768005 C424.74855591 244.60393005 424.56421997 243.82018005 424.3742981 243.01268005 C420.81389534 230.27484162 410.08374041 221.89241647 399.03445435 215.6493988 C390.03741238 211.98939307 380.72010313 212.09410289 371.14260864 212.11302185 C369.67455793 212.10866607 368.20650949 212.10348006 366.73846436 212.09753418 C362.77754022 212.08422477 358.81671198 212.08355655 354.85576987 212.08609748 C351.53608724 212.08717287 348.21642356 212.08226929 344.89674503 212.07749206 C337.05729821 212.06642434 329.21789932 212.06594376 321.37844849 212.07200623 C313.32139019 212.0780417 305.26450671 212.06573958 297.20747823 212.04443616 C290.26274598 212.02675655 283.31806905 212.02082885 276.37331516 212.0240739 C272.23759978 212.02587708 268.10200908 212.02334812 263.96631432 212.00935936 C260.07311022 211.99668184 256.18017634 211.99881764 252.28697586 212.01177025 C250.86853883 212.01411431 249.45008219 212.01148051 248.03166771 212.00314713 C228.37595476 211.89610878 209.97252119 217.34668213 196.30789185 232.13768005 Z " fill="#A9A9A9" transform="translate(140.06710815429688,45.61231994628906)"/>
<path d="M0 0 C0.33 0 0.66 0 1 0 C1.53132389 2.58157368 2.05034379 5.16461756 2.5625 7.75 C2.78969727 8.84441406 2.78969727 8.84441406 3.02148438 9.9609375 C3.74557178 13.66557073 4.09817231 16.39322322 3 20 C-0.65111665 13.45841601 -0.29887594 7.36120371 0 0 Z " fill="#C8C8C8" transform="translate(10,320)"/>
<path d="M0 0 C0.66 0.66 1.32 1.32 2 2 C0.1875 4 0.1875 4 -2 6 C-2.99 6 -3.98 6 -5 6 C-5.66 7.65 -6.32 9.3 -7 11 C-7.8125 9.3125 -7.8125 9.3125 -8 7 C-5.53973429 4.12969001 -3.14510786 2.09673857 0 0 Z " fill="#BBBBBB" transform="translate(342,258)"/>
<path d="M0 0 C0.99 0 1.98 0 3 0 C3.33 1.32 3.66 2.64 4 4 C1.03 6.475 1.03 6.475 -2 9 C-1.34 6.03 -0.68 3.06 0 0 Z " fill="#BDBDBD" transform="translate(176,177)"/>
<path d="M0 0 C0.33 0 0.66 0 1 0 C1.17942163 3.94727588 1.09350689 6.5980513 -1 10 C-1.66 10 -2.32 10 -3 10 C-3.33 10.66 -3.66 11.32 -4 12 C-3.45660208 7.43545749 -2.20536179 4.0271824 0 0 Z " fill="#BEBEBE" transform="translate(206,73)"/>
<path d="M0 0 C2.97 1.98 2.97 1.98 6 4 C5.01 4.495 5.01 4.495 4 5 C4 5.66 4 6.32 4 7 C2.68 6.67 1.36 6.34 0 6 C0 4.02 0 2.04 0 0 Z " fill="#B6B6B6" transform="translate(369,213)"/>
<path d="M0 0 C1 3 1 3 1 6 C0.401875 6.268125 -0.19625 6.53625 -0.8125 6.8125 C-2.97224808 7.98493467 -4.35790256 9.19369282 -6 11 C-6 7.05594798 -4.50598828 5.9482215 -2 3 C-1.34 2.01 -0.68 1.02 0 0 Z " fill="#B7B7B7" transform="translate(189,156)"/>
<path d="M0 0 C0 0.99 0 1.98 0 3 C-0.9590625 3.433125 -0.9590625 3.433125 -1.9375 3.875 C-4.15206079 4.82823451 -4.15206079 4.82823451 -5 7 C-5.99 6.34 -6.98 5.68 -8 5 C-4.04 2.525 -4.04 2.525 0 0 Z " fill="#BDBDBD" transform="translate(477,112)"/>
<path d="M0 0 C5.875 3.625 5.875 3.625 7 7 C4.08482708 5.92598892 2.22189824 5.22189824 0 3 C0 2.01 0 1.02 0 0 Z " fill="#B9B9B9" transform="translate(26,370)"/>
<path d="M0 0 C0 2.62113708 -0.31292445 4.50935112 -1 7 C-1.99 7 -2.98 7 -4 7 C-2.92598892 4.08482708 -2.22189824 2.22189824 0 0 Z M0 4 C2 5 2 5 2 5 Z " fill="#B9B9B9" transform="translate(259,63)"/>
<path d="M0 0 C0.99 0.33 1.98 0.66 3 1 C3 2.32 3 3.64 3 5 C1.35 5.33 -0.3 5.66 -2 6 C-1.34 4.02 -0.68 2.04 0 0 Z " fill="#B3B3B3" transform="translate(180,169)"/>
<path d="M0 0 C0.99 0.99 1.98 1.98 3 3 C1.02 4.32 -0.96 5.64 -3 7 C-2.38722388 4.03824877 -1.74627478 2.61941217 0 0 Z " fill="#B1B1B1" transform="translate(68,153)"/>
</svg>
