<?xml version="1.0" encoding="UTF-8"?>
<svg version="1.1" xmlns="http://www.w3.org/2000/svg" width="577" height="433">
<path d="M0 0 C3.094239 2.4753912 3.99990276 4.28674157 4.5 8.1875 C4.11130321 11.3748137 3.07130367 13.16849126 1.1875 15.75 C-2.30591705 18.0789447 -5.51579917 18.65131992 -9.5625 19.375 C-10.2534375 19.5090625 -10.944375 19.643125 -11.65625 19.78125 C-16.11323803 20.60227411 -20.28211696 20.88045606 -24.8125 20.75 C-24.8125 21.41 -24.8125 22.07 -24.8125 22.75 C-28.22738492 23.59075218 -31.64467213 24.42129993 -35.0625 25.25 C-36.51462891 25.60771484 -36.51462891 25.60771484 -37.99609375 25.97265625 C-38.93066406 26.19824219 -39.86523438 26.42382812 -40.828125 26.65625 C-42.11638184 26.97045898 -42.11638184 26.97045898 -43.43066406 27.29101562 C-45.8125 27.75 -45.8125 27.75 -49.8125 27.75 C-49.8125 28.41 -49.8125 29.07 -49.8125 29.75 C-52.71798882 31.79169485 -54.21392046 32.75 -57.8125 32.75 C-58.1528125 33.6471875 -58.1528125 33.6471875 -58.5 34.5625 C-60.16859042 37.34348403 -61.9408832 38.3141916 -64.8125 39.75 C-65.4725 39.75 -66.1325 39.75 -66.8125 39.75 C-67.09029297 40.33426758 -67.36808594 40.91853516 -67.65429688 41.52050781 C-69.51409063 45.10053239 -71.93483042 48.24990385 -74.3125 51.5 C-74.81136719 52.19738281 -75.31023437 52.89476562 -75.82421875 53.61328125 C-76.54544922 54.60134766 -76.54544922 54.60134766 -77.28125 55.609375 C-77.93770508 56.51381348 -77.93770508 56.51381348 -78.60742188 57.43652344 C-79.00509766 57.8699707 -79.40277344 58.30341797 -79.8125 58.75 C-80.4725 58.75 -81.1325 58.75 -81.8125 58.75 C-82.18375 59.554375 -82.18375 59.554375 -82.5625 60.375 C-84.11210172 63.31924328 -85.94179418 65.99896202 -87.8125 68.75 C-88.51375 69.86375 -89.215 70.9775 -89.9375 72.125 C-90.55625 72.99125 -91.175 73.8575 -91.8125 74.75 C-92.4725 74.75 -93.1325 74.75 -93.8125 74.75 C-94.1425 75.74 -94.4725 76.73 -94.8125 77.75 C-95.4725 77.75 -96.1325 77.75 -96.8125 77.75 C-97.080625 78.4925 -97.34875 79.235 -97.625 80 C-98.76526751 82.64061949 -99.90630306 84.60552844 -101.8125 86.75 C-102.4725 86.75 -103.1325 86.75 -103.8125 86.75 C-104.06 87.306875 -104.3075 87.86375 -104.5625 88.4375 C-106.04174818 91.17410913 -107.74717439 93.42650869 -109.8125 95.75 C-110.4725 95.75 -111.1325 95.75 -111.8125 95.75 C-112.039375 96.28625 -112.26625 96.8225 -112.5 97.375 C-114.26820089 100.57460161 -116.34920203 103.04037223 -118.8125 105.75 C-119.4725 105.75 -120.1325 105.75 -120.8125 105.75 C-121.1425 106.74 -121.4725 107.73 -121.8125 108.75 C-122.4725 108.75 -123.1325 108.75 -123.8125 108.75 C-124.4725 110.4 -125.1325 112.05 -125.8125 113.75 C-126.4725 113.75 -127.1325 113.75 -127.8125 113.75 C-128.1425 114.74 -128.4725 115.73 -128.8125 116.75 C-129.4725 116.75 -130.1325 116.75 -130.8125 116.75 C-131.1425 117.74 -131.4725 118.73 -131.8125 119.75 C-133.875 120.4375 -133.875 120.4375 -135.8125 120.75 C-135.88597656 121.29140625 -135.95945313 121.8328125 -136.03515625 122.390625 C-137.12154059 125.68799253 -139.0452102 127.83308626 -141.25 130.5 C-142.05308594 131.48484375 -142.85617188 132.4696875 -143.68359375 133.484375 C-144.38613281 134.23203125 -145.08867187 134.9796875 -145.8125 135.75 C-146.4725 135.75 -147.1325 135.75 -147.8125 135.75 C-149.93751203 139.29168672 -150.28747519 142.6964301 -150.8125 146.75 C-135.81155666 146.70999748 -128.5543789 142.39302404 -117.16015625 132.60546875 C-114.8125 130.75 -114.8125 130.75 -111.8125 129.75 C-111.1188429 128.4305069 -110.45611698 127.09461125 -109.8125 125.75 C-108.61536149 124.38262385 -107.36324519 123.0623702 -106.07421875 121.78125 C-105.33623047 121.04519531 -104.59824219 120.30914062 -103.83789062 119.55078125 C-103.06638672 118.79152344 -102.29488281 118.03226562 -101.5 117.25 C-100.74009766 116.49074219 -99.98019531 115.73148437 -99.19726562 114.94921875 C-88.91766774 104.75 -88.91766774 104.75 -84.8125 104.75 C-84.8125 104.09 -84.8125 103.43 -84.8125 102.75 C-79.17495528 99.80867232 -74.17094416 98.74943264 -67.8125 99.75 C-64.87826805 101.54646854 -63.34044645 102.6941071 -61.8125 105.75 C-61.24788257 113.41576747 -61.52641301 119.76706515 -64.8125 126.75 C-63.43578125 126.82347656 -63.43578125 126.82347656 -62.03125 126.8984375 C-55.38385914 127.3034256 -49.19862141 127.83416358 -42.8125 129.75 C-42.8125 130.41 -42.8125 131.07 -42.8125 131.75 C-41.86375 131.770625 -40.915 131.79125 -39.9375 131.8125 C-30.97741496 133.15198746 -24.63089246 140.61950981 -19.40625 147.41796875 C-17.16194735 150.70191159 -15.8125 152.72486336 -15.8125 156.75 C-15.1525 156.75 -14.4925 156.75 -13.8125 156.75 C-13.4825 158.4 -13.1525 160.05 -12.8125 161.75 C-12.1525 161.75 -11.4925 161.75 -10.8125 161.75 C-9.66810517 163.4606933 -8.59666025 165.22049903 -7.5625 167 C-4.39372936 172.12537121 -1.98102504 175.34422106 3.85546875 177.3125 C12.73687344 178.97869318 23.12084377 179.16686022 31.03125 174.453125 C35.40845529 170.9957672 39.67162194 166.78175612 42.1875 161.75 C42.8475 161.75 43.5075 161.75 44.1875 161.75 C45.26275194 159.09771188 46.28206151 156.46631546 47.1875 153.75 C47.8475 153.75 48.5075 153.75 49.1875 153.75 C49.496875 152.96625 49.80625 152.1825 50.125 151.375 C51.1875 148.75 51.1875 148.75 52.1875 146.75 C52.8475 146.75 53.5075 146.75 54.1875 146.75 C54.1875 145.76 54.1875 144.77 54.1875 143.75 C54.8475 143.75 55.5075 143.75 56.1875 143.75 C56.44789063 143.16605469 56.70828125 142.58210937 56.9765625 141.98046875 C58.26533494 139.60663306 59.6625854 137.97485946 61.5625 136.0625 C62.14773438 135.46050781 62.73296875 134.85851562 63.3359375 134.23828125 C65.31358914 132.64864987 66.7089179 132.1594574 69.1875 131.75 C69.1875 131.09 69.1875 130.43 69.1875 129.75 C69.8475 129.75 70.5075 129.75 71.1875 129.75 C71.24808594 128.83476562 71.30867188 127.91953125 71.37109375 126.9765625 C71.49677734 125.19378906 71.49677734 125.19378906 71.625 123.375 C71.70621094 122.19164063 71.78742188 121.00828125 71.87109375 119.7890625 C72.1875 116.75 72.1875 116.75 73.1875 114.75 C73.44580644 112.61666227 73.65302773 110.4770578 73.8359375 108.3359375 C74.01080688 106.36898926 74.01080688 106.36898926 74.18920898 104.36230469 C74.24986542 103.66955444 74.31052185 102.9768042 74.37301636 102.26306152 C76.65032947 76.56672452 81.64550858 55.56298713 96.1875 33.75 C96.8475 33.75 97.5075 33.75 98.1875 33.75 C98.27 33.21375 98.3525 32.6775 98.4375 32.125 C99.46331271 28.87659309 101.15313894 26.46248141 103.1875 23.75 C103.8475 23.75 104.5075 23.75 105.1875 23.75 C105.30222656 23.16605469 105.41695313 22.58210938 105.53515625 21.98046875 C106.23450069 19.58929706 107.16055498 18.06579126 108.625 16.0625 C109.05683594 15.46050781 109.48867188 14.85851562 109.93359375 14.23828125 C111.1875 12.75 111.1875 12.75 113.1875 11.75 C113.5175 10.76 113.8475 9.77 114.1875 8.75 C114.8475 8.75 115.5075 8.75 116.1875 8.75 C116.455625 7.96625 116.72375 7.1825 117 6.375 C118.1875 3.75 118.1875 3.75 121.1875 1.75 C126.01448169 1.2050182 128.08342369 1.03695071 132.1875 3.6875 C134.45196525 7.15496241 135.0856598 9.11454333 134.88671875 13.203125 C133.42948085 18.51105301 129.61118046 22.55633518 126.1875 26.75 C125.5275 27.74 124.8675 28.73 124.1875 29.75 C123.5275 29.75 122.8675 29.75 122.1875 29.75 C122.105 30.36875 122.0225 30.9875 121.9375 31.625 C120.95124561 34.41938743 119.75359601 34.466952 117.1875 35.75 C116.83153426 37.07747026 116.50134064 38.41194434 116.1875 39.75 C115.23535156 41.5300293 115.23535156 41.5300293 114.078125 43.32421875 C113.65547363 43.98671631 113.23282227 44.64921387 112.79736328 45.33178711 C112.3486084 46.02667236 111.89985352 46.72155762 111.4375 47.4375 C110.52248508 48.89002546 109.60841259 50.34314506 108.6953125 51.796875 C107.33648161 53.94894223 105.96504369 56.08421665 104.5546875 58.203125 C100.70725434 64.34933898 99.46652986 71.14097618 97.984375 78.15234375 C97.1875 81.75 97.1875 81.75 96.1875 83.75 C95.98130163 85.17190958 95.82112983 86.60069497 95.6875 88.03125 C95.605 88.87300781 95.5225 89.71476562 95.4375 90.58203125 C95.355 91.46246094 95.2725 92.34289062 95.1875 93.25 C95.02446144 94.98992712 94.85795913 96.72953419 94.6875 98.46875 C94.6153125 99.24154297 94.543125 100.01433594 94.46875 100.81054688 C94.1875 102.75 94.1875 102.75 93.1875 104.75 C92.87494353 107.60207778 92.67712518 110.45496854 92.46875 113.31640625 C92.1875 115.75 92.1875 115.75 91.1875 116.75 C90.8575 119.06 90.5275 121.37 90.1875 123.75 C95.1375 124.08 100.0875 124.41 105.1875 124.75 C105.1875 125.41 105.1875 126.07 105.1875 126.75 C106.239375 126.8325 107.29125 126.915 108.375 127 C112.56009419 127.82329722 114.06534893 128.95649641 117.1875 131.75 C118.84011839 132.77304948 120.50541365 133.77616054 122.1875 134.75 C123.1775 135.41 124.1675 136.07 125.1875 136.75 C125.1875 137.41 125.1875 138.07 125.1875 138.75 C125.8475 138.75 126.5075 138.75 127.1875 138.75 C129.00592319 141.15345487 130.70468324 143.55870695 132.375 146.0625 C132.86532715 146.78783936 133.3556543 147.51317871 133.86083984 148.26049805 C144.74723704 164.42921113 144.74723704 164.42921113 146.1875 168.75 C146.8475 168.75 147.5075 168.75 148.1875 168.75 C148.80625 169.53375 149.425 170.3175 150.0625 171.125 C152.07602174 173.61229156 153.27392859 174.60538266 156.1875 175.75 C156.290625 174.615625 156.39375 173.48125 156.5 172.3125 C156.99268404 168.36408846 158.03876404 164.8495964 159.3671875 161.109375 C160.22760131 158.63466099 160.96275195 156.14254585 161.6875 153.625 C162.69047962 150.22630223 163.91106623 147.08568449 165.3671875 143.8515625 C168.25992695 136.44063953 170.18107725 128.51779068 171.6953125 120.71484375 C172.30315541 118.28829624 173.25556051 116.07131448 174.1875 113.75 C175.18891369 110.51060914 176.14062053 107.25893486 177.08984375 104.00390625 C179.49208373 96.88267526 182.33427006 92.17661497 189.1875 88.75 C190.95520327 88.62759865 192.72810462 88.57448847 194.5 88.5625 C195.44488281 88.54832031 196.38976562 88.53414063 197.36328125 88.51953125 C200.33156882 88.76175665 202.49617165 89.50973393 205.1875 90.75 C205.1875 91.41 205.1875 92.07 205.1875 92.75 C205.785625 92.915 206.38375 93.08 207 93.25 C210.43230513 95.60358066 211.39232022 98.82667496 212.1875 102.75 C212.39046449 109.97314789 210.25869334 116.89812768 208.1875 123.75 C207.5275 123.75 206.8675 123.75 206.1875 123.75 C206.084375 125.02875 205.98125 126.3075 205.875 127.625 C205.10249002 134.62173323 202.98243218 141.3001565 200.1875 147.75 C199.5275 147.75 198.8675 147.75 198.1875 147.75 C198.23390625 148.72324219 198.2803125 149.69648438 198.328125 150.69921875 C198.32358093 155.21942958 197.19744205 159.2484879 195.9375 163.5625 C195.63005859 164.6772168 195.63005859 164.6772168 195.31640625 165.81445312 C194.17281543 169.83781354 192.83924263 173.69161929 191.234375 177.5546875 C188.89500782 183.26338404 187.28935133 189.11192398 185.6875 195.0625 C185.08062829 197.27376752 184.4725671 199.48470895 183.86328125 201.6953125 C183.57533691 202.74235352 183.28739258 203.78939453 182.99072266 204.86816406 C181.22228686 211.21303217 179.27625077 217.50069322 177.18359375 223.74609375 C176.26141618 226.52709199 175.39738486 229.31675093 174.5625 232.125 C174.30210937 232.99898437 174.04171875 233.87296875 173.7734375 234.7734375 C173.58007812 235.42570313 173.38671875 236.07796875 173.1875 236.75 C172.5275 236.75 171.8675 236.75 171.1875 236.75 C171.105 237.925625 171.0225 239.10125 170.9375 240.3125 C169.96821914 248.96776854 167.59203008 257.46773741 164.2421875 265.4921875 C161.98247305 271.01762844 160.53570729 276.64637545 159.125 282.4375 C157.5644545 288.81628146 155.93993722 294.78131708 153.1875 300.75 C151.22346133 305.96997832 149.79903493 311.20892932 148.66015625 316.6640625 C148.03318784 319.43101402 147.14530822 322.08181995 146.1875 324.75 C145.5275 324.75 144.8675 324.75 144.1875 324.75 C144.16171875 325.29785156 144.1359375 325.84570312 144.109375 326.41015625 C143.41560904 336.10711223 140.97247817 345.51370475 137.26953125 354.484375 C134.99767731 360.04801265 133.32255265 365.7222276 131.6875 371.5 C131.38489258 372.5526001 131.08228516 373.6052002 130.77050781 374.68969727 C129.9038893 377.70823265 129.04402917 380.72858812 128.1875 383.75 C127.97029297 384.51618652 127.75308594 385.28237305 127.52929688 386.07177734 C127.33916016 386.74289551 127.14902344 387.41401367 126.953125 388.10546875 C124.45792221 396.90585705 121.79197776 405.3395519 118.1875 413.75 C117.74759986 415.29098353 117.31020779 416.83268468 116.875 418.375 C115.33738215 423.11733716 113.34273697 425.03637586 109.1875 427.75 C105.91185964 428.85461726 102.82999255 428.87726619 99.38933849 428.88142776 C97.6021107 428.88718948 97.6021107 428.88718948 95.7787773 428.8930676 C93.81319655 428.89176787 93.81319655 428.89176787 91.8079071 428.89044189 C90.40288598 428.8930257 88.99786559 428.8960389 87.59284621 428.8994453 C83.72745755 428.90751668 79.86208744 428.90930494 75.99669135 428.91004276 C71.82957627 428.91189306 67.66247083 428.91944023 63.49536133 428.92617798 C54.3817838 428.93976239 45.26821067 428.94578607 36.1546247 428.95018864 C30.46524763 428.95295064 24.77587227 428.95718789 19.08649635 428.96169281 C3.33733953 428.97388517 -12.41181593 428.98418484 -28.16097736 428.9875679 C-29.16903138 428.98778747 -30.1770854 428.98800703 -31.21568651 428.98823325 C-32.73140148 428.98856067 -32.73140148 428.98856067 -34.27773696 428.9888947 C-36.32537607 428.98933817 -38.37301519 428.98978473 -40.4206543 428.99023438 C-41.94420648 428.99056652 -41.94420648 428.99056652 -43.4985375 428.99090537 C-59.96058431 428.99485432 -76.42258688 429.01231144 -92.88461659 429.0355939 C-109.78185422 429.05929921 -126.67906964 429.07176936 -143.57632416 429.07293582 C-153.0651876 429.07385299 -162.55399339 429.07961606 -172.04284096 429.09775543 C-180.12189583 429.11314528 -188.20087522 429.11828345 -196.27994195 429.11001733 C-200.40231127 429.10610698 -204.52452853 429.10705914 -208.6468792 429.12107468 C-212.42142086 429.13379043 -216.19569586 429.13263669 -219.97023704 429.12048396 C-221.98101766 429.11759461 -223.99180278 429.12948029 -226.00254709 429.14190602 C-233.63938559 429.09994386 -239.41664413 428.96712661 -245.1875 423.5 C-247.12464306 420.22175789 -247.51692649 417.5185623 -247.8125 413.75 C-248.4725 413.75 -249.1325 413.75 -249.8125 413.75 C-249.97685547 412.89728516 -249.97685547 412.89728516 -250.14453125 412.02734375 C-251.03206927 407.70510574 -252.11479234 403.8965825 -253.96484375 399.87109375 C-255.57544182 395.84088752 -256.61170385 391.62223272 -257.7734375 387.4453125 C-259.06327508 382.85814577 -260.46691614 378.31124621 -261.8828125 373.76171875 C-262.69865935 371.11878631 -263.47871836 368.4686553 -264.25 365.8125 C-265.40603294 361.91323214 -266.77120059 358.1245956 -268.1875 354.3125 C-270.57458222 347.74261509 -272.40249891 341.09759097 -274.11279297 334.32250977 C-274.95939201 330.96959693 -275.82647032 327.70956712 -276.95703125 324.4375 C-277.8125 321.75 -277.8125 321.75 -277.8125 317.75 C-278.4725 317.75 -279.1325 317.75 -279.8125 317.75 C-283.42017308 305.29585197 -283.42017308 305.29585197 -284.8984375 299.62109375 C-285.0727832 298.95279541 -285.24712891 298.28449707 -285.42675781 297.59594727 C-285.91594419 295.70818359 -286.39950875 293.8189658 -286.8828125 291.9296875 C-287.6543478 289.29090712 -288.59107795 287.18212987 -289.8125 284.75 C-289.9375 281.5 -289.9375 281.5 -289.8125 278.75 C-290.4725 278.75 -291.1325 278.75 -291.8125 278.75 C-292.07804687 277.79738281 -292.34359375 276.84476562 -292.6171875 275.86328125 C-292.97039062 274.60902344 -293.32359375 273.35476563 -293.6875 272.0625 C-294.03554688 270.82113281 -294.38359375 269.57976562 -294.7421875 268.30078125 C-295.69893816 264.91363675 -295.69893816 264.91363675 -296.7890625 262.390625 C-298.64232854 257.60891567 -299.71381461 252.58042735 -300.95703125 247.61132812 C-301.16714844 246.78955078 -301.37726563 245.96777344 -301.59375 245.12109375 C-301.78001953 244.37786865 -301.96628906 243.63464355 -302.15820312 242.86889648 C-302.75754341 240.70747427 -302.75754341 240.70747427 -303.88085938 238.67993164 C-305.17217846 236.00491137 -304.94549033 233.67578723 -304.8125 230.75 C-305.4725 230.75 -306.1325 230.75 -306.8125 230.75 C-307.21082031 229.33847656 -307.21082031 229.33847656 -307.6171875 227.8984375 C-307.97039062 226.65320313 -308.32359375 225.40796875 -308.6875 224.125 C-309.03554688 222.89523438 -309.38359375 221.66546875 -309.7421875 220.3984375 C-310.41293833 218.11200948 -311.12097386 215.8358366 -311.8828125 213.578125 C-312.93447222 210.37895846 -313.6018317 207.19715116 -314.25 203.8984375 C-314.74573509 201.70170292 -314.74573509 201.70170292 -315.8671875 199.6484375 C-317.06053298 197.25188418 -316.95921905 195.39094283 -316.8125 192.75 C-317.4725 192.75 -318.1325 192.75 -318.8125 192.75 C-319.06644531 191.77160156 -319.32039063 190.79320312 -319.58203125 189.78515625 C-321.22638754 183.50239843 -322.88859511 177.27247305 -325.02734375 171.13671875 C-326.45447862 166.79851275 -327.630107 162.38515542 -328.84765625 157.984375 C-329.69380908 155.14787887 -330.68000822 152.48076647 -331.8125 149.75 C-333.86387658 144.05769849 -335.50218134 138.28447456 -337.0625 132.44140625 C-337.74465812 129.99345342 -338.49761283 127.59396366 -339.3125 125.1875 C-339.55613281 124.46175781 -339.79976563 123.73601562 -340.05078125 122.98828125 C-340.57773842 121.43983786 -341.11767993 119.89577489 -341.66796875 118.35546875 C-344.0303864 111.31258044 -345.2091962 103.94008859 -342.8125 96.75 C-342.1525 96.75 -341.4925 96.75 -340.8125 96.75 C-340.60625 96.1725 -340.4 95.595 -340.1875 95 C-338.15227284 91.66962828 -336.33460892 90.48015877 -332.8125 88.75 C-326.99970733 88.05110118 -322.17632553 88.32512408 -316.8125 90.75 C-316.8125 91.41 -316.8125 92.07 -316.8125 92.75 C-315.3275 93.245 -315.3275 93.245 -313.8125 93.75 C-311.49309158 97.52977668 -310.42081025 100.31084956 -310.8125 104.75 C-310.1525 104.75 -309.4925 104.75 -308.8125 104.75 C-308.3175 109.7 -308.3175 109.7 -307.8125 114.75 C-307.1525 114.75 -306.4925 114.75 -305.8125 114.75 C-305.41417969 116.17892578 -305.41417969 116.17892578 -305.0078125 117.63671875 C-304.65460938 118.89097656 -304.30140625 120.14523438 -303.9375 121.4375 C-303.58945312 122.67886719 -303.24140625 123.92023438 -302.8828125 125.19921875 C-301.90659928 128.63519272 -301.90659928 128.63519272 -300.734375 131.41015625 C-299.79385595 133.79732114 -299.34237242 135.97161302 -298.9375 138.5 C-298.27874115 142.06256788 -297.3457803 145.00083 -295.75 148.25 C-293.46925117 152.98954868 -293.0300157 157.54049887 -292.8125 162.75 C-292.1525 162.75 -291.4925 162.75 -290.8125 162.75 C-289.99307052 165.26876293 -289.18184931 167.7897067 -288.375 170.3125 C-288.14490234 171.01697266 -287.91480469 171.72144531 -287.67773438 172.44726562 C-286.26596322 176.88718362 -285.34184885 181.11971871 -284.8125 185.75 C-283.47658833 183.2513504 -282.14381613 180.75109744 -280.8125 178.25 C-280.40314209 177.48478027 -279.99378418 176.71956055 -279.57202148 175.93115234 C-277.55594818 172.13898663 -275.59250952 168.34182524 -273.78515625 164.4453125 C-269.57875271 155.43036833 -264.97733517 148.71121641 -257.8125 141.75 C-257.26207031 141.15832031 -256.71164062 140.56664062 -256.14453125 139.95703125 C-254.8125 138.75 -254.8125 138.75 -252.8125 138.75 C-252.8125 138.09 -252.8125 137.43 -252.8125 136.75 C-246.09497802 133.71591924 -240.18425025 131.30635851 -232.8125 130.75 C-232.4825 130.42 -232.1525 130.09 -231.8125 129.75 C-228.94982433 129.67674832 -226.111781 129.65761795 -223.25 129.6875 C-222.44369141 129.69201172 -221.63738281 129.69652344 -220.80664062 129.70117188 C-218.80856244 129.71299482 -216.81052217 129.73093086 -214.8125 129.75 C-214.8125 130.41 -214.8125 131.07 -214.8125 131.75 C-213.905 131.646875 -212.9975 131.54375 -212.0625 131.4375 C-205.00947077 131.4375 -197.50116027 135.09690653 -192.0625 139.4375 C-189.8125 141.75 -189.8125 141.75 -189.8125 143.75 C-189.1525 143.75 -188.4925 143.75 -187.8125 143.75 C-187.8125 144.74 -187.8125 145.73 -187.8125 146.75 C-186.884375 147.0903125 -186.884375 147.0903125 -185.9375 147.4375 C-183.19839791 149.12929835 -182.76225528 150.74244161 -181.8125 153.75 C-181.1525 153.75 -180.4925 153.75 -179.8125 153.75 C-179.379375 154.9565625 -179.379375 154.9565625 -178.9375 156.1875 C-178.07987432 158.8826468 -178.07987432 158.8826468 -175.8125 159.75 C-173.95197726 162.83149079 -172.21886055 165.84166465 -170.75 169.125 C-169.84575133 171.10764383 -169.84575133 171.10764383 -166.8125 171.75 C-166.8125 172.41 -166.8125 173.07 -166.8125 173.75 C-166.07902344 174.03746094 -165.34554687 174.32492188 -164.58984375 174.62109375 C-162.9185028 175.3004433 -161.25913203 176.01233008 -159.62890625 176.78515625 C-152.4522232 180.05633068 -145.64447486 180.66130266 -137.8125 180.75 C-136.84957031 180.76289063 -135.88664063 180.77578125 -134.89453125 180.7890625 C-128.12087194 180.5349281 -123.14470593 178.28730497 -117.24609375 175.02734375 C-114.8125 173.75 -114.8125 173.75 -112.8125 173.75 C-112.544375 173.03457031 -112.27625 172.31914062 -112 171.58203125 C-110.79518693 168.70871061 -109.40012888 166.11662374 -107.8125 163.4375 C-107.296875 162.55449219 -106.78125 161.67148438 -106.25 160.76171875 C-105.775625 160.09785156 -105.30125 159.43398437 -104.8125 158.75 C-104.1525 158.75 -103.4925 158.75 -102.8125 158.75 C-102.71066406 158.20859375 -102.60882813 157.6671875 -102.50390625 157.109375 C-101.63492393 154.14403419 -100.25777709 151.69475054 -98.75 149 C-98.20214844 148.01515625 -97.65429688 147.0303125 -97.08984375 146.015625 C-96.66832031 145.26796875 -96.24679687 144.5203125 -95.8125 143.75 C-95.1525 143.75 -94.4925 143.75 -93.8125 143.75 C-93.668125 142.986875 -93.52375 142.22375 -93.375 141.4375 C-92.8125 138.75 -92.8125 138.75 -91.8125 135.75 C-92.4725 135.75 -93.1325 135.75 -93.8125 135.75 C-94.06 136.32234375 -94.3075 136.8946875 -94.5625 137.484375 C-96.00566199 140.10010611 -97.69466222 141.89773456 -99.8125 144 C-100.864375 145.05960937 -100.864375 145.05960937 -101.9375 146.140625 C-103.8125 147.75 -103.8125 147.75 -105.8125 147.75 C-106.1425 148.74 -106.4725 149.73 -106.8125 150.75 C-107.8025 150.75 -108.7925 150.75 -109.8125 150.75 C-109.8125 151.41 -109.8125 152.07 -109.8125 152.75 C-110.4725 152.75 -111.1325 152.75 -111.8125 152.75 C-112.1425 153.74 -112.4725 154.73 -112.8125 155.75 C-113.8025 155.75 -114.7925 155.75 -115.8125 155.75 C-115.8125 156.41 -115.8125 157.07 -115.8125 157.75 C-129.48365324 164.82873942 -142.48604198 168.12938351 -157.625 163.375 C-163.74863053 161.10419852 -167.55261087 158.81088099 -170.8515625 153.04296875 C-173.08159734 147.72170675 -172.6894057 143.11208753 -170.703125 137.76171875 C-167.62883129 131.25776942 -163.8758301 124.91772866 -158.8125 119.75 C-158.1525 119.75 -157.4925 119.75 -156.8125 119.75 C-156.8125 118.76 -156.8125 117.77 -156.8125 116.75 C-156.1525 116.75 -155.4925 116.75 -154.8125 116.75 C-154.54050781 116.16089844 -154.26851562 115.57179688 -153.98828125 114.96484375 C-151.05983367 109.44846576 -146.18481057 105.12231057 -141.8125 100.75 C-140.90842665 99.65256992 -140.01259916 98.54829661 -139.125 97.4375 C-138.361875 96.550625 -137.59875 95.66375 -136.8125 94.75 C-136.1525 94.75 -135.4925 94.75 -134.8125 94.75 C-134.8125 94.09 -134.8125 93.43 -134.8125 92.75 C-134.1525 92.75 -133.4925 92.75 -132.8125 92.75 C-132.4825 91.76 -132.1525 90.77 -131.8125 89.75 C-131.1525 89.75 -130.4925 89.75 -129.8125 89.75 C-129.8125 89.09 -129.8125 88.43 -129.8125 87.75 C-129.1525 87.75 -128.4925 87.75 -127.8125 87.75 C-127.4825 86.76 -127.1525 85.77 -126.8125 84.75 C-126.1525 84.75 -125.4925 84.75 -124.8125 84.75 C-124.6578125 83.7909375 -124.6578125 83.7909375 -124.5 82.8125 C-124.1596875 81.7915625 -124.1596875 81.7915625 -123.8125 80.75 C-122.8225 80.42 -121.8325 80.09 -120.8125 79.75 C-119.70413577 77.86683841 -119.70413577 77.86683841 -118.8125 75.75 C-117.8225 74.265 -117.8225 74.265 -116.8125 72.75 C-116.1525 72.75 -115.4925 72.75 -114.8125 72.75 C-114.45865234 71.68845703 -114.45865234 71.68845703 -114.09765625 70.60546875 C-112.58589735 67.24651507 -110.63276492 64.86597783 -108.25 62.0625 C-105.22080054 58.61183949 -105.22080054 58.61183949 -102.8125 54.75 C-102.1525 54.75 -101.4925 54.75 -100.8125 54.75 C-100.55210937 54.19183594 -100.29171875 53.63367187 -100.0234375 53.05859375 C-96.8212795 46.95383446 -92.41803114 40.86725682 -87.8125 35.75 C-87.1525 35.75 -86.4925 35.75 -85.8125 35.75 C-85.1525 34.1 -84.4925 32.45 -83.8125 30.75 C-83.1525 30.75 -82.4925 30.75 -81.8125 30.75 C-81.4825 29.76 -81.1525 28.77 -80.8125 27.75 C-64.26277125 12.23462929 -64.26277125 12.23462929 -54.8125 11.75 C-54.8125 11.09 -54.8125 10.43 -54.8125 9.75 C-47.94379722 7.20603601 -41.00103182 5.60707616 -33.84619141 4.10839844 C-30.01560146 3.59323595 -30.01560146 3.59323595 -26.8125 1.75 C-24.10576997 1.1784476 -21.41119092 0.66346271 -18.6875 0.1875 C-17.93984375 0.04892578 -17.1921875 -0.08964844 -16.421875 -0.23242188 C-5.04816146 -2.24362732 -5.04816146 -2.24362732 0 0 Z M89.1875 142.75 C86.93651443 146.12647836 86.46433284 148.59811937 85.6875 152.5625 C84.79242439 157.10111709 83.73297328 161.38912965 82.1875 165.75 C81.64441022 167.31200593 81.10260789 168.8744605 80.5625 170.4375 C80.30210937 171.18386719 80.04171875 171.93023437 79.7734375 172.69921875 C79.05013944 174.87528786 79.05013944 174.87528786 79.1875 177.75 C78.5275 177.75 77.8675 177.75 77.1875 177.75 C76.8575 178.966875 76.5275 180.18375 76.1875 181.4375 C73.96881776 188.15724095 69.96711632 193.82269946 66.1875 199.75 C65.46736128 200.99323623 64.75601738 202.24171952 64.0625 203.5 C62.54293076 206.13392001 60.95509176 208.61268758 59.25 211.125 C56.70560202 214.890195 54.45062241 218.7428818 52.2890625 222.73828125 C51.36957752 224.41748254 50.38029869 226.05822281 49.375 227.6875 C48.02117852 229.6422193 48.02117852 229.6422193 48.1875 231.75 C47.5275 231.75 46.8675 231.75 46.1875 231.75 C43.9861134 235.55427492 43.9861134 235.55427492 43.1875 239.75 C42.5275 239.75 41.8675 239.75 41.1875 239.75 C40.8575 241.07 40.5275 242.39 40.1875 243.75 C39.5275 243.75 38.8675 243.75 38.1875 243.75 C37.34930842 245.37249941 36.5170884 246.99808497 35.6875 248.625 C34.99140625 249.98238281 34.99140625 249.98238281 34.28125 251.3671875 C33.04844411 253.61596859 33.04844411 253.61596859 33.1875 255.75 C32.5275 255.75 31.8675 255.75 31.1875 255.75 C31.1875 256.74 31.1875 257.73 31.1875 258.75 C30.5275 258.75 29.8675 258.75 29.1875 258.75 C28.8575 260.4 28.5275 262.05 28.1875 263.75 C27.5275 263.75 26.8675 263.75 26.1875 263.75 C25.80078125 264.46285156 25.4140625 265.17570312 25.015625 265.91015625 C23.41177144 268.85981763 21.80023107 271.80518468 20.1875 274.75 C19.7853125 275.49378906 19.383125 276.23757813 18.96875 277.00390625 C16.41588617 281.63580692 16.41588617 281.63580692 14.1875 282.75 C13.53194881 285.27733235 13.53194881 285.27733235 13.1875 287.75 C12.5275 287.75 11.8675 287.75 11.1875 287.75 C10.82398438 288.51183594 10.46046875 289.27367187 10.0859375 290.05859375 C7.24706634 295.88919836 4.26737763 301.3387209 0.55859375 306.65625 C-0.79003416 308.71569318 -1.83897411 310.76983986 -2.875 313 C-6.01515524 319.47335281 -10.26339938 322.31013898 -16.8125 324.75 C-16.8125 325.41 -16.8125 326.07 -16.8125 326.75 C-21.7625 326.75 -26.7125 326.75 -31.8125 326.75 C-31.8125 326.09 -31.8125 325.43 -31.8125 324.75 C-32.885 324.5025 -33.9575 324.255 -35.0625 324 C-38.80899437 322.75116854 -40.33323882 321.72511342 -42.8125 318.75 C-44.15145632 320.41215268 -45.48380142 322.07963607 -46.8125 323.75 C-47.39 324.471875 -47.9675 325.19375 -48.5625 325.9375 C-50.00174432 327.6574477 -50.00174432 327.6574477 -49.8125 329.75 C-50.4725 329.75 -51.1325 329.75 -51.8125 329.75 C-52.369375 330.4925 -52.92625 331.235 -53.5 332 C-57.12834843 336.31479273 -61.14608916 338.68323567 -66.75 339.5 C-67.760625 339.5825 -68.77125 339.665 -69.8125 339.75 C-69.8125 340.41 -69.8125 341.07 -69.8125 341.75 C-70.4725 341.46125 -71.1325 341.1725 -71.8125 340.875 C-74.90772751 339.6278863 -74.90772751 339.6278863 -78.6875 338.9375 C-83.23561071 337.87396841 -86.17654691 335.62846286 -89.8125 332.75 C-90.65155565 333.87073862 -91.48357831 334.99674547 -92.3125 336.125 C-92.7765625 336.75148438 -93.240625 337.37796875 -93.71875 338.0234375 C-94.99088101 339.69094613 -94.99088101 339.69094613 -94.8125 341.75 C-95.4725 341.75 -96.1325 341.75 -96.8125 341.75 C-96.8125 342.74 -96.8125 343.73 -96.8125 344.75 C-98.13588632 345.43620031 -99.47199948 346.09786461 -100.8125 346.75 C-101.51375 347.12125 -102.215 347.4925 -102.9375 347.875 C-110.20892017 350.08804092 -117.6251948 348.69439175 -124.8125 346.75 C-124.8125 346.09 -124.8125 345.43 -124.8125 344.75 C-126.4625 344.42 -128.1125 344.09 -129.8125 343.75 C-129.8125 343.09 -129.8125 342.43 -129.8125 341.75 C-130.4725 341.75 -131.1325 341.75 -131.8125 341.75 C-132.1425 340.1 -132.4725 338.45 -132.8125 336.75 C-133.4725 336.75 -134.1325 336.75 -134.8125 336.75 C-135.4725 334.11 -136.1325 331.47 -136.8125 328.75 C-137.48796875 328.68941406 -138.1634375 328.62882813 -138.859375 328.56640625 C-139.75140625 328.48261719 -140.6434375 328.39882813 -141.5625 328.3125 C-142.88507813 328.19068359 -142.88507813 328.19068359 -144.234375 328.06640625 C-146.50600452 327.78761535 -148.61101823 327.36209423 -150.8125 326.75 C-150.8125 326.09 -150.8125 325.43 -150.8125 324.75 C-152.7925 324.09 -154.7725 323.43 -156.8125 322.75 C-156.8125 322.09 -156.8125 321.43 -156.8125 320.75 C-157.4725 320.75 -158.1325 320.75 -158.8125 320.75 C-159.48811748 319.0869416 -160.15183281 317.41905395 -160.8125 315.75 C-161.06515625 315.12222656 -161.3178125 314.49445313 -161.578125 313.84765625 C-161.97257812 312.84025391 -161.97257812 312.84025391 -162.375 311.8125 C-162.62378906 311.18472656 -162.87257813 310.55695313 -163.12890625 309.91015625 C-164.79346868 304.65013896 -164.97527848 299.41277433 -164.9375 293.9375 C-164.93411621 293.23189941 -164.93073242 292.52629883 -164.92724609 291.79931641 C-164.85359514 284.3502932 -164.27980306 277.82293545 -161.8125 270.75 C-161.8125 269.43 -161.8125 268.11 -161.8125 266.75 C-161.1525 266.75 -160.4925 266.75 -159.8125 266.75 C-159.30690092 265.31445975 -158.8082251 263.8764798 -158.3125 262.4375 C-158.0340625 261.63699219 -157.755625 260.83648437 -157.46875 260.01171875 C-156.67316893 257.66230578 -156.67316893 257.66230578 -156.8125 254.75 C-156.1525 254.75 -155.4925 254.75 -154.8125 254.75 C-153.97263916 252.81532058 -153.14081973 250.87714871 -152.3125 248.9375 C-151.8484375 247.85855469 -151.384375 246.77960938 -150.90625 245.66796875 C-149.63700697 242.80117976 -149.63700697 242.80117976 -149.8125 239.75 C-149.1525 239.75 -148.4925 239.75 -147.8125 239.75 C-146.99497697 238.16925436 -146.18368003 236.58528777 -145.375 235 C-144.69630859 233.67742187 -144.69630859 233.67742187 -144.00390625 232.328125 C-142.97794602 230.10801434 -142.29741397 228.13555381 -141.8125 225.75 C-141.1525 225.75 -140.4925 225.75 -139.8125 225.75 C-138.97180585 224.14967863 -138.14018495 222.54458829 -137.3125 220.9375 C-136.8484375 220.04417969 -136.384375 219.15085937 -135.90625 218.23046875 C-134.61076859 215.74431974 -134.61076859 215.74431974 -134.8125 212.75 C-134.1525 212.75 -133.4925 212.75 -132.8125 212.75 C-132.4825 211.1 -132.1525 209.45 -131.8125 207.75 C-131.1525 207.75 -130.4925 207.75 -129.8125 207.75 C-129.8125 206.76 -129.8125 205.77 -129.8125 204.75 C-129.1525 204.75 -128.4925 204.75 -127.8125 204.75 C-127.1525 203.1 -126.4925 201.45 -125.8125 199.75 C-126.72128906 199.76160156 -127.63007813 199.77320313 -128.56640625 199.78515625 C-154.38552876 199.97052431 -154.38552876 199.97052431 -163.71484375 195.671875 C-166.36205647 194.5084817 -168.9468627 194.05164603 -171.8125 193.75 C-171.8125 193.09 -171.8125 192.43 -171.8125 191.75 C-172.8025 191.75 -173.7925 191.75 -174.8125 191.75 C-174.8125 191.09 -174.8125 190.43 -174.8125 189.75 C-176.7925 189.255 -176.7925 189.255 -178.8125 188.75 C-178.8125 188.09 -178.8125 187.43 -178.8125 186.75 C-180.52190029 185.14771617 -182.34551528 183.73705258 -184.18359375 182.28515625 C-185.8125 180.75 -185.8125 180.75 -186.8125 177.75 C-187.43125 177.151875 -188.05 176.55375 -188.6875 175.9375 C-191.12190716 173.43149263 -192.37440837 170.91380159 -193.8125 167.75 C-194.4725 167.75 -195.1325 167.75 -195.8125 167.75 C-195.93238281 166.93208984 -195.93238281 166.93208984 -196.0546875 166.09765625 C-197.87612401 160.4549586 -202.97009095 154.73856285 -207.7890625 151.3671875 C-211.09601297 149.86667693 -214.21534355 149.42298578 -217.8125 149.75 C-217.8125 149.09 -217.8125 148.43 -217.8125 147.75 C-226.99996945 147.01695722 -233.5823902 148.66412989 -241.8125 152.75 C-241.8125 153.41 -241.8125 154.07 -241.8125 154.75 C-242.410625 155.018125 -243.00875 155.28625 -243.625 155.5625 C-245.81097854 156.74917406 -247.22582594 157.84599113 -248.8125 159.75 C-248.8125 160.41 -248.8125 161.07 -248.8125 161.75 C-249.4725 161.75 -250.1325 161.75 -250.8125 161.75 C-251.63087442 163.16328129 -252.44196219 164.58078346 -253.25 166 C-253.70246094 166.78890625 -254.15492188 167.5778125 -254.62109375 168.390625 C-255.70561602 170.53833468 -256.34398716 172.40205061 -256.8125 174.75 C-257.4725 174.75 -258.1325 174.75 -258.8125 174.75 C-259.46086042 176.49906531 -260.10608784 178.24929219 -260.75 180 C-261.10964844 180.97453125 -261.46929687 181.9490625 -261.83984375 182.953125 C-262.62629655 185.21457161 -263.28501601 187.41796552 -263.8125 189.75 C-264.4725 189.75 -265.1325 189.75 -265.8125 189.75 C-266.07160156 190.47703125 -266.33070313 191.2040625 -266.59765625 191.953125 C-267.85485783 194.84751835 -269.31279424 197.0170438 -271.25 199.5 C-272.14525391 200.66789062 -272.14525391 200.66789062 -273.05859375 201.859375 C-274.8125 203.75 -274.8125 203.75 -277.8125 204.75 C-277.8125 206.73 -277.8125 208.71 -277.8125 210.75 C-277.1525 210.75 -276.4925 210.75 -275.8125 210.75 C-275.874375 211.389375 -275.93625 212.02875 -276 212.6875 C-275.79046981 216.10982648 -274.88536041 218.71512067 -273.74609375 221.92578125 C-272.55835047 225.51882891 -271.5872702 229.1536354 -270.625 232.8125 C-270.44614258 233.49231934 -270.26728516 234.17213867 -270.08300781 234.87255859 C-269.65730085 236.49779659 -269.23457935 238.12381612 -268.8125 239.75 C-268.1525 239.75 -267.4925 239.75 -266.8125 239.75 C-266.709375 240.905 -266.60625 242.06 -266.5 243.25 C-266.05197295 246.83421639 -265.06844247 249.85800917 -263.69921875 253.2109375 C-262.24993644 257.36086481 -261.31363877 261.65518363 -260.34643555 265.93945312 C-259.33441511 270.24538784 -257.83372217 273.83353969 -255.8125 277.75 C-255.15234375 280.12890625 -255.15234375 280.12890625 -254.75 282.3125 C-254.07791558 285.65611999 -253.12678884 288.59570678 -251.8125 291.75 C-251.44378912 293.40919896 -251.09968326 295.0747643 -250.8125 296.75 C-250.1525 296.75 -249.4925 296.75 -248.8125 296.75 C-248.68488281 297.75675781 -248.55726563 298.76351562 -248.42578125 299.80078125 C-246.92271038 309.47979175 -243.88719376 318.93991496 -240.64453125 328.1640625 C-239.83482946 330.68060045 -239.27715713 333.14979748 -238.8125 335.75 C-238.1525 335.75 -237.4925 335.75 -236.8125 335.75 C-236.68488281 336.74386719 -236.55726563 337.73773438 -236.42578125 338.76171875 C-235.85306622 342.75266988 -234.98027345 346.65371286 -234 350.5625 C-233.82476807 351.26391113 -233.64953613 351.96532227 -233.46899414 352.68798828 C-232.23853747 357.45717465 -230.6813841 361.94816042 -228.7421875 366.48046875 C-227.48313617 369.55403524 -226.58971528 372.69489356 -225.66796875 375.8828125 C-224.57417657 379.54876436 -223.38922161 383.18071612 -222.1875 386.8125 C-221.85987671 387.81446411 -221.85987671 387.81446411 -221.52563477 388.83666992 C-220.62764391 392.04887336 -220.62764391 392.04887336 -218.8125 394.75 C-217.17046093 394.84715518 -215.52421266 394.87371568 -213.87930202 394.87304783 C-212.2669867 394.8760344 -212.2669867 394.8760344 -210.62209934 394.87908131 C-208.82885049 394.87471205 -208.82885049 394.87471205 -206.99937439 394.87025452 C-205.11149156 394.87153615 -205.11149156 394.87153615 -203.18546969 394.87284368 C-199.67603294 394.87509101 -196.16662643 394.87106414 -192.65719354 394.86606562 C-188.87871636 394.86176469 -185.10024102 394.86320729 -181.32176208 394.8639679 C-174.76997915 394.86449336 -168.21820614 394.86134424 -161.6664257 394.85573006 C-152.19354145 394.84761807 -142.72066202 394.84500015 -133.24777467 394.84374207 C-117.88026828 394.84155107 -102.51276718 394.8348897 -87.14526367 394.82543945 C-72.2132978 394.81626656 -57.28133336 394.80918513 -42.34936523 394.80493164 C-41.42963332 394.80466892 -40.50990141 394.80440619 -39.56229883 394.80413551 C-34.94847552 394.80283051 -30.33465221 394.80156679 -25.72082889 394.80032361 C12.58195111 394.78994952 50.88472521 394.77232991 89.1875 394.75 C89.35354736 394.18079834 89.51959473 393.61159668 89.69067383 393.02514648 C90.45596591 390.41126125 91.2279315 387.79939132 92 385.1875 C92.39155273 383.84461914 92.39155273 383.84461914 92.79101562 382.47460938 C94.29972418 377.38970275 96.02141621 372.58974479 98.1875 367.75 C98.82891581 365.47663102 98.82891581 365.47663102 99.1875 363.375 C99.80328752 360.36672654 100.5491566 357.52338003 101.5625 354.625 C102.97759976 350.55122797 104.10124953 346.42091336 105.1875 342.25 C106.98123198 335.40212948 108.86040959 328.72268252 111.75 322.25 C113.15216552 318.83603178 113.96538308 315.66479732 114.66015625 312.05859375 C115.30987691 309.21426109 116.25571894 306.51462512 117.1875 303.75 C118.20908755 300.20237762 119.19882339 296.64676234 120.1875 293.08984375 C121.1875 289.75 121.1875 289.75 122.3046875 286.9921875 C123.30906917 284.44123582 123.34277702 282.46734788 123.1875 279.75 C123.8475 279.75 124.5075 279.75 125.1875 279.75 C125.29707031 279.20472656 125.40664063 278.65945313 125.51953125 278.09765625 C125.67808594 277.34355469 125.83664062 276.58945312 126 275.8125 C126.22623047 274.71615234 126.22623047 274.71615234 126.45703125 273.59765625 C127.06963345 271.20949047 127.77857359 268.933297 128.5703125 266.6015625 C130.3104326 261.47052092 131.7880285 256.27848529 133.25 251.0625 C133.76044288 249.24573479 134.27212906 247.42931838 134.78515625 245.61328125 C135.02379395 244.76846191 135.26243164 243.92364258 135.50830078 243.05322266 C136.07348273 241.13664232 136.71322002 239.24224191 137.37109375 237.35546875 C138.3868387 234.56889663 138.3868387 234.56889663 138.1875 230.75 C138.8475 230.75 139.5075 230.75 140.1875 230.75 C140.35185547 229.82380859 140.35185547 229.82380859 140.51953125 228.87890625 C141.45798643 223.86618222 142.63916357 219.12868229 144.328125 214.3203125 C145.82014883 209.85780487 147.04747364 205.31800077 148.3203125 200.7890625 C148.89847371 198.76289393 149.52119456 196.74891633 150.1875 194.75 C146.93352492 192.49114676 146.93352492 192.49114676 143.1875 191.75 C143.1875 191.09 143.1875 190.43 143.1875 189.75 C141.78573049 188.86107299 140.38370704 187.97254412 138.98046875 187.0859375 C134.3619374 183.64467885 130.56915002 178.98029025 128.1875 173.75 C127.5275 173.75 126.8675 173.75 126.1875 173.75 C125.94 173.06550781 125.6925 172.38101563 125.4375 171.67578125 C123.97040648 168.24186549 122.13950695 165.1095113 120.1875 161.9375 C119.83171875 161.34001953 119.4759375 160.74253906 119.109375 160.12695312 C118.19305558 158.63109586 117.19614753 157.18522138 116.1875 155.75 C115.5275 155.75 114.8675 155.75 114.1875 155.75 C113.94 155.13125 113.6925 154.5125 113.4375 153.875 C111.98121361 151.39931313 110.80937494 150.79874998 108.1875 149.75 C108.1875 149.09 108.1875 148.43 108.1875 147.75 C102.05645264 143.43039845 96.58987027 142.99309919 89.1875 142.75 Z M-71.8125 148.75 C-72.67875 148.976875 -73.545 149.20375 -74.4375 149.4375 C-81.08769093 153.11260552 -84.18067552 161.99685037 -86.8125 168.75 C-86.8125 169.41 -86.8125 170.07 -86.8125 170.75 C-87.4725 170.75 -88.1325 170.75 -88.8125 170.75 C-89.34875 171.86375 -89.885 172.9775 -90.4375 174.125 C-92.10591383 177.47370249 -93.93247314 180.67782362 -95.875 183.875 C-100.18848346 190.37350586 -100.18848346 190.37350586 -101.8125 197.75 C-102.4725 197.75 -103.1325 197.75 -103.8125 197.75 C-104.26625 198.719375 -104.72 199.68875 -105.1875 200.6875 C-106.8125 203.75 -106.8125 203.75 -108.8125 204.75 C-109.54959602 206.40269107 -110.27915726 208.05937345 -110.96044922 209.73583984 C-112.39153047 213.1187683 -114.14013619 216.32773539 -115.875 219.5625 C-116.22626953 220.22958984 -116.57753906 220.89667969 -116.93945312 221.58398438 C-118.37885621 224.2804843 -119.63871954 226.57621954 -121.8125 228.75 C-121.8125 229.74 -121.8125 230.73 -121.8125 231.75 C-122.4725 231.75 -123.1325 231.75 -123.8125 231.75 C-124.2971875 232.719375 -124.781875 233.68875 -125.28125 234.6875 C-125.60134033 235.3276001 -125.92143066 235.9677002 -126.2512207 236.62719727 C-126.96616144 238.05724322 -127.68083712 239.48742171 -128.39526367 240.91772461 C-130.26391635 244.65789036 -132.13660232 248.39590487 -134.01953125 252.12890625 C-134.37273437 252.83080078 -134.7259375 253.53269531 -135.08984375 254.25585938 C-135.76136287 255.59002849 -136.4344467 256.92341164 -137.109375 258.25585938 C-144.15088155 272.2658278 -150.74935868 289.95988849 -145.8125 305.75 C-145.1525 305.75 -144.4925 305.75 -143.8125 305.75 C-143.4825 307.07 -143.1525 308.39 -142.8125 309.75 C-139.89615871 310.0002157 -139.89615871 310.0002157 -136.8125 309.75 C-134.75367047 306.66175571 -133.96054209 304.23432775 -132.9375 300.6875 C-131.4070089 295.54366901 -129.6474339 290.61209466 -127.546875 285.67578125 C-126.69372981 283.782053 -126.69372981 283.782053 -126.8125 281.75 C-126.1525 281.75 -125.4925 281.75 -124.8125 281.75 C-124.6575708 281.14269043 -124.5026416 280.53538086 -124.34301758 279.90966797 C-122.53446216 273.32655153 -119.90736476 267.76816468 -116.5 261.875 C-115.51661036 260.1311202 -114.53483274 258.38633037 -113.5546875 256.640625 C-113.08385742 255.80595703 -112.61302734 254.97128906 -112.12792969 254.11132812 C-107.14258786 246.29633382 -107.14258786 246.29633382 -104.8125 237.75 C-104.1525 237.75 -103.4925 237.75 -102.8125 237.75 C-102.4721875 237.10675781 -102.131875 236.46351563 -101.78125 235.80078125 C-98.24074108 229.19999201 -94.44411088 222.83095286 -90.44921875 216.5 C-88.71161287 213.80309715 -88.71161287 213.80309715 -87.8125 210.75 C-85.13606043 209.85785348 -83.55865622 209.61459789 -80.8125 209.625 C-80.131875 209.62242187 -79.45125 209.61984375 -78.75 209.6171875 C-76.8125 209.75 -76.8125 209.75 -73.8125 210.75 C-72.10795645 215.86363066 -71.7158156 220.36933827 -74.01904297 225.36914062 C-75.67959713 228.14465999 -77.4292022 230.82695444 -79.25 233.5 C-80.46368021 235.32371758 -81.67097373 237.15170553 -82.87109375 238.984375 C-83.41048584 239.78069336 -83.94987793 240.57701172 -84.50561523 241.39746094 C-85.88289862 243.8767254 -86.41152773 245.95712749 -86.8125 248.75 C-87.4725 248.75 -88.1325 248.75 -88.8125 248.75 C-92.4193211 254.99257499 -95.66100354 261.39291635 -98.8515625 267.85424805 C-101.08077394 272.34936358 -103.42597829 276.74098832 -106 281.05078125 C-107.02819105 282.88717116 -107.02819105 282.88717116 -106.8125 285.75 C-107.4725 285.75 -108.1325 285.75 -108.8125 285.75 C-108.98265625 286.35585938 -109.1528125 286.96171875 -109.328125 287.5859375 C-110.63484608 292.10385614 -112.05609147 296.47300663 -113.875 300.8125 C-115.54398519 304.83844901 -116.61338648 308.75658322 -117.41796875 313.03515625 C-117.8125 314.75 -117.8125 314.75 -118.8125 315.75 C-119.483199 320.92396374 -119.62576241 324.59787825 -116.5625 328.9375 C-114.05701783 330.95063508 -114.05701783 330.95063508 -111.625 330.75 C-109.47772058 329.74677258 -109.47772058 329.74677258 -107.8125 326.75 C-107.8125 325.76 -107.8125 324.77 -107.8125 323.75 C-107.1525 323.75 -106.4925 323.75 -105.8125 323.75 C-98.93569692 309.14208028 -98.93569692 309.14208028 -95.8125 293.75 C-95.1525 293.75 -94.4925 293.75 -93.8125 293.75 C-93.54695313 292.99074219 -93.28140625 292.23148438 -93.0078125 291.44921875 C-92.65460938 290.45535156 -92.30140625 289.46148437 -91.9375 288.4375 C-91.58945312 287.45136719 -91.24140625 286.46523438 -90.8828125 285.44921875 C-89.8125 282.75 -89.8125 282.75 -87.8125 279.75 C-87.8125 278.76 -87.8125 277.77 -87.8125 276.75 C-87.1525 276.75 -86.4925 276.75 -85.8125 276.75 C-85.48636719 275.94175781 -85.16023438 275.13351562 -84.82421875 274.30078125 C-84.38722656 273.23214844 -83.95023437 272.16351563 -83.5 271.0625 C-83.07074219 270.00675781 -82.64148438 268.95101562 -82.19921875 267.86328125 C-80.8125 264.75 -80.8125 264.75 -79.14453125 262.04296875 C-77.5613434 259.75962284 -77.5613434 259.75962284 -77.8125 256.75 C-77.1525 256.75 -76.4925 256.75 -75.8125 256.75 C-74.64073482 254.62767021 -73.47495215 252.50242209 -72.3125 250.375 C-71.97863281 249.77171875 -71.64476562 249.1684375 -71.30078125 248.546875 C-69.42476062 245.33585223 -69.42476062 245.33585223 -68.8125 241.75 C-68.1525 241.75 -67.4925 241.75 -66.8125 241.75 C-65.09397634 239.40745235 -65.09397634 239.40745235 -63.375 236.5 C-60.01190198 231.00863477 -60.01190198 231.00863477 -58.08984375 228.515625 C-56.61711839 226.84313605 -56.61711839 226.84313605 -56.8125 224.75 C-56.1525 224.75 -55.4925 224.75 -54.8125 224.75 C-53.79145449 223.77149805 -52.7918879 222.77019573 -51.8125 221.75 C-48.72076248 220.20413124 -46.21820448 220.45640479 -42.8125 220.75 C-40.4375 222.125 -40.4375 222.125 -38.8125 224.75 C-38.19700861 228.07782631 -37.94147268 231.37091591 -37.8125 234.75 C-38.4725 234.75 -39.1325 234.75 -39.8125 234.75 C-41.69121937 236.95102529 -41.69121937 236.95102529 -43.625 239.75 C-44.33527344 240.74773437 -45.04554688 241.74546875 -45.77734375 242.7734375 C-47.48630003 245.27290907 -49.11297031 247.78995126 -50.6875 250.375 C-52.8125 253.75 -52.8125 253.75 -54.8125 254.75 C-56.16934852 256.98308548 -56.16934852 256.98308548 -57.4375 259.625 C-57.88351562 260.50929688 -58.32953125 261.39359375 -58.7890625 262.3046875 C-60.00553988 264.76942525 -60.00553988 264.76942525 -59.8125 267.75 C-60.4725 267.75 -61.1325 267.75 -61.8125 267.75 C-62.26689453 268.65878906 -62.26689453 268.65878906 -62.73046875 269.5859375 C-63.14941406 270.42382812 -63.56835938 271.26171875 -64 272.125 C-64.45503906 273.03636719 -64.91007812 273.94773437 -65.37890625 274.88671875 C-66.29918366 276.72476601 -67.22333159 278.56088334 -68.15234375 280.39453125 C-72.83823532 288.70038481 -72.83823532 288.70038481 -74.8125 297.75 C-75.4725 297.75 -76.1325 297.75 -76.8125 297.75 C-80.03575243 304.73834903 -80.03575243 304.73834903 -80.1875 312.1875 C-79.73375 313.033125 -79.28 313.87875 -78.8125 314.75 C-78.44125 315.53375 -78.07 316.3175 -77.6875 317.125 C-77.39875 317.66125 -77.11 318.1975 -76.8125 318.75 C-76.1525 318.75 -75.4925 318.75 -74.8125 318.75 C-74.4825 319.74 -74.1525 320.73 -73.8125 321.75 C-70.41169423 321.64592083 -70.41169423 321.64592083 -66.8125 320.75 C-64.73728531 318.12139473 -63.86906463 315.91969389 -62.8125 312.75 C-62.1525 312.75 -61.4925 312.75 -60.8125 312.75 C-56.8856007 305.00984157 -53.06971431 297.22856066 -49.375 289.375 C-44.79089766 279.63586711 -40.04761898 269.97870193 -35.0859375 260.42578125 C-33.66925703 257.94290583 -33.66925703 257.94290583 -33.8125 255.75 C-33.1525 255.75 -32.4925 255.75 -31.8125 255.75 C-31.16254703 254.33521865 -30.51771278 252.91808513 -29.875 251.5 C-29.51535156 250.71109375 -29.15570313 249.9221875 -28.78515625 249.109375 C-27.91216721 246.99176302 -27.29911492 244.98330638 -26.8125 242.75 C-26.1525 242.75 -25.4925 242.75 -24.8125 242.75 C-22.49230703 239.55973467 -20.46606922 236.33273331 -18.8125 232.75 C-18.1525 232.75 -17.4925 232.75 -16.8125 232.75 C-16.3690625 232.26144531 -15.925625 231.77289063 -15.46875 231.26953125 C-13.3244083 229.30219889 -12.17966063 229.37537819 -9.3125 229.4375 C-8.5390625 229.44136719 -7.765625 229.44523437 -6.96875 229.44921875 C-4.8125 229.75 -4.8125 229.75 -1.8125 231.75 C-1.4140625 234.24609375 -1.4140625 234.24609375 -1.4375 237.1875 C-1.42976562 238.15558594 -1.42203125 239.12367188 -1.4140625 240.12109375 C-1.8806121 243.19940633 -2.51645265 243.76582793 -4.8125 245.75 C-6.40582122 248.06092391 -7.90401113 250.42062055 -9.41015625 252.7890625 C-10.8125 254.75 -10.8125 254.75 -12.8125 255.75 C-13.46805119 258.27733235 -13.46805119 258.27733235 -13.8125 260.75 C-14.4725 260.75 -15.1325 260.75 -15.8125 260.75 C-16.19921875 261.67941406 -16.5859375 262.60882813 -16.984375 263.56640625 C-21.71695696 274.8317774 -21.71695696 274.8317774 -24.1875 278.9375 C-26.0626388 281.64156643 -26.0626388 281.64156643 -25.8125 284.75 C-26.4725 284.75 -27.1325 284.75 -27.8125 284.75 C-31.02361521 291.35139136 -32.77802591 296.51458578 -30.8125 303.75 C-29.83912806 306.82499469 -29.83912806 306.82499469 -27.8125 308.75 C-24.8125 309.41666667 -24.8125 309.41666667 -21.8125 308.75 C-19.50170203 306.82403531 -18.19619958 304.86446573 -16.91015625 302.16796875 C-16.57693359 301.48283203 -16.24371094 300.79769531 -15.90039062 300.09179688 C-15.56201172 299.38087891 -15.22363281 298.66996094 -14.875 297.9375 C-12.95793272 293.9297582 -11.08555578 290.02743183 -8.55859375 286.36328125 C-6.62731322 283.99666487 -6.62731322 283.99666487 -6.8125 281.75 C-6.1525 281.75 -5.4925 281.75 -4.8125 281.75 C-3.97430842 280.12750059 -3.1420884 278.50191503 -2.3125 276.875 C-1.8484375 275.97007812 -1.384375 275.06515625 -0.90625 274.1328125 C0.32655589 271.88403141 0.32655589 271.88403141 0.1875 269.75 C0.8475 269.75 1.5075 269.75 2.1875 269.75 C2.5175 268.1 2.8475 266.45 3.1875 264.75 C3.8475 264.75 4.5075 264.75 5.1875 264.75 C6.17234108 263.00318707 7.15016187 261.2524149 8.125 259.5 C8.67027344 258.52546875 9.21554687 257.5509375 9.77734375 256.546875 C10.95360835 254.21389591 11.70851691 252.29649238 12.1875 249.75 C12.8475 249.75 13.5075 249.75 14.1875 249.75 C14.744375 248.739375 15.30125 247.72875 15.875 246.6875 C17.32991113 244.13115966 18.87579004 241.73864763 20.625 239.375 C23.03136276 236.08826063 24.94208132 232.6365912 26.87890625 229.05859375 C28.17657953 226.76926567 29.58053277 224.611314 31.0625 222.4375 C38.04833239 212.74074205 38.04833239 212.74074205 42.1875 201.75 C42.8475 201.75 43.5075 201.75 44.1875 201.75 C45.43383771 200.08766847 45.43383771 200.08766847 46.61328125 197.91015625 C47.08056641 197.09353516 47.54785156 196.27691406 48.02929688 195.43554688 C48.51462891 194.56994141 48.99996094 193.70433594 49.5 192.8125 C49.97373047 191.98169922 50.44746094 191.15089844 50.93554688 190.29492188 C51.8871533 188.62212535 52.83264395 186.94583487 53.77197266 185.26611328 C54.73013063 183.5629784 55.70430239 181.86877063 56.69287109 180.18310547 C57.39210693 178.97678467 57.39210693 178.97678467 58.10546875 177.74609375 C58.52981201 177.02478271 58.95415527 176.30347168 59.39135742 175.56030273 C59.785448 174.66420288 59.785448 174.66420288 60.1875 173.75 C59.8575 173.09 59.5275 172.43 59.1875 171.75 C58.8575 172.74 58.5275 173.73 58.1875 174.75 C57.5275 174.75 56.8675 174.75 56.1875 174.75 C54.23924841 176.35942523 53.14383486 177.83078052 51.9375 180.0625 C47.92333847 186.22710521 41.48644987 190.16544296 35.1875 193.75 C34.57261719 194.10578125 33.95773437 194.4615625 33.32421875 194.828125 C27.27443954 197.4382674 20.41008325 197.00002333 13.9375 197.0625 C12.45830078 197.10600586 12.45830078 197.10600586 10.94921875 197.15039062 C4.72896769 197.20366023 0.01532519 196.31662212 -5.64746094 193.71166992 C-7.69680833 192.80138808 -9.62606443 192.22389344 -11.8125 191.75 C-11.8125 191.09 -11.8125 190.43 -11.8125 189.75 C-12.39 189.523125 -12.9675 189.29625 -13.5625 189.0625 C-16.36588976 187.42718931 -17.81692154 185.27773272 -19.8125 182.75 C-20.4725 182.75 -21.1325 182.75 -21.8125 182.75 C-21.8125 181.76 -21.8125 180.77 -21.8125 179.75 C-22.4725 179.75 -23.1325 179.75 -23.8125 179.75 C-24.1425 178.1 -24.4725 176.45 -24.8125 174.75 C-25.4725 174.75 -26.1325 174.75 -26.8125 174.75 C-27.2146875 173.7290625 -27.2146875 173.7290625 -27.625 172.6875 C-28.97303306 169.35289191 -30.38786298 166.05256763 -31.8125 162.75 C-32.4725 162.75 -33.1325 162.75 -33.8125 162.75 C-34.10125 162.151875 -34.39 161.55375 -34.6875 160.9375 C-35.85992026 158.55672208 -35.85992026 158.55672208 -37.8125 155.75 C-38.4725 155.75 -39.1325 155.75 -39.8125 155.75 C-39.8125 154.76 -39.8125 153.77 -39.8125 152.75 C-46.36424278 146.86194026 -53.96691689 146.50040731 -62.38671875 146.58984375 C-65.73289554 146.81076686 -68.65858131 147.63685223 -71.8125 148.75 Z M61.1875 168.75 C61.1875 171.75 61.1875 171.75 61.1875 171.75 Z " fill="#71448A" transform="translate(352.8125,1.25)"/>
<path d="M0 0 C0.91181597 0.16238096 1.82363194 0.32476192 2.76307869 0.49206352 C8.08974483 1.24608024 13.42119817 1.13785445 18.79074097 1.12698364 C19.97460203 1.12854363 21.1584631 1.13010362 22.37819874 1.13171089 C25.65147688 1.13500239 28.92471775 1.13382714 32.19799495 1.13072467 C35.73318474 1.12845846 39.26836955 1.1319563 42.80355835 1.13470459 C49.72453794 1.13914846 56.64550668 1.13819188 63.5664867 1.13529195 C69.1931507 1.13303213 74.81981166 1.13272791 80.44647598 1.13381577 C81.24778381 1.133969 82.04909163 1.13412223 82.87468151 1.13428011 C84.50262919 1.13459984 86.13057687 1.13492405 87.75852455 1.1352527 C103.02036043 1.13810353 118.2821903 1.13482687 133.5440252 1.12945233 C146.63075288 1.12498636 159.71747169 1.12575929 172.80419922 1.13037109 C188.00891393 1.13572679 203.21362337 1.13782708 218.41833889 1.13475883 C220.04085676 1.13444029 221.66337462 1.13412592 223.28589249 1.13381577 C224.48328347 1.13358435 224.48328347 1.13358435 225.70486417 1.13334826 C231.32176697 1.13248597 236.93866641 1.13393983 242.5555687 1.13629532 C249.40515653 1.13910464 256.25473291 1.13833124 263.10431944 1.13301457 C266.59704904 1.13039259 270.08975957 1.12934697 273.58248901 1.13266373 C277.37344225 1.13539818 281.16434192 1.1319659 284.95529175 1.12698364 C286.05267634 1.12921436 287.15006094 1.13144509 288.28069961 1.13374341 C294.26992784 1.1184879 300.06037925 0.77996003 306 0 C305.67 0.99 305.34 1.98 305 3 C204.68 3.33 104.36 3.66 1 4 C1.66 3.67 2.32 3.34 3 3 C3 2.34 3 1.68 3 1 C2.01 0.67 1.02 0.34 0 0 Z " fill="#7D5494" transform="translate(136,396)"/>
<path d="M0 0 C1.04702186 3.7264085 1.07442057 7.13013042 1 11 C0.278125 10.731875 -0.44375 10.46375 -1.1875 10.1875 C-2.115625 10.125625 -3.04375 10.06375 -4 10 C-6.58333229 12.24958334 -6.58333229 12.24958334 -9 15 C-10.65261839 16.02304948 -12.31791365 17.02616054 -14 18 C-14.515625 18.5775 -15.03125 19.155 -15.5625 19.75 C-16.036875 20.1625 -16.51125 20.575 -17 21 C-19.1875 20.6875 -19.1875 20.6875 -21 20 C-15.25 15 -15.25 15 -13 15 C-12.78601563 14.45859375 -12.57203125 13.9171875 -12.3515625 13.359375 C-10.51922057 10.1607203 -8.00203394 7.79035516 -5.375 5.25 C-4.859375 4.74339844 -4.34375 4.23679687 -3.8125 3.71484375 C-2.54616661 2.47196098 -1.2736856 1.23534724 0 0 Z " fill="#78518B" transform="translate(254,116)"/>
<path d="M0 0 C0.928125 0.2784375 0.928125 0.2784375 1.875 0.5625 C4.04160178 1.23686176 4.04160178 1.23686176 6 0 C6.87890625 6.15234375 6.87890625 6.15234375 7 8 C6.67 8.33 6.34 8.66 6 9 C5.95919217 10.99958364 5.95745644 13.00045254 6 15 C6.66 15.33 7.32 15.66 8 16 C7.67 18.64 7.34 21.28 7 24 C4.55089476 20.32634213 3.59065459 16.77135062 2.375 12.5625 C2.14554687 11.79873047 1.91609375 11.03496094 1.6796875 10.24804688 C1.463125 9.50748047 1.2465625 8.76691406 1.0234375 8.00390625 C0.82669434 7.33174072 0.62995117 6.6595752 0.42724609 5.96704102 C0 4 0 4 0 0 Z " fill="#704B8A" transform="translate(80,336)"/>
<path d="M0 0 C0.33 0.99 0.66 1.98 1 3 C-6.50332803 6.73689368 -13.80577287 9.24102978 -22 11 C-19.86099367 8.66714622 -17.83344647 7.2131241 -15 5.8125 C-14.319375 5.46832031 -13.63875 5.12414062 -12.9375 4.76953125 C-11 4 -11 4 -8 4 C-8 3.34 -8 2.68 -8 2 C-5.36 1.34 -2.72 0.68 0 0 Z " fill="#7A518F" transform="translate(306,9)"/>
<path d="M0 0 C0.66 0.33 1.32 0.66 2 1 C3.27368421 8.17894737 3.27368421 8.17894737 2 12 C1.34 12 0.68 12 0 12 C-0.12375 12.969375 -0.2475 13.93875 -0.375 14.9375 C-0.58125 15.948125 -0.7875 16.95875 -1 18 C-1.66 18.33 -2.32 18.66 -3 19 C-3.66 18.67 -4.32 18.34 -5 18 C-5.33 18.99 -5.66 19.98 -6 21 C-7.32 20.67 -8.64 20.34 -10 20 C-6.25 17 -6.25 17 -4 17 C-4 16.34 -4 15.68 -4 15 C-3.34 15 -2.68 15 -2 15 C-1.93941406 14.08476562 -1.87882812 13.16953125 -1.81640625 12.2265625 C-1.73261719 11.03804687 -1.64882813 9.84953125 -1.5625 8.625 C-1.48128906 7.44164063 -1.40007812 6.25828125 -1.31640625 5.0390625 C-1 2 -1 2 0 0 Z " fill="#79548B" transform="translate(426,116)"/>
<path d="M0 0 C1.859375 1.55078125 1.859375 1.55078125 3 3 C-3.96752071 3.86100541 -11.08512027 4.63623697 -18 3 C-18.33 2.34 -18.66 1.68 -19 1 C-12.72045205 -1.42618898 -6.58167356 -1.43372714 0 0 Z " fill="#784A90" transform="translate(218,163)"/>
<path d="M0 0 C5.61 0 11.22 0 17 0 C17 0.66 17 1.32 17 2 C18.093125 1.938125 19.18625 1.87625 20.3125 1.8125 C24 2 24 2 25.9375 3.5 C26.288125 3.995 26.63875 4.49 27 5 C23.42355152 6.2380014 20.66305234 5.74926071 17 5 C17 4.34 17 3.68 17 3 C16.34 3 15.68 3 15 3 C15 2.34 15 1.68 15 1 C13.64455078 1.2165625 13.64455078 1.2165625 12.26171875 1.4375 C11.08222656 1.623125 9.90273437 1.80875 8.6875 2 C6.92986328 2.2784375 6.92986328 2.2784375 5.13671875 2.5625 C2 3 2 3 -1 3 C-0.67 2.01 -0.34 1.02 0 0 Z " fill="#764E8C" transform="translate(121,131)"/>
<path d="M0 0 C2.64 0 5.28 0 8 0 C8 0.66 8 1.32 8 2 C9.093125 2.12375 10.18625 2.2475 11.3125 2.375 C15 3 15 3 18 5 C18 5.99 18 6.98 18 8 C17.01 8.33 16.02 8.66 15 9 C14.67 8.01 14.34 7.02 14 6 C12.989375 5.9175 11.97875 5.835 10.9375 5.75 C6.62213084 5.15993932 3.65261803 3.31083998 0 1 C0 0.67 0 0.34 0 0 Z " fill="#7C5892" transform="translate(450,126)"/>
<path d="M0 0 C0.99 0.33 1.98 0.66 3 1 C2.34 5.62 1.68 10.24 1 15 C1.66 15 2.32 15 3 15 C3.1875 17.875 3.1875 17.875 3 21 C2.01 21.66 1.02 22.32 0 23 C-1.3006046 19.0465749 -1.14720431 15.04899752 -1.125 10.9375 C-1.12886719 10.21755859 -1.13273438 9.49761719 -1.13671875 8.75585938 C-1.13080799 5.57291361 -1.01350713 3.04052138 0 0 Z " fill="#67477F" transform="translate(188,284)"/>
<path d="M0 0 C0.33 0.99 0.66 1.98 1 3 C1.66 3.33 2.32 3.66 3 4 C2.34 5.32 1.68 6.64 1 8 C0.34 8 -0.32 8 -1 8 C-0.67 8.99 -0.34 9.98 0 11 C-1.32 11 -2.64 11 -4 11 C-4.33 12.32 -4.66 13.64 -5 15 C-5.99 15 -6.98 15 -8 15 C-7.690625 14.236875 -7.38125 13.47375 -7.0625 12.6875 C-6.32106407 10.81210323 -5.63771783 8.91315348 -5 7 C-4.34 7 -3.68 7 -3 7 C-2.814375 6.1028125 -2.814375 6.1028125 -2.625 5.1875 C-2 3 -2 3 0 0 Z " fill="#7D5892" transform="translate(370,244)"/>
<path d="M0 0 C7.17264669 -0.60785141 7.17264669 -0.60785141 11.0625 2.25 C13 5 13 5 12.8125 7.3125 C12.544375 7.869375 12.27625 8.42625 12 9 C11.67 8.01 11.34 7.02 11 6 C10.29875 5.87625 9.5975 5.7525 8.875 5.625 C5.82343613 4.96161655 2.94659062 4.02788045 0 3 C0 2.01 0 1.02 0 0 Z " fill="#866B99" transform="translate(268,210)"/>
<path d="M0 0 C7.59 0 15.18 0 23 0 C22.67 0.99 22.34 1.98 22 3 C18.89635771 3.19696449 15.79207808 3.38093262 12.6875 3.5625 C11.36588867 3.64661133 11.36588867 3.64661133 10.01757812 3.73242188 C8.74624023 3.80493164 8.74624023 3.80493164 7.44921875 3.87890625 C6.27879028 3.94960327 6.27879028 3.94960327 5.0847168 4.02172852 C3 4 3 4 0 3 C0 2.01 0 1.02 0 0 Z " fill="#967BA3" transform="translate(355,179)"/>
<path d="M0 0 C0.99 0.33 1.98 0.66 3 1 C1.1875 3.5 1.1875 3.5 -1 6 C-1.99 6 -2.98 6 -4 6 C-4 7.98 -4 9.96 -4 12 C-3.34 12 -2.68 12 -2 12 C-1.67 14.31 -1.34 16.62 -1 19 C-1.99 18.67 -2.98 18.34 -4 18 C-4.33 18.66 -4.66 19.32 -5 20 C-5 19.01 -5 18.02 -5 17 C-5.30797843 15.09988305 -5.64391674 13.20419232 -6 11.3125 C-6.185625 10.31863281 -6.37125 9.32476562 -6.5625 8.30078125 C-6.706875 7.54152344 -6.85125 6.78226563 -7 6 C-5.5459375 5.62875 -5.5459375 5.62875 -4.0625 5.25 C-2.5465625 4.63125 -2.5465625 4.63125 -1 4 C-0.03122943 1.96756452 -0.03122943 1.96756452 0 0 Z " fill="#63417C" transform="translate(79,200)"/>
<path d="M0 0 C0.66 0 1.32 0 2 0 C3 3 3 3 2.25 5.5 C1.05258638 7.89482724 -0.04953498 9.21914063 -2 11 C-2.33 11.66 -2.66 12.32 -3 13 C-3.66 13 -4.32 13 -5 13 C-5 13.66 -5 14.32 -5 15 C-5.66 15 -6.32 15 -7 15 C-7 15.66 -7 16.32 -7 17 C-7.66 16.67 -8.32 16.34 -9 16 C-7.68 13.69 -6.36 11.38 -5 9 C-4.34 9 -3.68 9 -3 9 C-2.01 6.03 -1.02 3.06 0 0 Z " fill="#806192" transform="translate(351,274)"/>
<path d="M0 0 C0.99 0.66 1.98 1.32 3 2 C3 2.66 3 3.32 3 4 C1.1746875 3.9690625 1.1746875 3.9690625 -0.6875 3.9375 C-5.66306298 3.94627524 -9.60548042 4.55860024 -14 7 C-14 6.34 -14 5.68 -14 5 C-13.34 5 -12.68 5 -12 5 C-11.67 4.01 -11.34 3.02 -11 2 C-7.55348795 -0.51860496 -4.13795536 -0.30094221 0 0 Z " fill="#856798" transform="translate(310,221)"/>
<path d="M0 0 C1.299375 -0.03867188 1.299375 -0.03867188 2.625 -0.078125 C5 0.25 5 0.25 8 3.25 C1.4 3.58 -5.2 3.91 -12 4.25 C-7.62510213 0.9688266 -5.28362556 0.09435046 0 0 Z " fill="#7F5E92" transform="translate(280,100.75)"/>
<path d="M0 0 C-0.33 1.65 -0.66 3.3 -1 5 C-6.625 6.125 -6.625 6.125 -10 5 C-10.33 5.99 -10.66 6.98 -11 8 C-12.65 8 -14.3 8 -16 8 C-14.68 7.34 -13.36 6.68 -12 6 C-12 5.34 -12 4.68 -12 4 C-10.56570999 3.32645501 -9.12742943 2.66140299 -7.6875 2 C-6.88699219 1.62875 -6.08648437 1.2575 -5.26171875 0.875 C-3 0 -3 0 0 0 Z " fill="#714D88" transform="translate(112,134)"/>
<path d="M0 0 C0.66 0.33 1.32 0.66 2 1 C1.01 2.485 1.01 2.485 0 4 C0.33 4.99 0.66 5.98 1 7 C-1.36292656 9.52588702 -2.66462511 10.88820837 -6 12 C-5.67 9.69 -5.34 7.38 -5 5 C-4.34 5 -3.68 5 -3 5 C-3 4.34 -3 3.68 -3 3 C-2.34 3 -1.68 3 -1 3 C-0.67 2.01 -0.34 1.02 0 0 Z " fill="#7B5294" transform="translate(221,91)"/>
<path d="M0 0 C0.66 0 1.32 0 2 0 C2.45375 0.928125 2.9075 1.85625 3.375 2.8125 C4.9421633 6.03921389 4.9421633 6.03921389 7 9 C6.66906957 11.79155827 5.79958861 14.29028304 5 17 C3.54851359 14.2232434 2.38091317 11.46693581 1.375 8.5 C0.98441406 7.37078125 0.98441406 7.37078125 0.5859375 6.21875 C0 4 0 4 0 0 Z " fill="#78528B" transform="translate(24,157)"/>
<path d="M0 0 C0.66 0 1.32 0 2 0 C2 0.66 2 1.32 2 2 C3.093125 2.103125 4.18625 2.20625 5.3125 2.3125 C8.85559629 2.97307727 9.93243723 3.2027092 12 6 C11.67 6.33 11.34 6.66 11 7 C11.66 7.66 12.32 8.32 13 9 C9.88452559 8.32116957 7.14862279 7.25893098 4.25 5.9375 C3.45078125 5.57527344 2.6515625 5.21304688 1.828125 4.83984375 C1.22484375 4.56269531 0.6215625 4.28554687 0 4 C0 2.68 0 1.36 0 0 Z " fill="#7C5B93" transform="translate(308,131)"/>
<path d="M0 0 C0.33 0 0.66 0 1 0 C2.08360869 6.06820868 1.79074734 10.10106757 0 16 C-1.32 15.67 -2.64 15.34 -4 15 C-2.9318153 9.88634986 -1.76892524 4.92772031 0 0 Z " fill="#816290" transform="translate(454,354)"/>
<path d="M0 0 C0.66 0.99 1.32 1.98 2 3 C-0.70308112 6.80433639 -2.62060944 8.46129521 -7 10 C-7.33 10.66 -7.66 11.32 -8 12 C-9.32 11.67 -10.64 11.34 -12 11 C-6.25 6 -6.25 6 -4 6 C-3.566875 5.071875 -3.566875 5.071875 -3.125 4.125 C-2 2 -2 2 0 0 Z " fill="#816593" transform="translate(245,125)"/>
<path d="M0 0 C0.66 0 1.32 0 2 0 C0.75200979 5.67268276 -0.92496122 8.82557003 -5 13 C-5.99 13.33 -6.98 13.66 -8 14 C-6.62091009 8.48364034 -3.8578521 4.13041773 0 0 Z " fill="#7C5F8D" transform="translate(388,216)"/>
<path d="M0 0 C4.83766699 0.41465717 6.85646376 2.4198615 10 6 C10.33 6.66 10.66 7.32 11 8 C4.52443609 7.38909774 4.52443609 7.38909774 2.0625 5.5625 C1 4 1 4 1 2 C0.67 1.34 0.34 0.68 0 0 Z " fill="#785489" transform="translate(318,137)"/>
<path d="M0 0 C0.66 0 1.32 0 2 0 C1.29666462 2.97722547 0.41751463 5.85256543 -0.5625 8.75 C-0.96662109 9.94882812 -0.96662109 9.94882812 -1.37890625 11.171875 C-1.58386719 11.77515625 -1.78882813 12.3784375 -2 13 C-2.66 13 -3.32 13 -4 13 C-4.6875 10.6875 -4.6875 10.6875 -5 8 C-3.6875 6.5 -3.6875 6.5 -2 5 C-0.80972016 2.40084462 -0.80972016 2.40084462 0 0 Z " fill="#7A5C95" transform="translate(478,387)"/>
<path d="M0 0 C1.32 0.66 2.64 1.32 4 2 C3.5359375 2.8353125 3.5359375 2.8353125 3.0625 3.6875 C1.94238179 6.12540433 1.43962636 8.36224186 1 11 C0.34 11 -0.32 11 -1 11 C-1 12.65 -1 14.3 -1 16 C-1.66 15.67 -2.32 15.34 -3 15 C-2.35812082 9.86496656 -1.31727753 5.0056546 0 0 Z " fill="#8F749F" transform="translate(459,336)"/>
<path d="M0 0 C0.33 0 0.66 0 1 0 C0.95875 0.9075 0.9175 1.815 0.875 2.75 C0.99531556 5.8782046 1.3914708 7.38614006 3 10 C2.34 10 1.68 10 1 10 C0.67 11.65 0.34 13.3 0 15 C-0.33 14.34 -0.66 13.68 -1 13 C-1.66 13 -2.32 13 -3 13 C-2.68817931 11.58318366 -2.37551263 10.16655349 -2.0625 8.75 C-1.88847656 7.96109375 -1.71445312 7.1721875 -1.53515625 6.359375 C-1.052444 4.23121297 -0.53836822 2.11467158 0 0 Z " fill="#896D9B" transform="translate(491,232)"/>
<path d="M0 0 C1.32 0.33 2.64 0.66 4 1 C3.01 1.495 3.01 1.495 2 2 C1.87625 2.721875 1.7525 3.44375 1.625 4.1875 C0.82618701 7.78215847 -0.77248498 10.09748043 -3 13 C-3.66 13 -4.32 13 -5 13 C-4.39254603 8.14036821 -2.27241033 4.2594482 0 0 Z " fill="#826697" transform="translate(218,214)"/>
<path d="M0 0 C0.99 0 1.98 0 3 0 C3.12375 0.969375 3.2475 1.93875 3.375 2.9375 C3.684375 4.4534375 3.684375 4.4534375 4 6 C4.66 6.33 5.32 6.66 6 7 C5.67 9.64 5.34 12.28 5 15 C3.25050228 12.37575342 2.34610019 10.44272784 1.375 7.5 C0.98441406 6.33984375 0.98441406 6.33984375 0.5859375 5.15625 C0 3 0 3 0 0 Z " fill="#7F5799" transform="translate(82,345)"/>
<path d="M0 0 C1.13315882 3.39947645 0.86787136 4.07347148 -0.3125 7.3125 C-0.73402344 8.49585938 -0.73402344 8.49585938 -1.1640625 9.703125 C-1.43992188 10.46109375 -1.71578125 11.2190625 -2 12 C-2.391875 13.175625 -2.78375 14.35125 -3.1875 15.5625 C-3.455625 16.366875 -3.72375 17.17125 -4 18 C-4.99 18 -5.98 18 -7 18 C-6.67 16.35 -6.34 14.7 -6 13 C-5.34 13 -4.68 13 -4 13 C-3.896875 11.96875 -3.79375 10.9375 -3.6875 9.875 C-3.00872203 6.04916055 -1.88841205 3.36629975 0 0 Z " fill="#826893" transform="translate(232,270)"/>
<path d="M0 0 C0 0.66 0 1.32 0 2 C-0.68707031 2.12117187 -1.37414062 2.24234375 -2.08203125 2.3671875 C-3.43361328 2.61855469 -3.43361328 2.61855469 -4.8125 2.875 C-5.70582031 3.03742188 -6.59914063 3.19984375 -7.51953125 3.3671875 C-10.22727846 3.91188449 -10.22727846 3.91188449 -13 6 C-13.66 5.67 -14.32 5.34 -15 5 C-15 4.34 -15 3.68 -15 3 C-15.66 2.67 -16.32 2.34 -17 2 C-11.23918159 0.7017874 -5.91260345 -0.25706972 0 0 Z " fill="#957CA2" transform="translate(350,0)"/>
<path d="M0 0 C5.61 0 11.22 0 17 0 C17 0.66 17 1.32 17 2 C10.90367577 3.32528788 6.02232181 2.46619907 0 1 C0 0.67 0 0.34 0 0 Z " fill="#614177" transform="translate(202,199)"/>
<path d="M0 0 C1.98 0 3.96 0 6 0 C5.67 1.32 5.34 2.64 5 4 C-1.435 4.495 -1.435 4.495 -8 5 C-5.08235 3.0549 -3.37462715 2.54723683 0 2 C0 1.34 0 0.68 0 0 Z " fill="#7F5F92" transform="translate(379,194)"/>
<path d="M0 0 C0.33 0.99 0.66 1.98 1 3 C1.66 3 2.32 3 3 3 C2.67 5.31 2.34 7.62 2 10 C0.35 10.33 -1.3 10.66 -3 11 C-2.01 7.37 -1.02 3.74 0 0 Z " fill="#886A9A" transform="translate(487,246)"/>
<path d="M0 0 C0.99 0 1.98 0 3 0 C2.7834375 1.2684375 2.7834375 1.2684375 2.5625 2.5625 C1.9941203 6.03593149 1.48797607 9.51445662 1 13 C0.01 13 -0.98 13 -2 13 C-2.33 13.66 -2.66 14.32 -3 15 C-3.37470987 10.62838481 -2.21004723 8.68341205 0 5 C0.25196129 2.29046449 0.25196129 2.29046449 0 0 Z " fill="#66407C" transform="translate(416,163)"/>
<path d="M0 0 C0.99 0.33 1.98 0.66 3 1 C4.16796875 3.65234375 4.16796875 3.65234375 5.1875 6.9375 C5.70376953 8.55978516 5.70376953 8.55978516 6.23046875 10.21484375 C7 13 7 13 7 15 C6.34 15 5.68 15 5 15 C1.57142857 7.71428571 1.57142857 7.71428571 2 3 C1.34 3 0.68 3 0 3 C0 2.01 0 1.02 0 0 Z " fill="#795C8E" transform="translate(60,167)"/>
<path d="M0 0 C0.66 0.33 1.32 0.66 2 1 C1.67 2.65 1.34 4.3 1 6 C0.34 6 -0.32 6 -1 6 C-1.103125 6.763125 -1.20625 7.52625 -1.3125 8.3125 C-2.04364039 11.17059424 -2.76951913 12.15742885 -5 14 C-5.33 12.68 -5.66 11.36 -6 10 C-5.34 10 -4.68 10 -4 10 C-3.67 8.02 -3.34 6.04 -3 4 C-2.34 4 -1.68 4 -1 4 C-0.67 2.68 -0.34 1.36 0 0 Z " fill="#876B9A" transform="translate(265,166)"/>
<path d="M0 0 C1.04421849 2.71496807 0.96158564 4.21341309 0.4375 7.125 C-1 10 -1 10 -4.125 11.375 C-5.07375 11.58125 -6.0225 11.7875 -7 12 C-5.35 9.03 -3.7 6.06 -2 3 C-1.34 3 -0.68 3 0 3 C0 2.01 0 1.02 0 0 Z " fill="#826193" transform="translate(250,157)"/>
<path d="M0 0 C0.66 0.66 1.32 1.32 2 2 C1.9375 4.4375 1.9375 4.4375 1 7 C-1.5625 8.8125 -1.5625 8.8125 -4 10 C-4.33 8.68 -4.66 7.36 -5 6 C-4.34 6 -3.68 6 -3 6 C-3 5.01 -3 4.02 -3 3 C-2.34 3 -1.68 3 -1 3 C-0.67 2.01 -0.34 1.02 0 0 Z " fill="#7D5B93" transform="translate(410,142)"/>
<path d="M0 0 C2.27005139 3.40507709 2.18320175 4.21478421 1.75 8.125 C1.66234375 9.01445313 1.5746875 9.90390625 1.484375 10.8203125 C1.32453125 11.53960937 1.1646875 12.25890625 1 13 C0.01 13.495 0.01 13.495 -1 14 C-1.93402724 8.58264203 -2.20808081 5.19548425 0 0 Z " fill="#634378" transform="translate(563,101)"/>
<path d="M0 0 C1.8871875 0.061875 1.8871875 0.061875 3.8125 0.125 C4.1425 0.785 4.4725 1.445 4.8125 2.125 C0.3575 3.61 0.3575 3.61 -4.1875 5.125 C-4.1875 4.465 -4.1875 3.805 -4.1875 3.125 C-5.1775 3.455 -6.1675 3.785 -7.1875 4.125 C-7.1875 3.465 -7.1875 2.805 -7.1875 2.125 C-4.09861478 0.06574319 -3.47814073 -0.1140374 0 0 Z " fill="#876698" transform="translate(478.1875,2.875)"/>
<path d="M0 0 C0.33 0 0.66 0 1 0 C1 4.62 1 9.24 1 14 C0.01 13.67 -0.98 13.34 -2 13 C-2.625 10.6875 -2.625 10.6875 -3 8 C-2.34 7.01 -1.68 6.02 -1 5 C-0.61500109 3.34450469 -0.27206865 1.6777567 0 0 Z " fill="#825C96" transform="translate(205,289)"/>
<path d="M0 0 C0.66 0.33 1.32 0.66 2 1 C2 2.65 2 4.3 2 6 C1.34 6 0.68 6 0 6 C-0.33 8.31 -0.66 10.62 -1 13 C-1.66 13 -2.32 13 -3 13 C-2.88490339 11.58249437 -2.75746342 10.16598831 -2.625 8.75 C-2.55539063 7.96109375 -2.48578125 7.1721875 -2.4140625 6.359375 C-1.98492887 3.914123 -1.21399362 2.15163097 0 0 Z " fill="#7D5D90" transform="translate(196,256)"/>
<path d="M0 0 C0.66 0.33 1.32 0.66 2 1 C1.34 2.98 0.68 4.96 0 7 C-0.66 7 -1.32 7 -2 7 C-2.33 8.32 -2.66 9.64 -3 11 C-4.1875 8.75 -4.1875 8.75 -5 6 C-3.75 3.6875 -3.75 3.6875 -2 2 C-1.34 2 -0.68 2 0 2 C0 1.34 0 0.68 0 0 Z " fill="#7D5A92" transform="translate(89,184)"/>
<path d="M0 0 C1 2 1 2 0.25 5 C-1 8 -1 8 -4 10 C-4.99 10 -5.98 10 -7 10 C-6.52727227 5.74545047 -4.03562624 3.80795427 -1 1 C-0.67 0.67 -0.34 0.34 0 0 Z " fill="#826293" transform="translate(212,101)"/>
<path d="M0 0 C0.33 0 0.66 0 1 0 C1.22181406 2.43695715 1.42791119 4.873526 1.625 7.3125 C1.68945312 8.00279297 1.75390625 8.69308594 1.8203125 9.40429688 C2.11802847 13.2559972 2.20763723 14.68854416 0 18 C-0.96604701 14.75684218 -1.13419024 11.81491334 -1.125 8.4375 C-1.12757812 7.48746094 -1.13015625 6.53742188 -1.1328125 5.55859375 C-1 3 -1 3 0 0 Z " fill="#836A92" transform="translate(10,98)"/>
<path d="M0 0 C0.99 1.32 1.98 2.64 3 4 C2.01 6.31 1.02 8.62 0 11 C-1.32 10.34 -2.64 9.68 -4 9 C-2.68 6.03 -1.36 3.06 0 0 Z " fill="#805694" transform="translate(307,281)"/>
<path d="M0 0 C2.50360992 4.62204909 5 9.69950655 5 15 C4.34 15 3.68 15 3 15 C2.29911844 13.25531628 1.61475991 11.50398839 0.9375 9.75 C0.55464844 8.77546875 0.17179687 7.8009375 -0.22265625 6.796875 C-1.01113787 3.95992605 -1.02437812 2.70590448 0 0 Z " fill="#846895" transform="translate(86,245)"/>
<path d="M0 0 C1.32 0.99 2.64 1.98 4 3 C2.25 7.875 2.25 7.875 0 9 C-1.76462683 5.91190305 -2 4.76687864 -2 1 C-1.34 0.67 -0.68 0.34 0 0 Z " fill="#74508C" transform="translate(411,205)"/>
<path d="M0 0 C0.66 0.99 1.32 1.98 2 3 C-0.05127045 6.9945793 -1.88912162 9.10267152 -6 11 C-6.66 10.67 -7.32 10.34 -8 10 C-7.360625 9.401875 -6.72125 8.80375 -6.0625 8.1875 C-3.79689611 6.09189663 -3.79689611 6.09189663 -3 3 C-2.34 3 -1.68 3 -1 3 C-0.67 2.01 -0.34 1.02 0 0 Z " fill="#76578C" transform="translate(470,7)"/>
<path d="M0 0 C5.28 0 10.56 0 16 0 C15.67 0.99 15.34 1.98 15 3 C4.44191344 3.3690205 4.44191344 3.3690205 0 1 C0 0.67 0 0.34 0 0 Z " fill="#9683A6" transform="translate(232,348)"/>
<path d="M0 0 C0.33 0 0.66 0 1 0 C0.57045059 6.25107435 -0.01401507 12.04204521 -2 18 C-2.66 17.67 -3.32 17.34 -4 17 C-3.67 14.36 -3.34 11.72 -3 9 C-2.34 9 -1.68 9 -1 9 C-0.67 6.03 -0.34 3.06 0 0 Z " fill="#63427F" transform="translate(524,232)"/>
<path d="M0 0 C1.26950234 3.0006419 0.98068499 4.05184556 -0.1875 7.1875 C-2 10 -2 10 -4.1875 10.875 C-5.0846875 10.936875 -5.0846875 10.936875 -6 11 C-5.34 9.02 -4.68 7.04 -4 5 C-3.34 5 -2.68 5 -2 5 C-1.34 3.35 -0.68 1.7 0 0 Z " fill="#826190" transform="translate(399,198)"/>
<path d="M0 0 C0.99 1.32 1.98 2.64 3 4 C0.63707344 6.52588702 -0.66462511 7.88820837 -4 9 C-4 7.68 -4 6.36 -4 5 C-3.34 5 -2.68 5 -2 5 C-2 4.01 -2 3.02 -2 2 C-1.34 2 -0.68 2 0 2 C0 1.34 0 0.68 0 0 Z " fill="#826091" transform="translate(198,116)"/>
<path d="M0 0 C1.32 0.99 2.64 1.98 4 3 C2.375 9.75 2.375 9.75 -1 12 C-1.08159574 7.83861737 -0.98248524 4.0527516 0 0 Z " fill="#84639A" transform="translate(528,110)"/>
<path d="M0 0 C1.96301592 3.50538557 2.95902388 7.13351728 4 11 C3.01 10.67 2.02 10.34 1 10 C1 9.34 1 8.68 1 8 C0.34 7.67 -0.32 7.34 -1 7 C-1.625 4.4375 -1.625 4.4375 -2 2 C-1.34 2 -0.68 2 0 2 C0 1.34 0 0.68 0 0 Z " fill="#75578E" transform="translate(125,370)"/>
<path d="M0 0 C1.32 0.33 2.64 0.66 4 1 C3.67 1.99 3.34 2.98 3 4 C2.34 4 1.68 4 1 4 C0.67 5.65 0.34 7.3 0 9 C-0.33 8.34 -0.66 7.68 -1 7 C-1.66 7 -2.32 7 -3 7 C-1.125 2.25 -1.125 2.25 0 0 Z " fill="#79578C" transform="translate(339,253)"/>
<path d="M0 0 C0 0.33 0 0.66 0 1 C-3.98060777 2.17076699 -7.91621717 3.25749403 -12 4 C-12.33 4.99 -12.66 5.98 -13 7 C-13.33 6.01 -13.66 5.02 -14 4 C-13.01 3.67 -12.02 3.34 -11 3 C-11 2.34 -11 1.68 -11 1 C-7.2297564 -1.56376565 -4.32597804 -0.83191885 0 0 Z " fill="#7E658C" transform="translate(288,148)"/>
<path d="M0 0 C5.61 0 11.22 0 17 0 C17 0.33 17 0.66 17 1 C14.56281065 1.33575056 12.12529385 1.66869285 9.6875 2 C8.65206055 2.14308594 8.65206055 2.14308594 7.59570312 2.2890625 C4.70352927 2.68027442 1.92235023 3 -1 3 C-0.67 2.01 -0.34 1.02 0 0 Z " fill="#7E6293" transform="translate(121,131)"/>
<path d="M0 0 C0.66 1.32 1.32 2.64 2 4 C2.66 4 3.32 4 4 4 C4.33 3.01 4.66 2.02 5 1 C5.33 1.99 5.66 2.98 6 4 C4.59554165 6.2636564 2.8032087 8.0208685 1 10 C-0.80411967 7.24075815 -1.0127245 6.11027897 -0.625 2.75 C-0.41875 1.8425 -0.2125 0.935 0 0 Z " fill="#84649C" transform="translate(208,125)"/>
<path d="M0 0 C2 1 2 1 2.875 3 C3.06447394 7.54737452 1.02694699 11.00700143 -1 15 C-1.66 15 -2.32 15 -3 15 C-2.67 13.02 -2.34 11.04 -2 9 C-1.34 9 -0.68 9 0 9 C0 6.03 0 3.06 0 0 Z " fill="#6D4D83" transform="translate(283,274)"/>
<path d="M0 0 C0.33 0 0.66 0 1 0 C1 1.65 1 3.3 1 5 C0.34 5 -0.32 5 -1 5 C-1.103125 5.598125 -1.20625 6.19625 -1.3125 6.8125 C-2.08876455 9.28243264 -3.07088921 10.32251235 -5 12 C-5.66 11.67 -6.32 11.34 -7 11 C-5.68 8.69 -4.36 6.38 -3 4 C-2.34 4 -1.68 4 -1 4 C-0.67 2.68 -0.34 1.36 0 0 Z " fill="#8F6EA0" transform="translate(329,240)"/>
<path d="M0 0 C0.99 0.33 1.98 0.66 3 1 C2.69381595 4.67420866 2.24228216 5.78135513 -0.5625 8.3125 C-1.366875 8.869375 -2.17125 9.42625 -3 10 C-3.33 9.34 -3.66 8.68 -4 8 C-3.22265625 6.0546875 -3.22265625 6.0546875 -2.0625 3.875 C-1.49208984 2.78832031 -1.49208984 2.78832031 -0.91015625 1.6796875 C-0.60980469 1.12539063 -0.30945313 0.57109375 0 0 Z " fill="#79598C" transform="translate(440,50)"/>
<path d="M0 0 C0.969375 0.144375 1.93875 0.28875 2.9375 0.4375 C7.28052169 1.06047442 11.63765234 1.53507859 16 2 C16 2.33 16 2.66 16 3 C11.05 3.33 6.1 3.66 1 4 C1.66 3.67 2.32 3.34 3 3 C3 2.34 3 1.68 3 1 C2.01 0.67 1.02 0.34 0 0 Z " fill="#88619F" transform="translate(136,396)"/>
<path d="M0 0 C0.66 1.32 1.32 2.64 2 4 C0.625 7.75 0.625 7.75 -1 11 C-1.99 10.34 -2.98 9.68 -4 9 C-2.68 6.03 -1.36 3.06 0 0 Z " fill="#8B719D" transform="translate(302,291)"/>
<path d="M0 0 C0.33 0 0.66 0 1 0 C1.32613618 4.67461851 0.70582788 7.16674383 -2 11 C-2.99 10.34 -3.98 9.68 -5 9 C-3.35 6.03 -1.7 3.06 0 0 Z " fill="#9472A3" transform="translate(341,291)"/>
<path d="M0 0 C0.66 0.99 1.32 1.98 2 3 C0.55922954 6.36179774 -1.24750021 8.59156268 -4 11 C-4.66 11 -5.32 11 -6 11 C-4.54955729 6.89041233 -2.48889248 3.56741255 0 0 Z " fill="#836295" transform="translate(292,232)"/>
<path d="M0 0 C0.66 1.32 1.32 2.64 2 4 C1.67 4.66 1.34 5.32 1 6 C1.66 6 2.32 6 3 6 C2.67 6.99 2.34 7.98 2 9 C0.02 9 -1.96 9 -4 9 C-2.68 6.03 -1.36 3.06 0 0 Z " fill="#77558C" transform="translate(412,175)"/>
<path d="M0 0 C0.33 0.99 0.66 1.98 1 3 C-0.21484375 5.04296875 -0.21484375 5.04296875 -1.9375 7.1875 C-2.50339844 7.90292969 -3.06929688 8.61835938 -3.65234375 9.35546875 C-4.09707031 9.89816406 -4.54179687 10.44085938 -5 11 C-5.66 9.68 -6.32 8.36 -7 7 C-6.01 6.67 -5.02 6.34 -4 6 C-3.26676204 3.98491642 -3.26676204 3.98491642 -3 2 C-2.01 2 -1.02 2 0 2 C0 1.34 0 0.68 0 0 Z " fill="#9870A8" transform="translate(416,165)"/>
<path d="M0 0 C0.33 0 0.66 0 1 0 C1 2.31 1 4.62 1 7 C0.01 7.495 0.01 7.495 -1 8 C-1.66 7.67 -2.32 7.34 -3 7 C-3.33 7.99 -3.66 8.98 -4 10 C-5.32 9.67 -6.64 9.34 -8 9 C-4.25 6 -4.25 6 -2 6 C-2 5.34 -2 4.68 -2 4 C-1.34 4 -0.68 4 0 4 C0 2.68 0 1.36 0 0 Z " fill="#876996" transform="translate(424,127)"/>
<path d="M0 0 C0.33 0.99 0.66 1.98 1 3 C1.66 3 2.32 3 3 3 C2.67 4.65 2.34 6.3 2 8 C0.35 7.67 -1.3 7.34 -3 7 C-2.01 4.69 -1.02 2.38 0 0 Z " fill="#7B5691" transform="translate(378,231)"/>
<path d="M0 0 C0.99 0 1.98 0 3 0 C3.33 4.29 3.66 8.58 4 13 C1.12420019 8.68630028 0 5.19265239 0 0 Z " fill="#9F85AE" transform="translate(16,132)"/>
<path d="M0 0 C2.64 0 5.28 0 8 0 C8 0.66 8 1.32 8 2 C8.99 2.33 9.98 2.66 11 3 C10.01 3 9.02 3 8 3 C7.67 3.66 7.34 4.32 7 5 C3.535 3.02 3.535 3.02 0 1 C0 0.67 0 0.34 0 0 Z " fill="#826194" transform="translate(450,126)"/>
<path d="M0 0 C2 1 2 1 2.8515625 3.50390625 C3.10679688 4.51324219 3.36203125 5.52257812 3.625 6.5625 C3.88539062 7.57441406 4.14578125 8.58632812 4.4140625 9.62890625 C4.60742188 10.41136719 4.80078125 11.19382813 5 12 C2 11 2 11 0.25 7.6875 C-1.33072237 3.02436902 -1.33072237 3.02436902 0 0 Z " fill="#7C5D8B" transform="translate(48,124)"/>
<path d="M0 0 C2.03819846 2.03819846 2.67841059 3.29417798 3.6875 5.9375 C3.95949219 6.62714844 4.23148437 7.31679688 4.51171875 8.02734375 C5 10 5 10 4 13 C0.88303339 8.66335081 0.44033187 5.19591612 0 0 Z " fill="#6A4C7D" transform="translate(104,411)"/>
<path d="M0 0 C0.33 0.66 0.66 1.32 1 2 C1.66 2 2.32 2 3 2 C2.34 4.31 1.68 6.62 1 9 C0.01 8.67 -0.98 8.34 -2 8 C-1.47731534 5.23723823 -0.89130413 2.6739124 0 0 Z " fill="#82629A" transform="translate(464,322)"/>
<path d="M0 0 C0.99 0.33 1.98 0.66 3 1 C3 1.66 3 2.32 3 3 C1.35 3.66 -0.3 4.32 -2 5 C-2 5.66 -2 6.32 -2 7 C-1.34 7.33 -0.68 7.66 0 8 C-0.66 8 -1.32 8 -2 8 C-2.33 8.66 -2.66 9.32 -3 10 C-4.125 5.25 -4.125 5.25 -3 3 C-2.34 3 -1.68 3 -1 3 C-0.67 2.01 -0.34 1.02 0 0 Z " fill="#8D6E9F" transform="translate(337,231)"/>
<path d="M0 0 C0.99 0.33 1.98 0.66 3 1 C2.01 1 1.02 1 0 1 C0 0.67 0 0.34 0 0 Z M2 3 C0.8125 5 0.8125 5 -1 7 C-3.6875 7.25 -3.6875 7.25 -6 7 C-3.97675095 2.51994854 -2.79569304 1.56129209 2 3 Z " fill="#76528D" transform="translate(299,225)"/>
<path d="M0 0 C2 1 2 1 2.66796875 2.7421875 C2.92513672 3.79792969 2.92513672 3.79792969 3.1875 4.875 C3.36667969 5.57367188 3.54585937 6.27234375 3.73046875 6.9921875 C4 9 4 9 3 12 C2.34 12 1.68 12 1 12 C0.67 8.04 0.34 4.08 0 0 Z " fill="#644275" transform="translate(54,145)"/>
<path d="M0 0 C1.4606285 2.64738916 2 3.89448334 2 7 C1.04788888 9.02323613 0.05226728 11.02699884 -1 13 C-2.07310858 9.72814447 -1.89263102 7.57052408 -1.0625 4.25 C-0.86785156 3.45078125 -0.67320312 2.6515625 -0.47265625 1.828125 C-0.31667969 1.22484375 -0.16070313 0.6215625 0 0 Z " fill="#856592" transform="translate(525,120)"/>
<path d="M0 0 C0.33 0.66 0.66 1.32 1 2 C1.66 2 2.32 2 3 2 C3 4.64 3 7.28 3 10 C2.01 10.495 2.01 10.495 1 11 C-0.28317892 7.15046324 -0.06643637 4.05261865 0 0 Z " fill="#7D5C94" transform="translate(427,104)"/>
<path d="M0 0 C0.66 0.66 1.32 1.32 2 2 C1.625 4.625 1.625 4.625 1 7 C-0.98 7.66 -2.96 8.32 -5 9 C-4.01 7.02 -3.02 5.04 -2 3 C-1.34 3 -0.68 3 0 3 C0 2.01 0 1.02 0 0 Z " fill="#826794" transform="translate(458,22)"/>
<path d="M0 0 C0.66 0.33 1.32 0.66 2 1 C2.75 3.4375 2.75 3.4375 3 6 C2.34 6.66 1.68 7.32 1 8 C0.01 8 -0.98 8 -2 8 C-1.125 2.25 -1.125 2.25 0 0 Z " fill="#816092" transform="translate(297,302)"/>
<path d="M0 0 C2 3 2 3 2 6 C1.34 6 0.68 6 0 6 C-0.66 7.32 -1.32 8.64 -2 10 C-2.93423645 6.98968256 -3.04449911 6.13349732 -2 3 C-1.34 3 -0.68 3 0 3 C0 2.01 0 1.02 0 0 Z " fill="#826294" transform="translate(313,230)"/>
<path d="M0 0 C0.99 0.33 1.98 0.66 3 1 C1.1875 3.5 1.1875 3.5 -1 6 C-1.99 6 -2.98 6 -4 6 C-4 6.99 -4 7.98 -4 9 C-4.66 9 -5.32 9 -6 9 C-6.33 8.01 -6.66 7.02 -7 6 C-5.5459375 5.62875 -5.5459375 5.62875 -4.0625 5.25 C-2.5465625 4.63125 -2.5465625 4.63125 -1 4 C-0.03122943 1.96756452 -0.03122943 1.96756452 0 0 Z " fill="#5B3D6F" transform="translate(79,200)"/>
<path d="M0 0 C0.99 0.33 1.98 0.66 3 1 C2.6875 2.875 2.6875 2.875 2 5 C1.01 5.66 0.02 6.32 -1 7 C-1.99 6.34 -2.98 5.68 -4 5 C-2.68 3.35 -1.36 1.7 0 0 Z " fill="#9062A3" transform="translate(393,166)"/>
<path d="M0 0 C1.98 0 3.96 0 6 0 C6 0.66 6 1.32 6 2 C6.66 2 7.32 2 8 2 C7 4 7 4 5.125 4.75 C3 5 3 5 0 3 C0 2.01 0 1.02 0 0 Z " fill="#835C9A" transform="translate(472,138)"/>
<path d="M0 0 C0.6875 1.6875 0.6875 1.6875 1 4 C-0.3125 6.75 -0.3125 6.75 -2 9 C-2.66 9 -3.32 9 -4 9 C-3.38461538 3.46153846 -3.38461538 3.46153846 -1.4375 1.125 C-0.963125 0.75375 -0.48875 0.3825 0 0 Z " fill="#6B4881" transform="translate(15,93)"/>
<path d="M0 0 C0.33 0 0.66 0 1 0 C1 1.65 1 3.3 1 5 C0.34 5 -0.32 5 -1 5 C-1.33 5.99 -1.66 6.98 -2 8 C-4.0625 8.6875 -4.0625 8.6875 -6 9 C-4.16460671 5.8536115 -2.30386756 2.82747382 0 0 Z " fill="#846D98" transform="translate(245,63)"/>
<path d="M0 0 C1.07349791 4.29399165 0.79682816 5.19495213 -1 9 C-2.32 8.34 -3.64 7.68 -5 7 C-3.35 4.69 -1.7 2.38 0 0 Z " fill="#86629A" transform="translate(260,43)"/>
<path d="M0 0 C0.66 0.33 1.32 0.66 2 1 C2.25 4.3125 2.25 4.3125 2 8 C0.68 8.99 -0.64 9.98 -2 11 C-1.34 7.37 -0.68 3.74 0 0 Z " fill="#6A437D" transform="translate(485,9)"/>
<path d="M0 0 C0.66 1.32 1.32 2.64 2 4 C1.01 5.32 0.02 6.64 -1 8 C-3 5 -3 5 -2.75 2.875 C-2 1 -2 1 0 0 Z " fill="#67447F" transform="translate(99,386)"/>
<path d="M0 0 C0.66 0.33 1.32 0.66 2 1 C1.34 2.32 0.68 3.64 0 5 C-0.66 5 -1.32 5 -2 5 C-2 5.66 -2 6.32 -2 7 C-2.66 7 -3.32 7 -4 7 C-4 7.66 -4 8.32 -4 9 C-4.66 8.67 -5.32 8.34 -6 8 C-2.25 1.125 -2.25 1.125 0 0 Z " fill="#865F9B" transform="translate(348,282)"/>
<path d="M0 0 C0.33 0 0.66 0 1 0 C0.54177532 3.46941546 0.10868317 6.67395049 -1 10 C-3.0625 11.1875 -3.0625 11.1875 -5 12 C-3.68938409 7.76570244 -2.05643741 3.92592596 0 0 Z " fill="#9C81A7" transform="translate(265,278)"/>
<path d="M0 0 C0.66 0.99 1.32 1.98 2 3 C0.35 5.97 -1.3 8.94 -3 12 C-3.66 11.67 -4.32 11.34 -5 11 C-4.34 9.35 -3.68 7.7 -3 6 C-2.34 6 -1.68 6 -1 6 C-0.67 4.02 -0.34 2.04 0 0 Z " fill="#7C598E" transform="translate(225,237)"/>
<path d="M0 0 C0.99 0.99 1.98 1.98 3 3 C2.34 4.32 1.68 5.64 1 7 C0.01 6.67 -0.98 6.34 -2 6 C-2.33 6.66 -2.66 7.32 -3 8 C-2.67 6.35 -2.34 4.7 -2 3 C-1.34 3 -0.68 3 0 3 C0 2.01 0 1.02 0 0 Z " fill="#8D699B" transform="translate(250,236)"/>
<path d="M0 0 C0.66 0 1.32 0 2 0 C2.22036864 3.85645121 1.60355101 6.49223216 0 10 C-0.66 10 -1.32 10 -2 10 C-2 8.02 -2 6.04 -2 4 C-1.34 4 -0.68 4 0 4 C0 2.68 0 1.36 0 0 Z " fill="#6B4780" transform="translate(433,166)"/>
<path d="M0 0 C0.66 0 1.32 0 2 0 C2.33 1.65 2.66 3.3 3 5 C1.02 5.99 -0.96 6.98 -3 8 C-1.125 1.125 -1.125 1.125 0 0 Z " fill="#885D97" transform="translate(264,132)"/>
<path d="M0 0 C0.66 0.33 1.32 0.66 2 1 C2.99 1 3.98 1 5 1 C3.70700306 3.88437779 2.34058637 5.87219421 0 8 C-0.38063221 5.6739143 -0.71269945 3.33944736 -1 1 C-0.67 0.67 -0.34 0.34 0 0 Z " fill="#6B477F" transform="translate(266,59)"/>
<path d="M0 0 C3.3 0 6.6 0 10 0 C9.01 1.485 9.01 1.485 8 3 C4.375 3.1875 4.375 3.1875 1 3 C0.67 2.01 0.34 1.02 0 0 Z " fill="#68457B" transform="translate(235,331)"/>
<path d="M0 0 C0.33 1.32 0.66 2.64 1 4 C0.01 4 -0.98 4 -2 4 C-2 3.34 -2 2.68 -2 2 C-5.3 2 -8.6 2 -12 2 C-12 1.67 -12 1.34 -12 1 C-7.95858806 0.36605303 -4.0934693 -0.12404452 0 0 Z " fill="#8E7299" transform="translate(218,328)"/>
<path d="M0 0 C1.32 0.33 2.64 0.66 4 1 C3.01 1.495 3.01 1.495 2 2 C2 2.99 2 3.98 2 5 C2.99 5.33 3.98 5.66 5 6 C4.34 7.32 3.68 8.64 3 10 C0.70366176 6.55549263 0.45983515 4.06187717 0 0 Z " fill="#66487C" transform="translate(65,288)"/>
<path d="M0 0 C0.99 0.33 1.98 0.66 3 1 C1.02 5.455 1.02 5.455 -1 10 C-1.33 10 -1.66 10 -2 10 C-2.25 3.375 -2.25 3.375 0 0 Z " fill="#866A97" transform="translate(328,276)"/>
<path d="M0 0 C0.66 1.32 1.32 2.64 2 4 C0.7260411 6.03833424 -0.61061923 8.03852126 -2 10 C-2.66 10 -3.32 10 -4 10 C-2.8905928 6.51329166 -1.73662334 3.22515763 0 0 Z " fill="#947AA5" transform="translate(272,264)"/>
<path d="M0 0 C2.1519437 3.22791555 2.20086443 4.28400809 2 8 C2.66 8 3.32 8 4 8 C3.67 9.65 3.34 11.3 3 13 C2.67 12.01 2.34 11.02 2 10 C1.34 9.67 0.68 9.34 0 9 C0 6.03 0 3.06 0 0 Z " fill="#7A6088" transform="translate(82,233)"/>
<path d="M0 0 C-0.49831724 3.68754757 -1.10067643 5.60490662 -4 8 C-4.33 6.02 -4.66 4.04 -5 2 C-2 0 -2 0 0 0 Z " fill="#67437B" transform="translate(270,238)"/>
<path d="M0 0 C0.33 0 0.66 0 1 0 C1 2.31 1 4.62 1 7 C-0.65 7.33 -2.3 7.66 -4 8 C-2.68 5.36 -1.36 2.72 0 0 Z " fill="#7E628E" transform="translate(255,228)"/>
<path d="M0 0 C3.77300358 1.0197307 4.80206144 1.65872662 6.8125 5.125 C7.204375 6.07375 7.59625 7.0225 8 8 C7.01 8 6.02 8 5 8 C4.67 6.68 4.34 5.36 4 4 C3.34 4 2.68 4 2 4 C1.34 2.68 0.68 1.36 0 0 Z " fill="#836C95" transform="translate(465,153)"/>
<path d="M0 0 C2.96875 -0.36328125 2.96875 -0.36328125 6.5 -0.3125 C8.24796875 -0.30669922 8.24796875 -0.30669922 10.03125 -0.30078125 C13 0 13 0 15 2 C6.585 2.495 6.585 2.495 -2 3 C-1.34 2.01 -0.68 1.02 0 0 Z " fill="#613A7C" transform="translate(121,147)"/>
<path d="M0 0 C0.66 0.66 1.32 1.32 2 2 C1.625 4.125 1.625 4.125 1 6 C0.34 6 -0.32 6 -1 6 C-1 8.31 -1 10.62 -1 13 C-1.33 13 -1.66 13 -2 13 C-2.16682272 8.07872966 -2.24828052 4.49656104 0 0 Z " fill="#6A4683" transform="translate(184,138)"/>
<path d="M0 0 C0.66 0.33 1.32 0.66 2 1 C0.99806563 4.79303725 0.18975773 7.71536341 -2 11 C-2.28571429 3.57142857 -2.28571429 3.57142857 0 0 Z " fill="#866B9C" transform="translate(289,117)"/>
<path d="M0 0 C1.485 0.99 1.485 0.99 3 2 C5.32387947 2.39387788 7.65793749 2.73486085 10 3 C9 5 9 5 7.25 5.8125 C4.0237884 6.08135097 2.50719024 4.95003686 0 3 C0 2.01 0 1.02 0 0 Z " fill="#634177" transform="translate(207,308)"/>
<path d="M0 0 C0.66 0.33 1.32 0.66 2 1 C1.21302675 4.41021743 0.12880057 7.68885166 -1 11 C-2.1875 9.4375 -2.1875 9.4375 -3 7 C-1.625 3.25 -1.625 3.25 0 0 Z " fill="#8A729A" transform="translate(279,288)"/>
<path d="M0 0 C2.97 0.495 2.97 0.495 6 1 C5.34 2.32 4.68 3.64 4 5 C2.68 5 1.36 5 0 5 C0 3.35 0 1.7 0 0 Z " fill="#7B5190" transform="translate(256,254)"/>
<path d="M0 0 C0.33 0.66 0.66 1.32 1 2 C1.99 1.67 2.98 1.34 4 1 C2.125 5.75 2.125 5.75 1 8 C0.34 8 -0.32 8 -1 8 C-1.125 2.25 -1.125 2.25 0 0 Z " fill="#7E5694" transform="translate(282,247)"/>
<path d="M0 0 C0.33 0 0.66 0 1 0 C1.49230769 6.4 1.49230769 6.4 -1 9.4375 C-1.99 10.2109375 -1.99 10.2109375 -3 11 C-3 8.04725901 -2.56108169 6.50941597 -1.5 3.8125 C-1.2215625 3.09707031 -0.943125 2.38164062 -0.65625 1.64453125 C-0.33140625 0.83048828 -0.33140625 0.83048828 0 0 Z " fill="#876D96" transform="translate(203,241)"/>
<path d="M0 0 C0.99 0.33 1.98 0.66 3 1 C1.70700306 3.88437779 0.34058637 5.87219421 -2 8 C-2 6.02 -2 4.04 -2 2 C-1.34 2 -0.68 2 0 2 C0 1.34 0 0.68 0 0 Z " fill="#82679B" transform="translate(345,246)"/>
<path d="M0 0 C0.66 0.33 1.32 0.66 2 1 C0.82744291 4.33727786 -0.18868404 6.77437487 -3 9 C-3.66 9 -4.32 9 -5 9 C-3.7508258 5.54074837 -2.32472205 2.85306797 0 0 Z " fill="#866696" transform="translate(265,212)"/>
<path d="M0 0 C1.32 0 2.64 0 4 0 C3.67 1.65 3.34 3.3 3 5 C3.99 5.33 4.98 5.66 6 6 C3.36 5.67 0.72 5.34 -2 5 C-1.34 4.34 -0.68 3.68 0 3 C0 2.01 0 1.02 0 0 Z " fill="#9773AA" transform="translate(353,193)"/>
<path d="M0 0 C2 3 2 3 2 6 C2.66 6.33 3.32 6.66 4 7 C3.01 7.99 2.02 8.98 1 10 C0.63883954 8.5225254 0.28624952 7.04295325 -0.0625 5.5625 C-0.25972656 4.73878906 -0.45695312 3.91507813 -0.66015625 3.06640625 C-0.82837891 2.04353516 -0.82837891 2.04353516 -1 1 C-0.67 0.67 -0.34 0.34 0 0 Z " fill="#846B95" transform="translate(32,180)"/>
<path d="M0 0 C4.75 1.875 4.75 1.875 7 3 C7 3.66 7 4.32 7 5 C4.69 4.67 2.38 4.34 0 4 C0 2.68 0 1.36 0 0 Z " fill="#6E467F" transform="translate(187,176)"/>
<path d="M0 0 C0.66 0.33 1.32 0.66 2 1 C2.59355614 3.64860427 2.74209269 6.29197322 3 9 C0.9375 7.3125 0.9375 7.3125 -1 5 C-0.75 2.25 -0.75 2.25 0 0 Z " fill="#8F6E9F" transform="translate(474,161)"/>
<path d="M0 0 C0.66 0 1.32 0 2 0 C0.55922954 3.36179774 -1.24750021 5.59156268 -4 8 C-4.66 8 -5.32 8 -6 8 C-6 7.01 -6 6.02 -6 5 C-5.01 4.67 -4.02 4.34 -3 4 C-1.99357052 2.67151309 -0.99307821 1.33849671 0 0 Z " fill="#613E77" transform="translate(108,154)"/>
<path d="M0 0 C3.35595828 0.59927826 5.37801226 1.84622436 8 4 C7.67 4.99 7.34 5.98 7 7 C5 5.625 5 5.625 3 4 C3 3.34 3 2.68 3 2 C2.01 2 1.02 2 0 2 C0 1.34 0 0.68 0 0 Z " fill="#6F538E" transform="translate(144,152)"/>
<path d="M0 0 C0.66 0 1.32 0 2 0 C2 1.32 2 2.64 2 4 C1.34 4 0.68 4 0 4 C0.33 4.99 0.66 5.98 1 7 C0.01 7.33 -0.98 7.66 -2 8 C-2.125 5.125 -2.125 5.125 -2 2 C-1.34 1.34 -0.68 0.68 0 0 Z " fill="#69487F" transform="translate(523,133)"/>
<path d="M0 0 C0.99 0.495 0.99 0.495 2 1 C2.4140625 3.50390625 2.4140625 3.50390625 2.625 6.5625 C2.69976562 7.57441406 2.77453125 8.58632812 2.8515625 9.62890625 C2.92503906 10.80259766 2.92503906 10.80259766 3 12 C2.67 10.68 2.34 9.36 2 8 C1.34 8 0.68 8 0 8 C0 5.36 0 2.72 0 0 Z " fill="#764F8C" transform="translate(442,105)"/>
<path d="M0 0 C0 3.92896395 -1.00299863 7.19893228 -2 11 C-2.33 11 -2.66 11 -3 11 C-3.75 7.75 -3.75 7.75 -4 4 C-2.0625 1.5625 -2.0625 1.5625 0 0 Z " fill="#784E8F" transform="translate(469,34)"/>
<path d="M0 0 C-3.44450737 2.29633824 -5.93812283 2.54016485 -10 3 C-10 2.01 -10 1.02 -10 0 C-6.33694766 -0.74926071 -3.57644848 -1.2380014 0 0 Z " fill="#6B4D7D" transform="translate(317,8)"/>
<path d="M0 0 C0.66 0 1.32 0 2 0 C2.66 2.97 3.32 5.94 4 9 C3.01 9.495 3.01 9.495 2 10 C0.39644899 6.49223216 -0.22036864 3.85645121 0 0 Z " fill="#795D90" transform="translate(129,385)"/>
<path d="M0 0 C0.99 0 1.98 0 3 0 C2.74438677 2.3431213 2.40729228 4.67843403 2 7 C1.01 7.495 1.01 7.495 0 8 C0 6.68 0 5.36 0 4 C-0.66 3.67 -1.32 3.34 -2 3 C-1.34 3 -0.68 3 0 3 C0 2.01 0 1.02 0 0 Z " fill="#7E649A" transform="translate(487,353)"/>
<path d="M0 0 C2 3 2 3 1.625 6.1875 C1.41875 7.115625 1.2125 8.04375 1 9 C-0.32 9 -1.64 9 -3 9 C-2.67 7.35 -2.34 5.7 -2 4 C-1.34 4 -0.68 4 0 4 C0 2.68 0 1.36 0 0 Z " fill="#8A729B" transform="translate(259,291)"/>
<path d="M0 0 C1.485 0.99 1.485 0.99 3 2 C3.1875 5.125 3.1875 5.125 3 8 C2.01 8.495 2.01 8.495 1 9 C-1.09230769 4.56923077 -1.09230769 4.56923077 -0.625 1.6875 C-0.41875 1.130625 -0.2125 0.57375 0 0 Z " fill="#825F96" transform="translate(479,272)"/>
<path d="M0 0 C1.25541557 3.76624671 0.37061958 5.37188934 -1 9 C-3 7 -3 7 -3.125 3.875 C-3.08375 2.92625 -3.0425 1.9775 -3 1 C-2.01 0.67 -1.02 0.34 0 0 Z " fill="#8B6F9A" transform="translate(518,259)"/>
<path d="M0 0 C1.32 0.33 2.64 0.66 4 1 C3.34 2.65 2.68 4.3 2 6 C0.68 6 -0.64 6 -2 6 C-1.34 4.02 -0.68 2.04 0 0 Z " fill="#816090" transform="translate(211,227)"/>
<path d="M0 0 C0.66 1.32 1.32 2.64 2 4 C2.66 4 3.32 4 4 4 C3.67 5.98 3.34 7.96 3 10 C0.64551835 7.44931155 0.01672076 6.28982642 -0.1875 2.75 C-0.125625 1.8425 -0.06375 0.935 0 0 Z " fill="#68477C" transform="translate(37,196)"/>
<path d="M0 0 C0.33 0.99 0.66 1.98 1 3 C-0.4375 5.1875 -0.4375 5.1875 -2 7 C-2.99 5.35 -3.98 3.7 -5 2 C-3.35 1.34 -1.7 0.68 0 0 Z " fill="#86559B" transform="translate(487,176)"/>
<path d="M0 0 C0.66 0.33 1.32 0.66 2 1 C2 2.65 2 4.3 2 6 C0.35 6.33 -1.3 6.66 -3 7 C-2.01 4.69 -1.02 2.38 0 0 Z " fill="#8B6A99" transform="translate(444,43)"/>
<path d="M0 0 C2 3 2 3 1.75 5.625 C1.5025 6.40875 1.255 7.1925 1 8 C0.01 8.495 0.01 8.495 -1 9 C-1.625 6.1875 -1.625 6.1875 -2 3 C-1.34 2.01 -0.68 1.02 0 0 Z " fill="#7A5291" transform="translate(461,18)"/>
<path d="M0 0 C0.98120464 3.05263664 0.98120464 4.94736336 0 8 C-1.32 7.67 -2.64 7.34 -4 7 C-3.67 5.35 -3.34 3.7 -3 2 C-2.34 2.33 -1.68 2.66 -1 3 C-0.67 2.01 -0.34 1.02 0 0 Z " fill="#7A578E" transform="translate(454,362)"/>
<path d="M0 0 C1.98 0 3.96 0 6 0 C6 0.33 6 0.66 6 1 C7.65 1.33 9.3 1.66 11 2 C11 2.33 11 2.66 11 3 C9.741875 3.020625 8.48375 3.04125 7.1875 3.0625 C6.47980469 3.07410156 5.77210938 3.08570313 5.04296875 3.09765625 C3 3 3 3 0 2 C0 1.34 0 0.68 0 0 Z " fill="#684780" transform="translate(202,326)"/>
<path d="M0 0 C0.66 0.33 1.32 0.66 2 1 C2.59355614 3.64860427 2.74209269 6.29197322 3 9 C2.34 9 1.68 9 1 9 C0.63877119 7.68942607 0.28619689 6.37646376 -0.0625 5.0625 C-0.35833984 3.96615234 -0.35833984 3.96615234 -0.66015625 2.84765625 C-0.77230469 2.23792969 -0.88445312 1.62820313 -1 1 C-0.67 0.67 -0.34 0.34 0 0 Z " fill="#62437A" transform="translate(105,308)"/>
<path d="M0 0 C1.31223496 3.93670488 0.24296256 6.12488144 -1 10 C-1.99 10 -2.98 10 -4 10 C-2.66666667 6.66666667 -1.33333333 3.33333333 0 0 Z " fill="#926A9C" transform="translate(317,260)"/>
<path d="M0 0 C1.125 1.75 1.125 1.75 2 4 C1.125 6.25 1.125 6.25 0 8 C-0.99 8 -1.98 8 -3 8 C-2.690625 7.236875 -2.38125 6.47375 -2.0625 5.6875 C-1.32106407 3.81210323 -0.63771783 1.91315348 0 0 Z " fill="#9877A9" transform="translate(365,251)"/>
<path d="M0 0 C0.68707555 2.49064888 1 4.37886292 1 7 C0.34 7 -0.32 7 -1 7 C-1.33 8.32 -1.66 9.64 -2 11 C-3 9 -3 9 -2.44140625 6.8359375 C-2.15136719 6.02382812 -1.86132812 5.21171875 -1.5625 4.375 C-1.27503906 3.55773437 -0.98757813 2.74046875 -0.69140625 1.8984375 C-0.46324219 1.27195313 -0.23507812 0.64546875 0 0 Z " fill="#68437E" transform="translate(494,228)"/>
<path d="M0 0 C0.66 0.66 1.32 1.32 2 2 C0.54364629 2.22174933 -0.91522956 2.42698698 -2.375 2.625 C-3.18710937 2.74101562 -3.99921875 2.85703125 -4.8359375 2.9765625 C-5.55007813 2.98429688 -6.26421875 2.99203125 -7 3 C-7.66 2.34 -8.32 1.68 -9 1 C-5.98675805 -0.50662097 -3.31713623 -0.17770373 0 0 Z " fill="#9E88B0" transform="translate(310,221)"/>
<path d="M0 0 C0.99 0.33 1.98 0.66 3 1 C3.33 3.97 3.66 6.94 4 10 C1.16625119 6.79663178 0.4794463 4.21912747 0 0 Z " fill="#624177" transform="translate(50,135)"/>
<path d="M0 0 C0 0.99 0 1.98 0 3 C-0.66 3 -1.32 3 -2 3 C-2.33 3.99 -2.66 4.98 -3 6 C-3.66 5.67 -4.32 5.34 -5 5 C-5 3.68 -5 2.36 -5 1 C-2 0 -2 0 0 0 Z " fill="#7D6095" transform="translate(261,73)"/>
<path d="M0 0 C0.99 0.33 1.98 0.66 3 1 C0.525 4.465 0.525 4.465 -2 8 C-2.66 6.68 -3.32 5.36 -4 4 C-3.01 4 -2.02 4 -1 4 C-0.67 2.68 -0.34 1.36 0 0 Z " fill="#886D9F" transform="translate(278,48)"/>
<path d="M0 0 C1.32 0.66 2.64 1.32 4 2 C2.71211992 2.53012738 1.41953322 3.0488329 0.125 3.5625 C-0.95394531 3.99755859 -0.95394531 3.99755859 -2.0546875 4.44140625 C-4 5 -4 5 -6 4 C-4.02 2.68 -2.04 1.36 0 0 Z " fill="#866C94" transform="translate(290,15)"/>
<path d="M0 0 C0.66 0 1.32 0 2 0 C2.1875 2.875 2.1875 2.875 2 6 C1.01 6.66 0.02 7.32 -1 8 C-1.04241723 5.66705225 -1.04092937 3.33297433 -1 1 C-0.67 0.67 -0.34 0.34 0 0 Z " fill="#663B7A" transform="translate(189,299)"/>
<path d="M0 0 C0.66 0 1.32 0 2 0 C1.125 5.75 1.125 5.75 0 8 C-0.99 7.67 -1.98 7.34 -3 7 C-2.01 4.69 -1.02 2.38 0 0 Z " fill="#61407F" transform="translate(497,215)"/>
<path d="M0 0 C1.32 0.33 2.64 0.66 4 1 C4 2.98 4 4.96 4 7 C2 5.75 2 5.75 0 4 C0 2.68 0 1.36 0 0 Z " fill="#795693" transform="translate(166,178)"/>
<path d="M0 0 C0.66 0 1.32 0 2 0 C2 0.66 2 1.32 2 2 C3.65 2 5.3 2 7 2 C6.01 2.495 6.01 2.495 5 3 C5 3.66 5 4.32 5 5 C3.35 4.67 1.7 4.34 0 4 C0 2.68 0 1.36 0 0 Z " fill="#855E98" transform="translate(308,131)"/>
<path d="M0 0 C0.66 0 1.32 0 2 0 C1.74438677 2.3431213 1.40729228 4.67843403 1 7 C0.01 7.495 0.01 7.495 -1 8 C-1.04241723 5.66705225 -1.04092937 3.33297433 -1 1 C-0.67 0.67 -0.34 0.34 0 0 Z " fill="#5C3C73" transform="translate(560,116)"/>
<path d="M0 0 C0.6875 1.8125 0.6875 1.8125 1 4 C-0.4375 5.75 -0.4375 5.75 -2 7 C-2.33 5.35 -2.66 3.7 -3 2 C-2.01 1.34 -1.02 0.68 0 0 Z " fill="#664286" transform="translate(244,90)"/>
<path d="M0 0 C0.99 0.33 1.98 0.66 3 1 C2.3125 2.9375 2.3125 2.9375 1 5 C-1.625 5.75 -1.625 5.75 -4 6 C-2.68 4.02 -1.36 2.04 0 0 Z " fill="#886E99" transform="translate(236,74)"/>
<path d="M0 0 C0.66 0 1.32 0 2 0 C0.79618552 2.49361571 -0.45428722 4.68143083 -2 7 C-2.66 7 -3.32 7 -4 7 C-3.6875 5.0625 -3.6875 5.0625 -3 3 C-2.01 2.67 -1.02 2.34 0 2 C0 1.34 0 0.68 0 0 Z " fill="#5F4378" transform="translate(284,41)"/>
<path d="M0 0 C0.66 0 1.32 0 2 0 C1.125 4.75 1.125 4.75 0 7 C-0.99 6.67 -1.98 6.34 -3 6 C-2.34 5.67 -1.68 5.34 -1 5 C-0.34444881 2.47266765 -0.34444881 2.47266765 0 0 Z " fill="#6B4C7C" transform="translate(468,417)"/>
<path d="M0 0 C0.99 0 1.98 0 3 0 C3.33 2.31 3.66 4.62 4 7 C3.01 6.67 2.02 6.34 1 6 C0.67 4.02 0.34 2.04 0 0 Z " fill="#8D73A0" transform="translate(82,345)"/>
<path d="M0 0 C0.33 0.66 0.66 1.32 1 2 C0.67 2.66 0.34 3.32 0 4 C-2.875 4.125 -2.875 4.125 -6 4 C-6.66 3.34 -7.32 2.68 -8 2 C-5.36 1.34 -2.72 0.68 0 0 Z " fill="#66407E" transform="translate(333,308)"/>
<path d="M0 0 C0.99 0 1.98 0 3 0 C3.33 1.98 3.66 3.96 4 6 C2.68 5.67 1.36 5.34 0 5 C0 3.35 0 1.7 0 0 Z " fill="#74548A" transform="translate(76,218)"/>
<path d="M0 0 C0.33 0.66 0.66 1.32 1 2 C1.66 2.33 2.32 2.66 3 3 C1.68 4.32 0.36 5.64 -1 7 C-1.625 5.1875 -1.625 5.1875 -2 3 C-1.34 2.01 -0.68 1.02 0 0 Z " fill="#6D497E" transform="translate(402,193)"/>
<path d="M0 0 C1.32 0 2.64 0 4 0 C5.0625 1.8125 5.0625 1.8125 6 4 C5.67 4.99 5.34 5.98 5 7 C4.67 6.01 4.34 5.02 4 4 C3.34 4 2.68 4 2 4 C2 3.01 2 2.02 2 1 C1.34 0.67 0.68 0.34 0 0 Z " fill="#8C699E" transform="translate(329,180)"/>
<path d="M0 0 C0.66 0.66 1.32 1.32 2 2 C1.34 2 0.68 2 0 2 C0 1.34 0 0.68 0 0 Z M-2 1 C0.50037734 3.17424117 1.43628586 4.73045798 2 8 C1.01 7.67 0.02 7.34 -1 7 C-1.33 5.02 -1.66 3.04 -2 1 Z " fill="#7D5891" transform="translate(187,153)"/>
<path d="M0 0 C4 2 4 2 5.25 5.125 C5.4975 6.07375 5.745 7.0225 6 8 C5.34 8 4.68 8 4 8 C2.68 5.36 1.36 2.72 0 0 Z " fill="#69487F" transform="translate(482,147)"/>
<path d="M0 0 C2 0.25 2 0.25 4 1 C4.33 1.99 4.66 2.98 5 4 C3.68 4 2.36 4 1 4 C0.34 3.01 -0.32 2.02 -1 1 C-0.67 0.67 -0.34 0.34 0 0 Z " fill="#7B5394" transform="translate(242,147)"/>
<path d="M0 0 C0 0.66 0 1.32 0 2 C-0.66 2 -1.32 2 -2 2 C-2.33 2.99 -2.66 3.98 -3 5 C-4.65 5 -6.3 5 -8 5 C-6.68 4.34 -5.36 3.68 -4 3 C-4 2.34 -4 1.68 -4 1 C-2 0 -2 0 0 0 Z " fill="#917CA6" transform="translate(104,137)"/>
<path d="M0 0 C0.99 0.99 1.98 1.98 3 3 C2.34 5.31 1.68 7.62 1 10 C0.34 9.34 -0.32 8.68 -1 8 C-0.96712417 5.27130593 -0.43602229 2.7033382 0 0 Z " fill="#755087" transform="translate(561,97)"/>
</svg>
